<svg xmlns="http://www.w3.org/2000/svg" xmlns:xlink="http://www.w3.org/1999/xlink" width="745" height="480" viewBox="0 0 745 480"><defs><clipPath id="a"><rect width="189" height="124" fill="none"/></clipPath><clipPath id="c"><rect width="179" height="5" fill="none"/></clipPath><clipPath id="e"><rect width="7" height="127" fill="none"/></clipPath></defs><g transform="translate(-11549 236)"><g transform="translate(11604 -236)" fill="#e8e8e8" stroke="#707070" stroke-width="1"><rect width="634" height="445" rx="15" stroke="none"/><rect x="0.5" y="0.5" width="633" height="444" rx="14.5" fill="none"/></g><g transform="translate(11609 -231)" stroke="#707070" stroke-width="1"><rect width="624" height="435" rx="15" stroke="none"/><rect x="0.5" y="0.5" width="623" height="434" rx="14.5" fill="none"/></g><path d="M0,0H579a15,15,0,0,1,15,15V380a15,15,0,0,1-15,15H0a0,0,0,0,1,0,0V0A0,0,0,0,1,0,0Z" transform="translate(11624 -211)" fill="#fff"/><rect width="594" height="38" transform="translate(11624 -211)" fill="#f4f4f4"/><rect width="118" height="357" transform="translate(11624 -173)" fill="#6f99e3"/><rect width="118" height="23" transform="translate(11624 -116)" fill="#8bb1f4"/><rect width="104" height="23" rx="11.5" transform="translate(11631 -32)" fill="#e37ab0"/><text transform="translate(11655 -17)" fill="#fff" font-size="8" font-family="TsukuARdGothic-Bold, Tsukushi A Round Gothic" font-weight="700"><tspan x="0" y="0">学習データ投稿</tspan></text><text transform="translate(11648 -125)" fill="#fff" font-size="8" font-family="TsukuARdGothic-Bold, Tsukushi A Round Gothic" font-weight="700"><tspan x="0" y="0">学習内容</tspan></text><text transform="translate(11648 -102)" fill="#fff" font-size="8" font-family="TsukuARdGothic-Bold, Tsukushi A Round Gothic" font-weight="700"><tspan x="0" y="0">学習状況</tspan></text><text transform="translate(11648 -79)" fill="#fff" font-size="8" font-family="TsukuARdGothic-Bold, Tsukushi A Round Gothic" font-weight="700"><tspan x="0" y="0">学習最適化</tspan></text><g transform="translate(11930 -1070)"><g transform="translate(140 1108)" fill="#fff" stroke="#d1d1d1" stroke-width="1"><path d="M5,0H128a5,5,0,0,1,5,5V146a0,0,0,0,1,0,0H0a0,0,0,0,1,0,0V5A5,5,0,0,1,5,0Z" stroke="none"/><path d="M5,.5H128A4.5,4.5,0,0,1,132.5,5V145a.5.5,0,0,1-.5.5H1a.5.5,0,0,1-.5-.5V5A4.5,4.5,0,0,1,5,.5Z" fill="none"/></g><g transform="translate(146 1119)" fill="#fff" stroke="#e5e5e5" stroke-width="0.5"><rect width="121" height="34" stroke="none"/><rect x="0.25" y="0.25" width="120.5" height="33.5" fill="none"/></g><g transform="translate(0 -2)"><text transform="translate(151 1126)" font-size="6" font-family="TsukuARdGothic-Regular, Tsukushi A Round Gothic"><tspan x="0" y="5">ここには学習内容が入ります。ここには</tspan><tspan x="0" y="15">学習内容が入ります。</tspan></text><text transform="translate(151 1149)" font-size="4" font-family="TsukuARdGothic-Regular, Tsukushi A Round Gothic"><tspan x="0" y="0">2021/01/01</tspan></text></g><g transform="translate(0 39)"><g transform="translate(146 1119)" fill="#fff" stroke="#e5e5e5" stroke-width="0.5"><rect width="121" height="34" stroke="none"/><rect x="0.25" y="0.25" width="120.5" height="33.5" fill="none"/></g><g transform="translate(0 -2)"><text transform="translate(151 1126)" font-size="6" font-family="TsukuARdGothic-Regular, Tsukushi A Round Gothic"><tspan x="0" y="5">ここには学習内容が入ります。ここには</tspan><tspan x="0" y="15">学習内容が入ります。</tspan></text><text transform="translate(151 1149)" font-size="4" font-family="TsukuARdGothic-Regular, Tsukushi A Round Gothic"><tspan x="0" y="0">2021/01/01</tspan></text></g></g><g transform="translate(0 78)"><g transform="translate(146 1119)" fill="#fff" stroke="#e5e5e5" stroke-width="0.5"><rect width="121" height="34" stroke="none"/><rect x="0.25" y="0.25" width="120.5" height="33.5" fill="none"/></g><g transform="translate(0 -2)"><text transform="translate(151 1126)" font-size="6" font-family="TsukuARdGothic-Regular, Tsukushi A Round Gothic"><tspan x="0" y="5">ここには学習内容が入ります。ここには</tspan><tspan x="0" y="15">学習内容が入ります。</tspan></text><text transform="translate(151 1149)" font-size="4" font-family="TsukuARdGothic-Regular, Tsukushi A Round Gothic"><tspan x="0" y="0">2021/01/01</tspan></text></g></g><g transform="translate(146 1236)" fill="#fff" stroke="#e5e5e5" stroke-width="0.5"><rect width="121" height="18" stroke="none"/><rect x="0.25" y="0.25" width="120.5" height="17.5" fill="none"/></g><text transform="translate(151 1241)" font-size="6" font-family="TsukuARdGothic-Regular, Tsukushi A Round Gothic"><tspan x="0" y="5">ここには学習内容が入ります。ここには</tspan></text></g><text transform="translate(11648 -56)" fill="#fff" font-size="8" font-family="TsukuARdGothic-Bold, Tsukushi A Round Gothic" font-weight="700"><tspan x="0" y="0">振り返り</tspan></text><text transform="translate(11648 123)" fill="#fff" font-size="8" font-family="TsukuARdGothic-Bold, Tsukushi A Round Gothic" font-weight="700"><tspan x="0" y="0">設定</tspan></text><g transform="translate(11777 -1070)"><g transform="translate(140 1108)" fill="#fff" stroke="#d1d1d1" stroke-width="1"><path d="M5,0H128a5,5,0,0,1,5,5V146a0,0,0,0,1,0,0H0a0,0,0,0,1,0,0V5A5,5,0,0,1,5,0Z" stroke="none"/><path d="M5,.5H128A4.5,4.5,0,0,1,132.5,5V145a.5.5,0,0,1-.5.5H1a.5.5,0,0,1-.5-.5V5A4.5,4.5,0,0,1,5,.5Z" fill="none"/></g><g transform="translate(146 1119)" fill="#fff" stroke="#e5e5e5" stroke-width="0.5"><rect width="121" height="34" stroke="none"/><rect x="0.25" y="0.25" width="120.5" height="33.5" fill="none"/></g><g transform="translate(0 -2)"><text transform="translate(151 1126)" font-size="6" font-family="TsukuARdGothic-Regular, Tsukushi A Round Gothic"><tspan x="0" y="5">ここには学習内容が入ります。ここには</tspan><tspan x="0" y="15">学習内容が入ります。</tspan></text><text transform="translate(151 1149)" font-size="4" font-family="TsukuARdGothic-Regular, Tsukushi A Round Gothic"><tspan x="0" y="0">2021/01/01</tspan></text></g><g transform="translate(0 39)"><g transform="translate(146 1119)" fill="#fff" stroke="#e5e5e5" stroke-width="0.5"><rect width="121" height="34" stroke="none"/><rect x="0.25" y="0.25" width="120.5" height="33.5" fill="none"/></g><g transform="translate(0 -2)"><text transform="translate(151 1126)" font-size="6" font-family="TsukuARdGothic-Regular, Tsukushi A Round Gothic"><tspan x="0" y="5">ここには学習内容が入ります。ここには</tspan><tspan x="0" y="15">学習内容が入ります。</tspan></text><text transform="translate(151 1149)" font-size="4" font-family="TsukuARdGothic-Regular, Tsukushi A Round Gothic"><tspan x="0" y="0">2021/01/01</tspan></text></g></g><g transform="translate(0 78)"><g transform="translate(146 1119)" fill="#fff" stroke="#e5e5e5" stroke-width="0.5"><rect width="121" height="34" stroke="none"/><rect x="0.25" y="0.25" width="120.5" height="33.5" fill="none"/></g><g transform="translate(0 -2)"><text transform="translate(151 1126)" font-size="6" font-family="TsukuARdGothic-Regular, Tsukushi A Round Gothic"><tspan x="0" y="5">ここには学習内容が入ります。ここには</tspan><tspan x="0" y="15">学習内容が入ります。</tspan></text><text transform="translate(151 1149)" font-size="4" font-family="TsukuARdGothic-Regular, Tsukushi A Round Gothic"><tspan x="0" y="0">2021/01/01</tspan></text></g></g><g transform="translate(146 1236)" fill="#fff" stroke="#e5e5e5" stroke-width="0.5"><rect width="121" height="18" stroke="none"/><rect x="0.25" y="0.25" width="120.5" height="17.5" fill="none"/></g><text transform="translate(151 1241)" font-size="6" font-family="TsukuARdGothic-Regular, Tsukushi A Round Gothic"><tspan x="0" y="5">ここには学習内容が入ります。ここには</tspan></text></g><text transform="translate(11648 146)" fill="#fff" font-size="8" font-family="TsukuARdGothic-Bold, Tsukushi A Round Gothic" font-weight="700"><tspan x="0" y="0">ヘルプ</tspan></text><text transform="translate(11648 100)" fill="#fff" font-size="8" font-family="TsukuARdGothic-Bold, Tsukushi A Round Gothic" font-weight="700"><tspan x="0" y="0">プロフィール</tspan></text><text transform="translate(12118 -188)" font-size="10" font-family="TsukuARdGothic-Bold, Tsukushi A Round Gothic" font-weight="700"><tspan x="0" y="0">山田太郎さん</tspan></text><circle cx="10.5" cy="10.5" r="10.5" transform="translate(12090 -202)" fill="#fff"/><g transform="translate(12091.588 -200.499)"><path d="M0,0H16.911V16.911H0Z" fill="none"/><circle cx="2.5" cy="2.5" r="2.5" transform="translate(6.412 2.499)" fill="none" stroke="#2c3e50" stroke-linecap="round" stroke-linejoin="round" stroke-width="1.5"/><path d="M6,19.228V17.818A2.818,2.818,0,0,1,8.818,15h2.818a2.818,2.818,0,0,1,2.818,2.818v1.409" transform="translate(-1.288 -4.431)" fill="none" stroke="#2c3e50" stroke-linecap="round" stroke-linejoin="round" stroke-width="1.5"/></g><path d="M5,0H137a5,5,0,0,1,5,5V17a0,0,0,0,1,0,0H0a0,0,0,0,1,0,0V5A5,5,0,0,1,5,0Z" transform="translate(12061 167)" fill="#e37ab0"/><g transform="translate(11669 -1066)"><text transform="translate(430 1244)" fill="#fff" font-size="6" font-family="TsukuARdGothic-Bold, Tsukushi A Round Gothic" font-weight="700"><tspan x="0" y="0">何かお困りではありませんか?</tspan></text><g transform="translate(415.689 1237)"><path d="M0,0H10V10H0Z" fill="none"/><circle cx="3" cy="3" r="3" transform="translate(1.311 1)" fill="none" stroke="#fff" stroke-linecap="round" stroke-linejoin="round" stroke-width="1"/><path d="M17.5,17.5,15,15" transform="translate(-8.02 -8.75)" fill="none" stroke="#fff" stroke-linecap="round" stroke-linejoin="round" stroke-width="1"/><line y2="0.004" transform="translate(4.167 5.417)" fill="none" stroke="#fff" stroke-linecap="round" stroke-linejoin="round" stroke-width="1"/><path d="M9.335,8.25A.625.625,0,1,0,8.86,7.219" transform="translate(-5.168 -4.083)" fill="none" stroke="#fff" stroke-linecap="round" stroke-linejoin="round" stroke-width="1"/></g></g><g transform="translate(11633.948 139)"><path d="M8.535,1.464A5,5,0,1,0,10,5,4.987,4.987,0,0,0,8.535,1.464ZM7.8,2.2A3.963,3.963,0,1,1,5,1.037,3.948,3.948,0,0,1,7.8,2.2Z" transform="translate(0 0)" fill="#fff"/><path d="M217.524,329.326a.5.5,0,1,0,.5.505A.505.505,0,0,0,217.524,329.326Z" transform="translate(-212.783 -322.898)" fill="#fff"/><path d="M180.885,132.07l.344.276a.186.186,0,0,0,.238,0,.467.467,0,0,1,.175-.152,1.1,1.1,0,0,1,.564-.137.856.856,0,0,1,.555.2.623.623,0,0,1,.147.179.326.326,0,0,1,.042.149.617.617,0,0,1-.063.291.589.589,0,0,1-.112.151,1.258,1.258,0,0,1-.274.2c-.108.061-.224.114-.341.179a1.055,1.055,0,0,0-.38.34.921.921,0,0,0-.119.264,1.124,1.124,0,0,0-.038.3v.2a.186.186,0,0,0,.186.186h.447a.186.186,0,0,0,.186-.186v-.2a.305.305,0,0,1,.009-.081.1.1,0,0,1,.024-.045.316.316,0,0,1,.083-.061c.067-.038.175-.089.3-.155a1.976,1.976,0,0,0,.593-.46,1.369,1.369,0,0,0,.233-.4,1.485,1.485,0,0,0,.088-.516,1.141,1.141,0,0,0-.135-.529,1.492,1.492,0,0,0-.568-.584,1.691,1.691,0,0,0-.859-.232,1.926,1.926,0,0,0-.97.244,1.084,1.084,0,0,0-.356.307.186.186,0,0,0,.005.286Z" transform="translate(-177.292 -128.677)" fill="#fff"/></g><g transform="translate(11633.996 115)"><path d="M9.759,4.1l-1.091-.05a.256.256,0,0,1-.226-.158l-.225-.541a.257.257,0,0,1,.048-.272L9,2.273a.258.258,0,0,0-.008-.355l-.907-.907A.258.258,0,0,0,7.731,1l-.807.736a.257.257,0,0,1-.272.048l-.541-.224a.256.256,0,0,1-.158-.226L5.9.245A.257.257,0,0,0,5.646,0H4.363a.257.257,0,0,0-.257.245l-.05,1.09a.256.256,0,0,1-.158.226l-.541.224a.257.257,0,0,1-.272-.048L2.277,1a.258.258,0,0,0-.355.008l-.907.907a.257.257,0,0,0-.008.355l.736.807a.256.256,0,0,1,.047.272l-.224.541a.257.257,0,0,1-.226.158L.249,4.1A.257.257,0,0,0,0,4.359V5.642A.257.257,0,0,0,.249,5.9l1.09.05a.257.257,0,0,1,.226.158l.224.541a.256.256,0,0,1-.047.272l-.736.807a.257.257,0,0,0,.008.355l.908.907A.257.257,0,0,0,2.277,9l.807-.736a.257.257,0,0,1,.272-.048l.541.224a.257.257,0,0,1,.158.226l.05,1.09A.258.258,0,0,0,4.362,10H5.646A.257.257,0,0,0,5.9,9.755l.051-1.09a.257.257,0,0,1,.158-.226l.541-.224a.257.257,0,0,1,.272.048L7.731,9a.258.258,0,0,0,.355-.008l.907-.907A.258.258,0,0,0,9,7.727L8.266,6.92a.257.257,0,0,1-.048-.272l.225-.541a.256.256,0,0,1,.226-.158L9.759,5.9A.257.257,0,0,0,10,5.642V4.359A.257.257,0,0,0,9.759,4.1ZM5,6.633A1.633,1.633,0,1,1,6.637,5,1.633,1.633,0,0,1,5,6.633Z" fill="#fff"/></g><g transform="translate(11584.551 92)"><path d="M56.4,7.278c-.423-.258-.574-.232-.574-.748V5.705c.232-.258.316-.226.513-1.237.4,0,.371-.516.558-.973.153-.372.025-.523-.1-.585C56.9,1.553,56.9.618,55.359.328a2.144,2.144,0,0,0-1.8-.236,2.05,2.05,0,0,1-.759,0l.069.643c-.584.7-.292,1.636-.386,2.183-.123.067-.233.221-.087.577.187.457.161.973.558.973.2,1.012.281.98.513,1.237V6.53c0,.516-.175.524-.574.748-.963.538-2.217.851-2.442,2.532-.041.308,1.725.643,4.2.644s4.237-.337,4.2-.644C58.618,8.128,57.352,7.858,56.4,7.278Z" transform="translate(0 0)" fill="#fff"/></g><g transform="translate(11591.866 -87)"><path d="M292.914,95.318l.709,0,0,.717h.867l0-.711v0l.717,0,0-.862v0h0v0l-.709,0,0-.717-.867,0,0,.71-.717,0Z" transform="translate(-247.142 -91.988)" fill="#fff"/><path d="M123.395,125.946l0-.829v0h0v0l-3.044,0,0,.833Z" transform="translate(-77.797 -122.702)" fill="#fff"/><path d="M125.05,224.151l0-.832h0v0l-4.7,0,0,.833Z" transform="translate(-77.37 -219.017)" fill="#fff"/><path d="M125.047,321.527h0v0l-4.7,0,0,.833h4.7Z" transform="translate(-77.37 -315.336)" fill="#fff"/><path d="M49.521,0,41.134,0l0,9.963v.027h0v0h6.122L49.524,7.73ZM42.077.943l6.5,0,0,6.787-1.33,0,0,1.324-5.181,0V.943Z" transform="translate(0)" fill="#fff"/></g><g transform="translate(11632.999 -114.702)"><path d="M164.026,4.727c-1.974.272-3.865,3.976-4.795,5.691-.234.431.174.655.415.243.173-.3.594-1.157.822-1.112,1.088.181,1.669-.528,1.257-.975,1.384.028,2.071-.733,1.678-1.2a2.073,2.073,0,0,0,1.55-.178A1.325,1.325,0,0,0,164.026,4.727Z" transform="translate(-156.214 0)" fill="#fff"/><path d="M7.574,92.781a2.8,2.8,0,0,1-.769.515v3.832a.3.3,0,0,1-.3.3H1.211a.3.3,0,0,1-.3-.3V91.836a.3.3,0,0,1,.3-.3H4.179c.208-.317.421-.621.638-.907H1.211A1.21,1.21,0,0,0,0,91.836v5.292a1.21,1.21,0,0,0,1.21,1.21H6.5a1.21,1.21,0,0,0,1.21-1.21V92.762S7.663,92.7,7.574,92.781Z" transform="translate(0 -84.333)" fill="#fff"/></g><g transform="translate(11633 -207.438)"><path d="M9.3,76.92a.272.272,0,0,0-.133-.133,2.694,2.694,0,0,0-.422-.148,5.686,5.686,0,0,0-.81-.148,8.684,8.684,0,0,0-.974-.053,8.2,8.2,0,0,0-1.266.093,5.085,5.085,0,0,0-.519.108,3.009,3.009,0,0,0-.308.1,2.985,2.985,0,0,0-.309-.1,5.674,5.674,0,0,0-.81-.148,8.693,8.693,0,0,0-.975-.053,8.2,8.2,0,0,0-1.266.093,5.092,5.092,0,0,0-.519.108,2.71,2.71,0,0,0-.422.148.271.271,0,0,0-.132.133c-.206.051-.44.148-.44.319V82.2a.863.863,0,0,0,.863.863H4.343V83.1a.169.169,0,0,0,.169.17h.722A.169.169,0,0,0,5.4,83.1v-.045H8.882a.863.863,0,0,0,.863-.863V77.239C9.745,77.068,9.511,76.972,9.3,76.92ZM4.6,82.078l-.038-.011a5.632,5.632,0,0,0-.81-.148,8.693,8.693,0,0,0-.975-.053,8.233,8.233,0,0,0-1.266.093,5.092,5.092,0,0,0-.519.108l-.038.011V77.217q.082-.029.179-.055a5.076,5.076,0,0,1,.731-.133,8.058,8.058,0,0,1,.913-.05,7.71,7.71,0,0,1,1.181.086,4.5,4.5,0,0,1,.462.1q.1.026.179.055Zm4.186,0-.038-.011a5.644,5.644,0,0,0-.81-.148,8.684,8.684,0,0,0-.974-.053,8.233,8.233,0,0,0-1.266.093,5.082,5.082,0,0,0-.519.108l-.038.011V77.217q.082-.029.179-.055a5.057,5.057,0,0,1,.73-.133,8.063,8.063,0,0,1,.913-.05,7.716,7.716,0,0,1,1.181.086,4.514,4.514,0,0,1,.462.1c.065.018.124.036.179.055Z" transform="translate(0 0)" fill="#fff"/></g><g transform="translate(11632 -109.344)"><path d="M10.255,49.44l0-.783a3.57,3.57,0,0,0-3.826-3.314A3.816,3.816,0,0,0,5,45.621a2.088,2.088,0,0,0-2.618.725A2.19,2.19,0,0,0,.7,48.431a1.937,1.937,0,0,0,.034,3.005,1.945,1.945,0,0,0,2.661,1.751V54.92H7.878V54.1a3.843,3.843,0,0,0,2.055-2.008l1-.081a.181.181,0,0,0,.158-.232ZM1.976,52.076a.989.989,0,0,1-.291-.7,1,1,0,0,1,.009-.122l.038-.315-.275-.158a1,1,0,0,1-.362-.357.988.988,0,0,1-.007-.994,1,1,0,0,1,.345-.355l.258-.158-.032-.3c0-.047-.007-.091-.007-.134a1.24,1.24,0,0,1,1.085-1.229l.25-.031L3.1,47a1.152,1.152,0,0,1,.413-.446,1.138,1.138,0,0,1,1.7,1.273l-.086.313.26.2a.988.988,0,0,1,.4.792A.977.977,0,0,1,5.6,49.7a1,1,0,0,1-.467.358l-.459.169.179.455a.991.991,0,0,1-.923,1.355,1,1,0,0,1-.2-.02L3.5,51.97l-.178.154a.989.989,0,0,1-1.35-.048Z" transform="translate(0)" fill="#fff"/><path d="M477.29,140.141a.4.4,0,0,0-.4.4v1.835a.4.4,0,1,0,.8,0V140.54A.4.4,0,0,0,477.29,140.141Z" transform="translate(-466.051 -92.642)" fill="#fff"/></g><g transform="translate(11764 -140)" fill="#fff" stroke="#d1d1d1" stroke-width="1"><rect width="209.5" height="145" stroke="none"/><rect x="0.5" y="0.5" width="208.5" height="144" fill="none"/></g><text transform="translate(11764 -147)" font-size="12" font-family="TsukuARdGothic-Bold, Tsukushi A Round Gothic" font-weight="700"><tspan x="0" y="0">学習状況</tspan></text><text transform="translate(11764 31)" font-size="12" font-family="TsukuARdGothic-Bold, Tsukushi A Round Gothic" font-weight="700"><tspan x="0" y="0">学習ボード</tspan></text><g transform="translate(11624 -1070)"><g transform="translate(140 1108)" fill="#fff" stroke="#d1d1d1" stroke-width="1"><path d="M5,0H128a5,5,0,0,1,5,5V146a0,0,0,0,1,0,0H0a0,0,0,0,1,0,0V5A5,5,0,0,1,5,0Z" stroke="none"/><path d="M5,.5H128A4.5,4.5,0,0,1,132.5,5V145a.5.5,0,0,1-.5.5H1a.5.5,0,0,1-.5-.5V5A4.5,4.5,0,0,1,5,.5Z" fill="none"/></g><g transform="translate(146 1119)" fill="#fff" stroke="#e5e5e5" stroke-width="0.5"><rect width="121" height="34" stroke="none"/><rect x="0.25" y="0.25" width="120.5" height="33.5" fill="none"/></g><g transform="translate(0 -2)"><text transform="translate(151 1126)" font-size="6" font-family="TsukuARdGothic-Regular, Tsukushi A Round Gothic"><tspan x="0" y="5">ここには学習内容が入ります。ここには</tspan><tspan x="0" y="15">学習内容が入ります。</tspan></text><text transform="translate(151 1149)" font-size="4" font-family="TsukuARdGothic-Regular, Tsukushi A Round Gothic"><tspan x="0" y="0">2021/01/01</tspan></text></g><g transform="translate(0 39)"><g transform="translate(146 1119)" fill="#fff" stroke="#e5e5e5" stroke-width="0.5"><rect width="121" height="34" stroke="none"/><rect x="0.25" y="0.25" width="120.5" height="33.5" fill="none"/></g><g transform="translate(0 -2)"><text transform="translate(151 1126)" font-size="6" font-family="TsukuARdGothic-Regular, Tsukushi A Round Gothic"><tspan x="0" y="5">ここには学習内容が入ります。ここには</tspan><tspan x="0" y="15">学習内容が入ります。</tspan></text><text transform="translate(151 1149)" font-size="4" font-family="TsukuARdGothic-Regular, Tsukushi A Round Gothic"><tspan x="0" y="0">2021/01/01</tspan></text></g></g><g transform="translate(0 78)"><g transform="translate(146 1119)" fill="#fff" stroke="#e5e5e5" stroke-width="0.5"><rect width="121" height="34" stroke="none"/><rect x="0.25" y="0.25" width="120.5" height="33.5" fill="none"/></g><g transform="translate(0 -2)"><text transform="translate(151 1126)" font-size="6" font-family="TsukuARdGothic-Regular, Tsukushi A Round Gothic"><tspan x="0" y="5">ここには学習内容が入ります。ここには</tspan><tspan x="0" y="15">学習内容が入ります。</tspan></text><text transform="translate(151 1149)" font-size="4" font-family="TsukuARdGothic-Regular, Tsukushi A Round Gothic"><tspan x="0" y="0">2021/01/01</tspan></text></g></g><g transform="translate(146 1236)" fill="#fff" stroke="#e5e5e5" stroke-width="0.5"><rect width="121" height="18" stroke="none"/><rect x="0.25" y="0.25" width="120.5" height="17.5" fill="none"/></g><text transform="translate(151 1241)" font-size="6" font-family="TsukuARdGothic-Regular, Tsukushi A Round Gothic"><tspan x="0" y="5">ここには学習内容が入ります。ここには</tspan></text></g><g transform="translate(11774.5 -129)" clip-path="url(#a)"><g transform="translate(-150.5 -1064)"><line x2="189" transform="translate(150.5 1064.5)" fill="none" stroke="#f2f2f2" stroke-width="0.5"/></g><g transform="translate(-150.5 -1053)"><line x2="189" transform="translate(150.5 1064.5)" fill="none" stroke="#f2f2f2" stroke-width="0.5"/></g><g transform="translate(-150.5 -1042)"><line x2="189" transform="translate(150.5 1064.5)" fill="none" stroke="#f2f2f2" stroke-width="0.5"/></g><g transform="translate(-150.5 -1031)"><line x2="189" transform="translate(150.5 1064.5)" fill="none" stroke="#f2f2f2" stroke-width="0.5"/></g><g transform="translate(-150.5 -1020)"><line x2="189" transform="translate(150.5 1064.5)" fill="none" stroke="#f2f2f2" stroke-width="0.5"/></g><g transform="translate(-150.5 -1009)"><line x2="189" transform="translate(150.5 1064.5)" fill="none" stroke="#f2f2f2" stroke-width="0.5"/></g><g transform="translate(-150.5 -998)"><line x2="189" transform="translate(150.5 1064.5)" fill="none" stroke="#f2f2f2" stroke-width="0.5"/></g><g transform="translate(-150.5 -987)"><line x2="189" transform="translate(150.5 1064.5)" fill="none" stroke="#f2f2f2" stroke-width="0.5"/></g><g transform="translate(-150.5 -976)"><line x2="189" transform="translate(150.5 1064.5)" fill="none" stroke="#f2f2f2" stroke-width="0.5"/></g><g transform="translate(-150.5 -965)"><line x2="189" transform="translate(150.5 1064.5)" fill="none" stroke="#f2f2f2" stroke-width="0.5"/></g><g transform="translate(-150.5 -954)"><line x2="189" transform="translate(150.5 1064.5)" fill="none" stroke="#f2f2f2" stroke-width="0.5"/></g><g transform="translate(-150.5 -943)"><line x2="189" transform="translate(150.5 1064.5)" fill="none" stroke="#f2f2f2" stroke-width="0.5"/></g></g><rect width="13" height="43" transform="translate(11804 -51)" fill="#6f99e3"/><rect width="13" height="32" transform="translate(11784 -40)" fill="#6f99e3"/><rect width="13" height="65" transform="translate(11824 -73)" fill="#6f99e3"/><rect width="13" height="76" transform="translate(11844 -84)" fill="#6f99e3"/><rect width="13" height="87" transform="translate(11864 -95)" fill="#6f99e3"/><rect width="13" height="109" transform="translate(11884 -117)" fill="#6f99e3"/><rect width="13" height="87" transform="translate(11904 -95)" fill="#6f99e3"/><rect width="13" height="116" transform="translate(11924 -124)" fill="#6f99e3"/><rect width="13" height="116" transform="translate(11944 -124)" fill="#6f99e3"/><g transform="translate(11994 -140)" fill="#fff" stroke="#d1d1d1" stroke-width="1"><rect width="209.5" height="145" stroke="none"/><rect x="0.5" y="0.5" width="208.5" height="144" fill="none"/></g><g transform="translate(12004.5 -129)" clip-path="url(#a)"><g transform="translate(-150.5 -1064)"><line x2="189" transform="translate(150.5 1064.5)" fill="none" stroke="#f2f2f2" stroke-width="0.5"/></g><g transform="translate(-150.5 -1053)"><line x2="189" transform="translate(150.5 1064.5)" fill="none" stroke="#f2f2f2" stroke-width="0.5"/></g><g transform="translate(-150.5 -1042)"><line x2="189" transform="translate(150.5 1064.5)" fill="none" stroke="#f2f2f2" stroke-width="0.5"/></g><g transform="translate(-150.5 -1031)"><line x2="189" transform="translate(150.5 1064.5)" fill="none" stroke="#f2f2f2" stroke-width="0.5"/></g><g transform="translate(-150.5 -1020)"><line x2="189" transform="translate(150.5 1064.5)" fill="none" stroke="#f2f2f2" stroke-width="0.5"/></g><g transform="translate(-150.5 -1009)"><line x2="189" transform="translate(150.5 1064.5)" fill="none" stroke="#f2f2f2" stroke-width="0.5"/></g><g transform="translate(-150.5 -998)"><line x2="189" transform="translate(150.5 1064.5)" fill="none" stroke="#f2f2f2" stroke-width="0.5"/></g><g transform="translate(-150.5 -987)"><line x2="189" transform="translate(150.5 1064.5)" fill="none" stroke="#f2f2f2" stroke-width="0.5"/></g><g transform="translate(-150.5 -976)"><line x2="189" transform="translate(150.5 1064.5)" fill="none" stroke="#f2f2f2" stroke-width="0.5"/></g><g transform="translate(-150.5 -965)"><line x2="189" transform="translate(150.5 1064.5)" fill="none" stroke="#f2f2f2" stroke-width="0.5"/></g><g transform="translate(-150.5 -954)"><line x2="189" transform="translate(150.5 1064.5)" fill="none" stroke="#f2f2f2" stroke-width="0.5"/></g><g transform="translate(-150.5 -943)"><line x2="189" transform="translate(150.5 1064.5)" fill="none" stroke="#f2f2f2" stroke-width="0.5"/></g></g><rect width="13" height="43" transform="translate(12034 -51)" fill="#6f99e3"/><rect width="13" height="32" transform="translate(12014 -40)" fill="#6f99e3"/><rect width="13" height="65" transform="translate(12054 -73)" fill="#6f99e3"/><rect width="13" height="65" transform="translate(12074 -73)" fill="#6f99e3"/><rect width="13" height="87" transform="translate(12094 -95)" fill="#6f99e3"/><rect width="13" height="87" transform="translate(12114 -95)" fill="#6f99e3"/><rect width="13" height="87" transform="translate(12134 -95)" fill="#6f99e3"/><rect width="13" height="97" transform="translate(12154 -105)" fill="#6f99e3"/><rect width="13" height="116" transform="translate(12174 -124)" fill="#6f99e3"/><g transform="translate(11783 -5)" clip-path="url(#c)"><g transform="translate(-159 -1065)"><text transform="translate(159 1069)" font-size="4" font-family="TsukuARdGothic-Regular, Tsukushi A Round Gothic"><tspan x="0" y="0">2020/01</tspan></text></g><g transform="translate(-139 -1065)"><text transform="translate(159 1069)" font-size="4" font-family="TsukuARdGothic-Regular, Tsukushi A Round Gothic"><tspan x="0" y="0">2020/02</tspan></text></g><g transform="translate(-119 -1065)"><text transform="translate(159 1069)" font-size="4" font-family="TsukuARdGothic-Regular, Tsukushi A Round Gothic"><tspan x="0" y="0">2020/03</tspan></text></g><g transform="translate(-99 -1065)"><text transform="translate(159 1069)" font-size="4" font-family="TsukuARdGothic-Regular, Tsukushi A Round Gothic"><tspan x="0" y="0">2020/04</tspan></text></g><g transform="translate(-79 -1065)"><text transform="translate(159 1069)" font-size="4" font-family="TsukuARdGothic-Regular, Tsukushi A Round Gothic"><tspan x="0" y="0">2020/05</tspan></text></g><g transform="translate(-59 -1065)"><text transform="translate(159 1069)" font-size="4" font-family="TsukuARdGothic-Regular, Tsukushi A Round Gothic"><tspan x="0" y="0">2020/06</tspan></text></g><g transform="translate(-39 -1065)"><text transform="translate(159 1069)" font-size="4" font-family="TsukuARdGothic-Regular, Tsukushi A Round Gothic"><tspan x="0" y="0">2020/07</tspan></text></g><g transform="translate(-19 -1065)"><text transform="translate(159 1069)" font-size="4" font-family="TsukuARdGothic-Regular, Tsukushi A Round Gothic"><tspan x="0" y="0">2020/08</tspan></text></g><g transform="translate(1 -1065)"><text transform="translate(159 1069)" font-size="4" font-family="TsukuARdGothic-Regular, Tsukushi A Round Gothic"><tspan x="0" y="0">2020/09</tspan></text></g></g><g transform="translate(12013 -5)" clip-path="url(#c)"><g transform="translate(-159 -1065)"><text transform="translate(159 1069)" font-size="4" font-family="TsukuARdGothic-Regular, Tsukushi A Round Gothic"><tspan x="0" y="0">2020/01</tspan></text></g><g transform="translate(-139 -1065)"><text transform="translate(159 1069)" font-size="4" font-family="TsukuARdGothic-Regular, Tsukushi A Round Gothic"><tspan x="0" y="0">2020/02</tspan></text></g><g transform="translate(-119 -1065)"><text transform="translate(159 1069)" font-size="4" font-family="TsukuARdGothic-Regular, Tsukushi A Round Gothic"><tspan x="0" y="0">2020/03</tspan></text></g><g transform="translate(-99 -1065)"><text transform="translate(159 1069)" font-size="4" font-family="TsukuARdGothic-Regular, Tsukushi A Round Gothic"><tspan x="0" y="0">2020/04</tspan></text></g><g transform="translate(-79 -1065)"><text transform="translate(159 1069)" font-size="4" font-family="TsukuARdGothic-Regular, Tsukushi A Round Gothic"><tspan x="0" y="0">2020/05</tspan></text></g><g transform="translate(-59 -1065)"><text transform="translate(159 1069)" font-size="4" font-family="TsukuARdGothic-Regular, Tsukushi A Round Gothic"><tspan x="0" y="0">2020/06</tspan></text></g><g transform="translate(-39 -1065)"><text transform="translate(159 1069)" font-size="4" font-family="TsukuARdGothic-Regular, Tsukushi A Round Gothic"><tspan x="0" y="0">2020/07</tspan></text></g><g transform="translate(-19 -1065)"><text transform="translate(159 1069)" font-size="4" font-family="TsukuARdGothic-Regular, Tsukushi A Round Gothic"><tspan x="0" y="0">2020/08</tspan></text></g><g transform="translate(1 -1065)"><text transform="translate(159 1069)" font-size="4" font-family="TsukuARdGothic-Regular, Tsukushi A Round Gothic"><tspan x="0" y="0">2020/09</tspan></text></g></g><g transform="translate(11996 -132)" clip-path="url(#e)"><g transform="translate(-372 -938)"><text transform="translate(372 942)" font-size="4" font-family="TsukuARdGothic-Regular, Tsukushi A Round Gothic"><tspan x="0" y="0">11h</tspan></text></g><g transform="translate(-372 -927)"><text transform="translate(372 942)" font-size="4" font-family="TsukuARdGothic-Regular, Tsukushi A Round Gothic"><tspan x="0" y="0">10h</tspan></text></g><g transform="translate(-372 -916)"><text transform="translate(372 942)" font-size="4" font-family="TsukuARdGothic-Regular, Tsukushi A Round Gothic"><tspan x="0" y="0">9h</tspan></text></g><g transform="translate(-372 -905)"><text transform="translate(372 942)" font-size="4" font-family="TsukuARdGothic-Regular, Tsukushi A Round Gothic"><tspan x="0" y="0">8h</tspan></text></g><g transform="translate(-372 -894)"><text transform="translate(372 942)" font-size="4" font-family="TsukuARdGothic-Regular, Tsukushi A Round Gothic"><tspan x="0" y="0">7h</tspan></text></g><g transform="translate(-372 -883)"><text transform="translate(372 942)" font-size="4" font-family="TsukuARdGothic-Regular, Tsukushi A Round Gothic"><tspan x="0" y="0">6h</tspan></text></g><g transform="translate(-372 -872)"><text transform="translate(372 942)" font-size="4" font-family="TsukuARdGothic-Regular, Tsukushi A Round Gothic"><tspan x="0" y="0">5h</tspan></text></g><g transform="translate(-372 -861)"><text transform="translate(372 942)" font-size="4" font-family="TsukuARdGothic-Regular, Tsukushi A Round Gothic"><tspan x="0" y="0">4h</tspan></text></g><g transform="translate(-372 -850)"><text transform="translate(372 942)" font-size="4" font-family="TsukuARdGothic-Regular, Tsukushi A Round Gothic"><tspan x="0" y="0">3h</tspan></text></g><g transform="translate(-372 -839)"><text transform="translate(372 942)" font-size="4" font-family="TsukuARdGothic-Regular, Tsukushi A Round Gothic"><tspan x="0" y="0">2h</tspan></text></g><g transform="translate(-372 -828)"><text transform="translate(372 942)" font-size="4" font-family="TsukuARdGothic-Regular, Tsukushi A Round Gothic"><tspan x="0" y="0">1h</tspan></text></g><g transform="translate(-372 -817)"><text transform="translate(372 942)" font-size="4" font-family="TsukuARdGothic-Regular, Tsukushi A Round Gothic"><tspan x="0" y="0">0</tspan></text></g></g><g transform="translate(11766 -131)" clip-path="url(#e)"><g transform="translate(-372 -938)"><text transform="translate(372 942)" font-size="4" font-family="TsukuARdGothic-Regular, Tsukushi A Round Gothic"><tspan x="0" y="0">11h</tspan></text></g><g transform="translate(-372 -927)"><text transform="translate(372 942)" font-size="4" font-family="TsukuARdGothic-Regular, Tsukushi A Round Gothic"><tspan x="0" y="0">10h</tspan></text></g><g transform="translate(-372 -916)"><text transform="translate(372 942)" font-size="4" font-family="TsukuARdGothic-Regular, Tsukushi A Round Gothic"><tspan x="0" y="0">9h</tspan></text></g><g transform="translate(-372 -905)"><text transform="translate(372 942)" font-size="4" font-family="TsukuARdGothic-Regular, Tsukushi A Round Gothic"><tspan x="0" y="0">8h</tspan></text></g><g transform="translate(-372 -894)"><text transform="translate(372 942)" font-size="4" font-family="TsukuARdGothic-Regular, Tsukushi A Round Gothic"><tspan x="0" y="0">7h</tspan></text></g><g transform="translate(-372 -883)"><text transform="translate(372 942)" font-size="4" font-family="TsukuARdGothic-Regular, Tsukushi A Round Gothic"><tspan x="0" y="0">6h</tspan></text></g><g transform="translate(-372 -872)"><text transform="translate(372 942)" font-size="4" font-family="TsukuARdGothic-Regular, Tsukushi A Round Gothic"><tspan x="0" y="0">5h</tspan></text></g><g transform="translate(-372 -861)"><text transform="translate(372 942)" font-size="4" font-family="TsukuARdGothic-Regular, Tsukushi A Round Gothic"><tspan x="0" y="0">4h</tspan></text></g><g transform="translate(-372 -850)"><text transform="translate(372 942)" font-size="4" font-family="TsukuARdGothic-Regular, Tsukushi A Round Gothic"><tspan x="0" y="0">3h</tspan></text></g><g transform="translate(-372 -839)"><text transform="translate(372 942)" font-size="4" font-family="TsukuARdGothic-Regular, Tsukushi A Round Gothic"><tspan x="0" y="0">2h</tspan></text></g><g transform="translate(-372 -828)"><text transform="translate(372 942)" font-size="4" font-family="TsukuARdGothic-Regular, Tsukushi A Round Gothic"><tspan x="0" y="0">1h</tspan></text></g><g transform="translate(-372 -817)"><text transform="translate(372 942)" font-size="4" font-family="TsukuARdGothic-Regular, Tsukushi A Round Gothic"><tspan x="0" y="0">0</tspan></text></g></g><text transform="translate(11651 -186)" fill="#e37ab0" font-size="16" font-family="TsukuARdGothic-Bold, Tsukushi A Round Gothic" font-weight="700"><tspan x="0" y="0">Learn</tspan></text><g transform="translate(11632 -199.443)"><g transform="translate(0 0.443)" fill="#e37ab0" stroke="#e37ab0" stroke-width="1"><rect width="15" height="15" rx="3" stroke="none"/><rect x="0.5" y="0.5" width="14" height="14" rx="2.5" fill="none"/></g><path d="M9766.758-1462.473c-.418.446-3.336,6.885-1.24,7.818s8.777.612,9.041.135.465-1.307-.129-1.35-5.2,1.119-6.4.8c-.617-.165-2.137-1.223-.229-2.976,1.665-1.53,6.75-3.755,6.625-4.128-.261-.772-3.4-1.831-4.982-1.5A4.745,4.745,0,0,0,9766.758-1462.473Z" transform="translate(-9762.275 1466.742)" fill="#fff"/></g><rect width="745" height="18" rx="2" transform="translate(11549 209)" fill="#e8e8e8"/><path d="M0,0H745a0,0,0,0,1,0,0V9a8,8,0,0,1-8,8H8A8,8,0,0,1,0,9V0A0,0,0,0,1,0,0Z" transform="translate(11549 227)" fill="#e2e2e2"/></g></svg>