<svg xmlns="http://www.w3.org/2000/svg" width="100" height="100" viewBox="0 0 100 100"><g transform="translate(-9787 -6254)"><rect width="100" height="100" transform="translate(9787 6254)" fill="none"/><g transform="translate(9787.156 6254)"><path d="M16.172,126.9a33.6,33.6,0,0,1,6.251-19.547L12.111,97.042l-1.2-1.2,0,0-.022-.022a49.785,49.785,0,0,0,0,62.155l11.531-11.531A33.6,33.6,0,0,1,16.172,126.9Z" transform="translate(0 -77.295)" fill="#e37ab0"/><path d="M147.257,396.2a33.661,33.661,0,0,1-39.086,0L97.837,406.539l-1.185,1.18,0,0-.022.022a49.741,49.741,0,0,0,61.282.655c.284-.216.579-.411.858-.633l0,0,.026-.019Zm-43.391,10.924,4.964-4.964a38.331,38.331,0,0,0,37.767,0l4.065,4.065.9.91a45.073,45.073,0,0,1-46.477.712C104.678,407.611,104.268,407.381,103.866,407.129Z" transform="translate(-77.789 -319.1)" fill="#e37ab0"/><path d="M108.164,22.917a33.5,33.5,0,0,1,13.922-5.78V2.408l0-1.567h0V.81a49.592,49.592,0,0,0-24.549,9.9c-.292.221-.595.423-.883.651l0,0c-.008.007-.018.012-.025.019Zm-4.3-10.931a44.935,44.935,0,0,1,13.54-5.626v7.033a38.581,38.581,0,0,0-8.581,3.564l-4.076-4.078Z" transform="translate(-77.789 -0.81)" fill="#e37ab0"/><path d="M318.256,19.339a50.333,50.333,0,0,0-7.952-7.96,49.674,49.674,0,0,0-23.686-10.3c-.581-.088-1.159-.2-1.744-.265V.816l-.031-.005V17.137a33.569,33.569,0,0,1,13.922,5.78,34.025,34.025,0,0,1,7.959,7.952,33.718,33.718,0,0,1,0,39.094L318.256,81.5a49.82,49.82,0,0,0,0-62.163Z" transform="translate(-229.297 -0.811)" fill="#e37ab0"/><path d="M140.245,198.637v-13.9a13.9,13.9,0,1,0,13.876,14.3c0-.126.02-.248.02-.375h0c0-.011,0-.02,0-.031Zm0,3.744h6.9l1.872.008.654.014A10.151,10.151,0,1,1,136.5,189.2V202.38h3.744Z" transform="translate(-101.709 -148.872)" fill="#e37ab0"/><path d="M313.071,198.916v-2.867H295.489v2.836h0v.031Z" transform="translate(-237.866 -157.976)" fill="#e37ab0"/><path d="M295.489,237.061v.031h17.582v-2.867H295.489v2.836Z" transform="translate(-237.866 -188.707)" fill="#e37ab0"/><path d="M295.489,275.236v.031H309.1V272.4H295.489v2.836Z" transform="translate(-237.866 -219.438)" fill="#e37ab0"/><path d="M217.961,184.74v0l-.031,0v9.934h9.933a9.926,9.926,0,0,0-9.631-9.919C218.14,184.752,218.052,184.741,217.961,184.74Z" transform="translate(-175.432 -148.872)" fill="#e37ab0"/></g></g></svg>