<svg xmlns="http://www.w3.org/2000/svg" width="100" height="100.046" viewBox="0 0 100 100.046"><g transform="translate(-9935 -6412)"><rect width="100" height="100" transform="translate(9935 6412)" fill="none"/><g transform="translate(9954.603 6412)"><path d="M286.688,253.462l-.682-.692,0,.007-.023-.023-.668,1.15a8.754,8.754,0,0,1-2.874,2.977l-.287.174-1.151.668.062.062,3.255,3.275a3.532,3.532,0,0,0,2.495,1.027,3.525,3.525,0,0,0,3.522-3.511,3.494,3.494,0,0,0-1.027-2.5Z" transform="translate(-245.992 -203.365)" fill="#e37ab0"/><path d="M206.973,166.717a11.621,11.621,0,0,0-.891-4.5.06.06,0,0,0-.015-.047,4.194,4.194,0,0,0-.2-.469c-.015-.031-.015-.046-.031-.063-.078-.156-.156-.313-.234-.469,0-.015-.015-.031-.015-.047a11.866,11.866,0,0,0-21.463,10.052c0,.016.015.031.015.046.063.157.14.313.2.469a.116.116,0,0,1,.031.063l.234.469c.016.016.016.031.031.047a11.88,11.88,0,0,0,4.862,4.877c.015.016.031.016.046.032l.469.234c.016.016.047.016.063.032.157.063.313.14.469.2.015,0,.031.015.046.015a11.68,11.68,0,0,0,4.5.891A11.855,11.855,0,0,0,206.973,166.717Zm-5.956-.015a5.951,5.951,0,1,1-1.735-4.173A5.811,5.811,0,0,1,201.017,166.7Z" transform="translate(-167.337 -124.582)" fill="#e37ab0"/><path d="M155.325,0H108.588a6.753,6.753,0,0,0-6.748,6.761V92.567a7.474,7.474,0,0,0,7.478,7.479h45.277a7.477,7.477,0,0,0,7.492-7.479V6.761A6.756,6.756,0,0,0,155.325,0ZM124.478,9.566a1.4,1.4,0,0,1,1.4-1.4h12.167a1.395,1.395,0,1,1,0,2.789H125.88A1.4,1.4,0,0,1,124.478,9.566ZM137.214,89.5a5.256,5.256,0,1,1-5.257-5.025A5.245,5.245,0,0,1,137.214,89.5ZM110.6,78.868V16.43h42.72V78.867H110.6Z" transform="translate(-101.84)" fill="#e37ab0"/></g></g></svg>