<svg xmlns="http://www.w3.org/2000/svg" width="100" height="100" viewBox="0 0 100 100"><g transform="translate(-9935 -6117)"><rect width="100" height="100" transform="translate(9935 6117)" fill="none"/><g transform="translate(9940.276 6117)"><path d="M104.034,194.562h53.927a3.371,3.371,0,0,0,3.371-3.371V149.858a3.387,3.387,0,0,0-3.386-3.387h-53.9a3.387,3.387,0,0,0-3.387,3.387v41.333A3.371,3.371,0,0,0,104.034,194.562Zm25.331-22.14v-4.812h3.265v4.812Zm12.56-1.941c-.08-.006-.161-.007-.239-.016a6.151,6.151,0,0,1-1.9-.554c-.038-.018-.075-.039-.113-.058a6.209,6.209,0,0,1-.765-.457l-.077-.054a6.184,6.184,0,0,1-2.373-6.522.087.087,0,0,0,0-.012,7.7,7.7,0,0,1,1-2.312,3.711,3.711,0,0,1,1.137-1.137,7.715,7.715,0,0,1,2.217-.968c.077-.019.155-.037.231-.054a6.645,6.645,0,0,1,.821-.124c.092-.008.184-.021.275-.025a6.23,6.23,0,0,1,.934.023l.149.018a6.124,6.124,0,0,1,.845.169c.117.032.229.073.342.112.188.063.372.133.551.214.114.051.228.1.339.162.182.1.355.2.525.313.088.059.181.112.266.175a6.137,6.137,0,0,1,.687.582c.053.052.1.112.15.166a5.956,5.956,0,0,1,.458.54c.065.086.124.177.185.268a6.139,6.139,0,0,1,.324.544c.05.094.1.187.145.284a6.02,6.02,0,0,1,.271.7c.021.062.047.121.066.184a6.121,6.121,0,0,1,.188.938c.011.088.011.179.018.268a6.069,6.069,0,0,1,.017.671,6.136,6.136,0,0,1-.078.77c-.02.131-.032.261-.06.394a6.175,6.175,0,0,1-4.7,4.68c-.12.024-.237.036-.355.054a6.2,6.2,0,0,1-.8.08A6.309,6.309,0,0,1,141.926,170.482Zm1.392,7.91v5.593H118.679v-5.593h24.638Zm-20.149-9.049-.078.054a6.176,6.176,0,0,1-.765.456c-.038.019-.075.04-.113.059a6.146,6.146,0,0,1-1.9.554c-.079.009-.16.01-.239.016a5.977,5.977,0,0,1-1.482-.063c-.118-.018-.236-.03-.355-.054a6.175,6.175,0,0,1-4.7-4.68c-.028-.133-.04-.263-.06-.394a5.751,5.751,0,0,1-.061-1.44c.007-.089.007-.18.018-.268a6.125,6.125,0,0,1,.188-.937c.018-.063.045-.122.065-.184a6.068,6.068,0,0,1,.272-.7c.045-.1.1-.19.145-.284a6.162,6.162,0,0,1,.324-.544c.06-.091.12-.182.185-.268a6.019,6.019,0,0,1,.457-.539c.051-.055.1-.115.151-.169a6.269,6.269,0,0,1,.686-.581c.086-.063.179-.117.268-.175.169-.111.342-.217.523-.312.111-.059.225-.112.339-.164.179-.08.363-.149.551-.213.113-.038.225-.08.342-.112a6.132,6.132,0,0,1,.845-.169l.149-.018a6.23,6.23,0,0,1,.934-.023c.091,0,.183.018.275.025a6.621,6.621,0,0,1,.821.124c.076.017.154.034.23.054a7.711,7.711,0,0,1,2.218.968,3.713,3.713,0,0,1,1.138,1.137,7.7,7.7,0,0,1,1,2.311.054.054,0,0,0,0,.013A6.186,6.186,0,0,1,123.169,169.343Z" transform="translate(-86.074 -117.863)" fill="#e37ab0"/><path d="M442.082,223.405a7.685,7.685,0,0,0-5.452-2.259h-2.412v15.413h2.412a7.706,7.706,0,0,0,5.452-13.154Z" transform="translate(-354.481 -177.953)" fill="#e37ab0"/><path d="M28.222,223.4a7.706,7.706,0,0,0,5.452,13.154h2.412V221.146H33.673A7.683,7.683,0,0,0,28.222,223.4Z" transform="translate(-25.965 -177.953)" fill="#e37ab0"/><path d="M233.8,9.14a2.038,2.038,0,0,1,1.063,2.016l-1.436,12.029-.174,1.424h0l0,.031h5.874l-1.609-13.483a2.05,2.05,0,0,1,1.047-2.016,4.813,4.813,0,0,0-2.355-9l.014-.11,0-.028L236.2.141h0L236.187,0l-.015.141a4.819,4.819,0,0,0-2.375,9Zm1.421-6.874A1.742,1.742,0,1,1,233.469,4,1.744,1.744,0,0,1,235.218,2.266Z" transform="translate(-191.256)" fill="#e37ab0"/><path d="M143.221,416.607h-56.5a5.978,5.978,0,0,0-5.981,5.981v12.65H149.2v-12.65A5.978,5.978,0,0,0,143.221,416.607Z" transform="translate(-70.044 -335.238)" fill="#e37ab0"/></g></g></svg>