<svg xmlns="http://www.w3.org/2000/svg" width="100" height="100" viewBox="0 0 100 100"><g transform="translate(-10282 -6194)"><rect width="100" height="100" transform="translate(10282 6194)" fill="none"/><g transform="translate(10282 6158.732)"><rect width="15.905" height="60.44" transform="translate(22.261 66.528)" fill="#e37ab0"/><path d="M352.313,207.139a6.573,6.573,0,1,0,10.513,0Z" transform="translate(-282.452 -131.06)" fill="#e37ab0"/><path d="M341.966,334.1v26.1h15.905V334.382a22.625,22.625,0,0,1-15.905-.286Z" transform="translate(-275.176 -233.221)" fill="#e37ab0"/><path d="M236.118,80.007a22.278,22.278,0,0,1,6.567-15.873,15.06,15.06,0,0,1,1.177-1.083V44.268H227.957v82.708h15.905v-30a15.113,15.113,0,0,1-1.177-1.081A22.287,22.287,0,0,1,236.118,80.007Z" transform="translate(-183.434 0)" fill="#e37ab0"/><rect width="15.905" height="31.811" transform="translate(0 95.15)" fill="#e37ab0"/><path d="M335.247,172.4l-8.582-8.36a17.677,17.677,0,1,0-5.27,5.27l8.356,8.58a3.581,3.581,0,0,0,5.634.213A3.65,3.65,0,0,0,335.247,172.4Zm-23.436-8.456a9.484,9.484,0,1,1,6.705-2.777A9.432,9.432,0,0,1,311.812,163.949Z" transform="translate(-236.688 -74.45)" fill="#e37ab0"/></g></g></svg>