<svg xmlns="http://www.w3.org/2000/svg" width="100" height="100" viewBox="0 0 100 100"><g transform="translate(-10054 -6247)"><rect width="100" height="100" transform="translate(10054 6247)" fill="none"/><g transform="translate(10054 6264)"><path d="M158.837,242.146V242.1l-12.986,11.187v8.181h0v.031h12.986v-11.71l.021-7.667Z" transform="translate(-117.365 -212.106)" fill="#e37ab0"/><path d="M225.828,242.211v.029l-.031-.029v19.347h0v.031h11.755V253.2l-7-6.542Z" transform="translate(-181.696 -212.192)" fill="#e37ab0"/><path d="M312.473,224.062v-.046l-13.027,14.331v8.6h13.027v-13.2l.023-9.708Z" transform="translate(-240.961 -197.55)" fill="#e37ab0"/><path d="M171.271,149.941A4.28,4.28,0,0,0,167,154.218a4.21,4.21,0,0,0,.627,2.219L158.942,166a4.212,4.212,0,0,0-1.982-.491,4.265,4.265,0,0,0-2.32.686l-8.3-7.765a4.271,4.271,0,1,0-7.977-2.126,4.091,4.091,0,0,0,.465,1.923l-8.129,6.995a4.274,4.274,0,1,0,1.82,3.505,4.138,4.138,0,0,0-.457-1.905l8.137-7a4.247,4.247,0,0,0,4.675.119l8.341,7.8a4.186,4.186,0,0,0-.525,2.041,4.268,4.268,0,1,0,7.816-2.371l8.637-9.493a4.147,4.147,0,0,0,2.125.576,4.272,4.272,0,1,0,0-8.545ZM128.253,171.3a2.578,2.578,0,1,1,2.574-2.574A2.585,2.585,0,0,1,128.253,171.3Zm14.379-12.414a2.583,2.583,0,0,1-.737-5.055l.212-.051a1.808,1.808,0,0,1,.211-.025,1.9,1.9,0,0,1,.314-.025,2.577,2.577,0,0,1,2.473,1.855,1.6,1.6,0,0,1,.093.457c.008.085.017.178.017.262A2.587,2.587,0,0,1,142.632,158.884Zm14.328,13.465a2.574,2.574,0,1,1,2.574-2.575A2.579,2.579,0,0,1,156.96,172.349Zm14.311-15.556a2.584,2.584,0,0,1-2.574-2.574,2.517,2.517,0,0,1,.313-1.228,1.5,1.5,0,0,1,.118-.195c0-.008,0-.017.008-.017a2.571,2.571,0,0,1,4.276,0c.009,0,.009.008.009.017a1.613,1.613,0,0,1,.118.195,2.528,2.528,0,0,1,.314,1.228A2.587,2.587,0,0,1,171.271,156.792Z" transform="translate(-99.763 -137.943)" fill="#e37ab0"/><path d="M91.756,143.166V95.427a6.915,6.915,0,0,0-6.915-6.915H15.16a6.915,6.915,0,0,0-6.915,6.915v47.739H0v.857a9.914,9.914,0,0,0,9.915,9.914H90.08a9.919,9.919,0,0,0,9.92-9.914v-.857ZM56.25,147.921v1.261a.828.828,0,0,1-.835.829H44.58a.827.827,0,0,1-.83-.829v-1.261a.832.832,0,0,1,.83-.835H55.415A.833.833,0,0,1,56.25,147.921Zm-41.09-4.755V95.427H84.84v47.739Z" transform="translate(0 -88.512)" fill="#e37ab0"/></g></g></svg>