<svg xmlns="http://www.w3.org/2000/svg" width="100" height="100" viewBox="0 0 100 100"><g transform="translate(-10106 -6372)"><rect width="100" height="100" transform="translate(10106 6372)" fill="none"/><g transform="translate(10106.488 6310.562)"><path d="M95.017,81.361A2.777,2.777,0,0,0,93.663,80a27.517,27.517,0,0,0-4.306-1.512,58.063,58.063,0,0,0-8.275-1.509,88.671,88.671,0,0,0-9.949-.544,83.689,83.689,0,0,0-12.928.948,51.907,51.907,0,0,0-5.3,1.106,30.71,30.71,0,0,0-3.149,1.026A30.479,30.479,0,0,0,46.6,78.491a57.938,57.938,0,0,0-8.272-1.509,88.767,88.767,0,0,0-9.952-.544,83.689,83.689,0,0,0-12.928.948,51.966,51.966,0,0,0-5.3,1.105A27.667,27.667,0,0,0,5.846,80a2.772,2.772,0,0,0-1.351,1.357C2.393,81.886,0,82.87,0,84.616v50.615a8.817,8.817,0,0,0,8.816,8.816H44.344v.458a1.727,1.727,0,0,0,1.725,1.731h7.374a1.727,1.727,0,0,0,1.725-1.731v-.458H90.7a8.817,8.817,0,0,0,8.816-8.816V84.616C99.512,82.87,97.119,81.886,95.017,81.361ZM46.992,134.035c-.131-.037-.255-.076-.389-.115a57.51,57.51,0,0,0-8.272-1.509,88.761,88.761,0,0,0-9.952-.544,84.077,84.077,0,0,0-12.928.947,52.006,52.006,0,0,0-5.3,1.105c-.134.039-.258.079-.389.115V84.388q.838-.292,1.828-.559a51.846,51.846,0,0,1,7.462-1.354,82.284,82.284,0,0,1,9.323-.507,78.739,78.739,0,0,1,12.062.878,45.928,45.928,0,0,1,4.722.984q.993.269,1.828.559Zm42.75,0c-.131-.037-.252-.076-.386-.115a57.634,57.634,0,0,0-8.275-1.509,88.666,88.666,0,0,0-9.949-.544,84.077,84.077,0,0,0-12.928.947,51.907,51.907,0,0,0-5.3,1.105c-.131.039-.255.079-.386.115V84.388q.834-.292,1.828-.559a51.647,51.647,0,0,1,7.459-1.354,82.337,82.337,0,0,1,9.326-.507,78.8,78.8,0,0,1,12.062.878,46.093,46.093,0,0,1,4.722.984c.659.179,1.269.364,1.825.559Z" transform="translate(0 0)" fill="#e37ab0"/></g></g></svg>