<svg xmlns="http://www.w3.org/2000/svg" width="375" height="731.569" viewBox="0 0 375 731.569"><g transform="translate(0 -81.648)"><rect width="375" height="731" transform="translate(0 82)" fill="#fff"/><g transform="translate(-753.104 -158.715)"><circle cx="25.375" cy="25.375" r="25.375" transform="translate(778.947 500.781) rotate(-21.8)" fill="none" stroke="#e37ab0" stroke-linecap="round" stroke-linejoin="round" stroke-width="1"/><path d="M95.253,316.41c8.846-10.385,16.371-16.262,19.268-14.348,4.411,2.9-3.5,22.673-17.668,44.158s-29.229,36.56-33.639,33.652c-2.908-1.9-.46-11.136,5.6-23.363" transform="translate(723.056 173.956)" fill="none" stroke="#e37ab0" stroke-linecap="round" stroke-linejoin="round" stroke-width="1"/><path d="M67.13,341.173c-12.336-3.551-20.213-7.695-19.716-11,.715-5.235,22.03-6.447,47.49-2.63s45.479,11.052,44.715,16.262c-.545,3.635-10.906,5.3-25.63,4.738" transform="translate(719.964 178.955)" fill="none" stroke="#e37ab0" stroke-linecap="round" stroke-linejoin="round" stroke-width="1"/><path d="M68.411,328.861c-9.307-16.8-13.96-29.9-10.809-31.943,4.144-2.678,20.164,14.7,35.784,38.777s24.915,45.842,20.782,48.532c-2.739,1.769-10.676-5.235-20.261-17.159" transform="translate(721.918 172.884)" fill="none" stroke="#e37ab0" stroke-linecap="round" stroke-linejoin="round" stroke-width="1"/><path d="M109.628,312.188a4.169,4.169,0,1,1,.594-3.142,4.169,4.169,0,0,1-.594,3.142Z" transform="translate(731.524 174.809)" fill="#e37ab0"/><path d="M98.238,364.878a4.169,4.169,0,1,1,.594-3.142,4.169,4.169,0,0,1-.594,3.142Z" transform="translate(729.112 185.969)" fill="#e37ab0"/><path d="M79.858,329.128a4.169,4.169,0,1,1-1.212-5.78A4.169,4.169,0,0,1,79.858,329.128Z" transform="translate(725.219 178.397)" fill="#e37ab0"/></g><g transform="matrix(0.891, 0.454, -0.454, 0.891, 268.033, 81.648)"><path d="M0,0H119.82V119.82H0Z" fill="none"/><ellipse cx="39.633" cy="15.154" rx="39.633" ry="15.154" transform="translate(20.205 14.91)" fill="none" stroke="#6f99e3" stroke-linecap="round" stroke-linejoin="round" stroke-width="1.5"/><path d="M4,6V35.955c0,8.272,17.882,14.977,39.94,14.977s39.94-6.706,39.94-14.977V6" transform="translate(15.97 23.955)" fill="none" stroke="#6f99e3" stroke-linecap="round" stroke-linejoin="round" stroke-width="1.5"/><path d="M4,12V41.955c0,8.272,17.882,14.977,39.94,14.977s39.94-6.706,39.94-14.977V12" transform="translate(15.97 47.91)" fill="none" stroke="#6f99e3" stroke-linecap="round" stroke-linejoin="round" stroke-width="1.5"/></g><g transform="matrix(0.883, -0.469, 0.469, 0.883, 0.499, 735.447)"><path d="M0,0H88.08V88.08H0Z" fill="none"/><path d="M3,3V69.06H69.06" transform="translate(8.01 8.01)" fill="none" stroke="#e37ab0" stroke-linecap="round" stroke-linejoin="round" stroke-width="1.5"/><ellipse cx="7.405" cy="7.052" rx="7.405" ry="7.052" transform="translate(25.388 26.02)" fill="none" stroke="#e37ab0" stroke-linecap="round" stroke-linejoin="round" stroke-width="1.5"/><circle cx="7.405" cy="7.405" r="7.405" transform="translate(62.06 18.262)" fill="none" stroke="#e37ab0" stroke-linecap="round" stroke-linejoin="round" stroke-width="1.5"/><circle cx="7.405" cy="7.405" r="7.405" transform="translate(43.724 47.882)" fill="none" stroke="#e37ab0" stroke-linecap="round" stroke-linejoin="round" stroke-width="1.5"/><line x2="8.588" y2="10.57" transform="translate(37.287 38.975)" fill="none" stroke="#e37ab0" stroke-linecap="round" stroke-linejoin="round" stroke-width="1.5"/><path d="M15.088,25.573,25.5,8.742" transform="translate(40.285 23.341)" fill="none" stroke="#e37ab0" stroke-linecap="round" stroke-linejoin="round" stroke-width="1.5"/></g><g transform="translate(301.548 298.5)"><path d="M0,0H51.452V51.452H0Z" fill="none"/><path d="M3,28.438,15.863,15.575l8.575,8.575L41.589,7" transform="translate(3.432 8.007)" fill="none" stroke="#6f99e3" stroke-linecap="round" stroke-linejoin="round" stroke-width="1.5"/><path d="M14,7H29.007V22.007" transform="translate(16.014 8.007)" fill="none" stroke="#6f99e3" stroke-linecap="round" stroke-linejoin="round" stroke-width="1.5"/></g><g transform="matrix(0.616, -0.788, 0.788, 0.616, -512.956, 1150.072)"><circle cx="19.556" cy="19.556" r="19.556" transform="translate(783.563 439.093) rotate(-80.68)" fill="none" stroke="#6f99e3" stroke-linecap="round" stroke-linejoin="round" stroke-width="1"/><circle cx="21.69" cy="21.69" r="21.69" transform="translate(806.965 413.72) rotate(-11.59)" fill="none" stroke="#6f99e3" stroke-linecap="round" stroke-linejoin="round" stroke-width="1"/><line x1="8.998" y2="3.209" transform="translate(814.844 414.882)" fill="none" stroke="#6f99e3" stroke-linecap="round" stroke-linejoin="round" stroke-width="1"/><line x1="12.942" y2="4.678" transform="translate(812.155 418.593)" fill="none" stroke="#6f99e3" stroke-linecap="round" stroke-linejoin="round" stroke-width="1"/><line x1="14.448" y2="5.557" transform="translate(811.133 423.074)" fill="none" stroke="#6f99e3" stroke-linecap="round" stroke-linejoin="round" stroke-width="1"/><line x1="13.175" y2="6.023" transform="translate(811.385 429.187)" fill="none" stroke="#6f99e3" stroke-linecap="round" stroke-linejoin="round" stroke-width="1"/><line x1="10.002" y2="4.159" transform="translate(812.227 433.883)" fill="none" stroke="#6f99e3" stroke-linecap="round" stroke-linejoin="round" stroke-width="1"/><path d="M84.573,220.273c-.556-1.793-6.9-2.9-7.17,1.793s6.686.789,8.658-1.793c0,0-3.585,4.822-2.079,5.772" transform="translate(730.898 172.884)" fill="none" stroke="#6f99e3" stroke-linecap="round" stroke-linejoin="round" stroke-width="1"/><path d="M103.489,222.85,97.86,234.555s2.814-5.862,5.826-5.378c3.711.663,1.237,6.74-3.244,4.5" transform="translate(747.117 176.151)" fill="none" stroke="#6f99e3" stroke-linecap="round" stroke-linejoin="round" stroke-width="1"/></g></g></svg>