<svg xmlns="http://www.w3.org/2000/svg" width="1366.576" height="683.352" viewBox="0 0 1366.576 683.352"><g transform="translate(0.452 -79.648)"><rect width="1366" height="683" transform="translate(0 80)" fill="#fff"/><g transform="matrix(0.891, 0.454, -0.454, 0.891, 1163.033, 79.648)"><path d="M0,0H227.934V227.934H0Z" fill="none"/><ellipse cx="75.393" cy="28.827" rx="75.393" ry="28.827" transform="translate(38.436 28.363)" fill="none" stroke="#6f99e3" stroke-linecap="round" stroke-linejoin="round" stroke-width="1.5"/><path d="M4,6V62.983C4,78.719,38.016,91.475,79.978,91.475s75.978-12.756,75.978-28.492V6" transform="translate(33.989 50.983)" fill="none" stroke="#6f99e3" stroke-linecap="round" stroke-linejoin="round" stroke-width="1.5"/><path d="M4,12V68.983C4,84.719,38.016,97.475,79.978,97.475s75.978-12.756,75.978-28.492V12" transform="translate(33.989 101.967)" fill="none" stroke="#6f99e3" stroke-linecap="round" stroke-linejoin="round" stroke-width="1.5"/></g><g transform="translate(-753.104 -362.715)"><circle cx="57.828" cy="57.828" r="57.828" transform="translate(793.771 540.749) rotate(-21.8)" fill="none" stroke="#e37ab0" stroke-linecap="round" stroke-linejoin="round" stroke-width="1"/><path d="M137.793,335.22c20.16-23.667,37.309-37.061,43.91-32.7,10.052,6.6-7.981,51.67-40.264,100.633s-66.61,83.318-76.662,76.69c-6.628-4.336-1.049-25.379,12.759-53.244" transform="translate(745.684 181.795)" fill="none" stroke="#e37ab0" stroke-linecap="round" stroke-linejoin="round" stroke-width="1"/><path d="M92.374,361.462c-28.113-8.091-46.064-17.536-44.932-25.075,1.629-11.93,50.206-14.692,108.228-5.993s103.643,25.186,101.9,37.061c-1.243,8.285-24.855,12.068-58.408,10.8" transform="translate(719.964 223.378)" fill="none" stroke="#e37ab0" stroke-linecap="round" stroke-linejoin="round" stroke-width="1"/><path d="M83.491,370.062c-21.209-38.276-31.814-68.129-24.634-72.8,9.445-6.1,45.953,33.5,81.551,88.372s56.779,104.472,47.362,110.6c-6.241,4.032-24.33-11.93-46.174-39.1" transform="translate(736.221 172.884)" fill="none" stroke="#e37ab0" stroke-linecap="round" stroke-linejoin="round" stroke-width="1"/><path d="M119.418,320.445a9.5,9.5,0,1,1,1.354-7.16,9.5,9.5,0,0,1-1.354,7.16Z" transform="translate(816.116 188.893)" fill="#e37ab0"/><path d="M108.028,373.135a9.5,9.5,0,1,1,1.354-7.16,9.5,9.5,0,0,1-1.354,7.16Z" transform="translate(796.051 281.713)" fill="#e37ab0"/><path d="M89.648,337.385a9.5,9.5,0,1,1-2.762-13.173,9.5,9.5,0,0,1,2.762,13.173Z" transform="translate(763.672 218.735)" fill="#e37ab0"/></g><g transform="matrix(0.998, 0.07, -0.07, 0.998, -236.863, -271.444)"><circle cx="28.975" cy="28.975" r="28.975" transform="translate(783.563 461.96) rotate(-80.68)" fill="none" stroke="#6f99e3" stroke-linecap="round" stroke-linejoin="round" stroke-width="1"/><circle cx="32.135" cy="32.135" r="32.135" transform="translate(818.236 424.367) rotate(-11.59)" fill="none" stroke="#6f99e3" stroke-linecap="round" stroke-linejoin="round" stroke-width="1"/><line x1="13.332" y2="4.754" transform="translate(829.91 426.089)" fill="none" stroke="#6f99e3" stroke-linecap="round" stroke-linejoin="round" stroke-width="1"/><line x1="19.175" y2="6.932" transform="translate(825.926 431.587)" fill="none" stroke="#6f99e3" stroke-linecap="round" stroke-linejoin="round" stroke-width="1"/><line x1="21.406" y2="8.233" transform="translate(824.411 438.226)" fill="none" stroke="#6f99e3" stroke-linecap="round" stroke-linejoin="round" stroke-width="1"/><line x1="19.52" y2="8.924" transform="translate(824.785 447.282)" fill="none" stroke="#6f99e3" stroke-linecap="round" stroke-linejoin="round" stroke-width="1"/><line x1="14.819" y2="6.161" transform="translate(826.032 454.241)" fill="none" stroke="#6f99e3" stroke-linecap="round" stroke-linejoin="round" stroke-width="1"/><path d="M88.03,221.016c-.823-2.656-10.225-4.3-10.623,2.656s9.906,1.169,12.828-2.656c0,0-5.312,7.144-3.081,8.552" transform="translate(742.809 172.884)" fill="none" stroke="#6f99e3" stroke-linecap="round" stroke-linejoin="round" stroke-width="1"/><path d="M106.2,222.85,97.86,240.192s4.17-8.684,8.631-7.967c5.5.983,1.833,9.986-4.807,6.666" transform="translate(776.694 179.708)" fill="none" stroke="#6f99e3" stroke-linecap="round" stroke-linejoin="round" stroke-width="1"/></g><g transform="matrix(0.883, -0.469, 0.469, 0.883, 657.992, 651.731)"><path d="M0,0H124.9V124.9H0Z" fill="none"/><path d="M3,3V96.672H96.672" transform="translate(12.612 12.612)" fill="none" stroke="#e37ab0" stroke-linecap="round" stroke-linejoin="round" stroke-width="1.5"/><ellipse cx="10.5" cy="10" rx="10.5" ry="10" transform="translate(36 36.896)" fill="none" stroke="#e37ab0" stroke-linecap="round" stroke-linejoin="round" stroke-width="1.5"/><circle cx="10.5" cy="10.5" r="10.5" transform="translate(88 25.896)" fill="none" stroke="#e37ab0" stroke-linecap="round" stroke-linejoin="round" stroke-width="1.5"/><circle cx="10.5" cy="10.5" r="10.5" transform="translate(62 67.896)" fill="none" stroke="#e37ab0" stroke-linecap="round" stroke-linejoin="round" stroke-width="1.5"/><line x2="12.177" y2="14.987" transform="translate(52.873 55.266)" fill="none" stroke="#e37ab0" stroke-linecap="round" stroke-linejoin="round" stroke-width="1.5"/><path d="M15.088,32.607,29.852,8.742" transform="translate(63.43 36.751)" fill="none" stroke="#e37ab0" stroke-linecap="round" stroke-linejoin="round" stroke-width="1.5"/></g><g transform="translate(-0.452 573)"><path d="M0,0H189.952V189.952H0Z" fill="none"/><path d="M3,86.147,50.488,38.659,82.147,70.317,145.464,7" transform="translate(20.744 48.403)" fill="none" stroke="#6f99e3" stroke-linecap="round" stroke-linejoin="round" stroke-width="1.5"/><path d="M14,7H69.4V62.4" transform="translate(96.805 48.403)" fill="none" stroke="#6f99e3" stroke-linecap="round" stroke-linejoin="round" stroke-width="1.5"/></g></g></svg>