<svg xmlns="http://www.w3.org/2000/svg" width="141" height="38" viewBox="0 0 141 38"><g transform="translate(-16 -19)"><text transform="translate(57 52)" fill="#e37ab0" font-size="38" font-family="TsukuARdGothic-Bold, Tsukushi A Round Gothic" font-weight="700"><tspan x="0" y="0">Learn</tspan></text><g transform="translate(-172 -2)"><g transform="translate(188 24)" fill="#e37ab0" stroke="#e37ab0" stroke-width="1"><rect width="35" height="35" rx="5" stroke="none"/><rect x="0.5" y="0.5" width="34" height="34" rx="4.5" fill="none"/></g><path d="M9769.221-1460.906c-.934,1-7.463,15.4-2.776,17.487s19.636,1.37,20.227.3,1.041-2.924-.29-3.021-11.637,2.5-14.308,1.789c-1.381-.37-4.777-2.735-.51-6.657,3.723-3.423,15.1-8.4,14.817-9.235-.582-1.727-7.6-4.1-11.146-3.361S9770.154-1461.9,9769.221-1460.906Z" transform="translate(-9571.193 1494.91)" fill="#fff"/></g></g></svg>