<svg xmlns="http://www.w3.org/2000/svg" width="500" height="349" viewBox="0 0 500 349"><g transform="translate(-188 -2448.365)"><path d="M11089.135,871.233s242.272-53.905,283.051,54.929,238.78,150.129,27.172,206.217-336.1,99.746-347.293,57.793-70.255-87.75-53.738-175.222S11089.135,871.233,11089.135,871.233Z" transform="translate(-10807.432 1590.482)" fill="#eaf1ff"/><g transform="translate(214 2471)"><rect width="405.441" height="0.2" transform="translate(0 264.046)" fill="#ebebeb"/><rect width="26.558" height="0.2" transform="translate(338.709 276.949)" fill="#ebebeb"/><rect width="6.968" height="0.2" transform="translate(261.585 279.13)" fill="#ebebeb"/><rect width="15.388" height="0.2" transform="translate(321.73 269.507)" fill="#ebebeb"/><rect width="34.633" height="0.2" transform="translate(42.067 270.854)" fill="#ebebeb"/><rect width="5.076" height="0.2" transform="translate(84.798 270.854)" fill="#ebebeb"/><rect width="75.12" height="0.2" transform="translate(106.88 274.238)" fill="#ebebeb"/><path d="M197.616,281.772H42.781a4.579,4.579,0,0,1-4.571-4.579V59.539A4.579,4.579,0,0,1,42.781,55H197.616a4.579,4.579,0,0,1,4.579,4.579V277.193A4.579,4.579,0,0,1,197.616,281.772ZM42.781,55.16a4.378,4.378,0,0,0-4.37,4.378V277.193a4.378,4.378,0,0,0,4.37,4.378H197.616a4.386,4.386,0,0,0,4.378-4.378V59.539a4.386,4.386,0,0,0-4.378-4.378Z" transform="translate(-7.57 -55)" fill="#ebebeb"/><path d="M413.922,281.772H259.079a4.587,4.587,0,0,1-4.579-4.579V59.539A4.587,4.587,0,0,1,259.079,55H413.922a4.579,4.579,0,0,1,4.563,4.539V277.193A4.579,4.579,0,0,1,413.922,281.772ZM259.079,55.16a4.386,4.386,0,0,0-4.378,4.378V277.193a4.386,4.386,0,0,0,4.378,4.378H413.922a4.386,4.386,0,0,0,4.378-4.378V59.539a4.386,4.386,0,0,0-4.378-4.378Z" transform="translate(-45.92 -55)" fill="#ebebeb"/><path d="M187.073,118.171a9.085,9.085,0,0,0-11.7-8.708,18.733,18.733,0,0,0,.209-2.791,19.245,19.245,0,0,0-22.789-18.908,16.839,16.839,0,0,0-31.193,8.5h-.281a15.508,15.508,0,0,0,0,30.993h56.934A9.077,9.077,0,0,0,187.073,118.171Z" transform="translate(-19.885 -59.898)" fill="#f0f0f0"/><path d="M275.1,173.648a4.515,4.515,0,0,0-4.515-4.515,4.667,4.667,0,0,0-1.3.192,8.815,8.815,0,0,0,.1-1.387,9.558,9.558,0,0,0-9.526-9.558,9.2,9.2,0,0,0-1.764.168,8.356,8.356,0,0,0-15.492,4.218h-.136a7.706,7.706,0,0,0,0,15.4h28.274A4.507,4.507,0,0,0,275.1,173.648Z" transform="translate(-44.209 -74.246)" fill="#f0f0f0"/><path d="M403.436,120.657a2.767,2.767,0,0,0-2.767-2.766,2.928,2.928,0,0,0-.8.12,5.976,5.976,0,0,0,.064-.85,5.854,5.854,0,0,0-5.854-5.854,6.038,6.038,0,0,0-1.083.1,5.116,5.116,0,0,0-9.486,2.59h-.088a4.723,4.723,0,0,0,0,9.438h17.321a2.775,2.775,0,0,0,2.694-2.775Z" transform="translate(-71.433 -65.439)" fill="#f0f0f0"/><text transform="translate(109.704 46.484)" fill="#ebebeb" font-size="5" font-family="Helvetica"><tspan x="0" y="0">101010000111110101010101</tspan></text><text transform="translate(115.794 46.484)" fill="#ebebeb" font-size="5" font-family="Helvetica"><tspan x="0" y="0">001101100110001101011111</tspan></text><text transform="translate(121.889 46.484)" fill="#ebebeb" font-size="5" font-family="Helvetica"><tspan x="0" y="0">111110101010101011110000</tspan></text><text transform="translate(127.988 46.484)" fill="#ebebeb" font-size="5" font-family="Helvetica"><tspan x="0" y="0">101010000111110101010101</tspan></text><text transform="translate(134.083 46.484)" fill="#ebebeb" font-size="5" font-family="Helvetica"><tspan x="0" y="0">000101011111000000110101</tspan></text><text transform="translate(140.178 46.484)" fill="#ebebeb" font-size="5" font-family="Helvetica"><tspan x="0" y="0">110011001101010101001100</tspan></text><rect width="181.634" height="115.535" transform="translate(36.486 148.776)" fill="#f5f5f5"/><rect width="181.634" height="7.826" transform="translate(36.486 148.089)" fill="#e0e0e0"/><path d="M267.475,242.948a2.358,2.358,0,1,1-2.358-2.358A2.358,2.358,0,0,1,267.475,242.948Z" transform="translate(-49.664 -90.946)" fill="#fafafa"/><path d="M257.705,242.948a2.358,2.358,0,1,1-2.358-2.358,2.358,2.358,0,0,1,2.358,2.358Z" transform="translate(-47.818 -90.946)" fill="#fafafa"/><path d="M247.925,242.948a2.358,2.358,0,1,1-2.358-2.358A2.358,2.358,0,0,1,247.925,242.948Z" transform="translate(-45.969 -90.946)" fill="#fafafa"/><path d="M81.132,264.73l-1.115-1.556a2.173,2.173,0,0,0-1.74-.914H70.395a1.892,1.892,0,0,0-1.6.914l-.938,1.556a1.892,1.892,0,0,1-1.6.914H61.518a1.909,1.909,0,0,0-1.949,2.021l1.524,26.31a2.189,2.189,0,0,0,2.149,2.053h37.263a1.909,1.909,0,0,0,1.908-2.053l-1.524-26.31a2.181,2.181,0,0,0-2.141-2.045H82.872A2.173,2.173,0,0,1,81.132,264.73Z" transform="translate(-11.801 -95.034)" fill="#e0e0e0"/><path d="M103.432,269.6H69.3a2.863,2.863,0,0,0-2.807,2.558l-2.053,22.789a2.309,2.309,0,0,0,2.341,2.558h34.144a2.871,2.871,0,0,0,2.807-2.558l2.053-22.789a2.309,2.309,0,0,0-2.35-2.558Z" transform="translate(-12.763 -96.476)" fill="#e6e6e6"/><path d="M152.045,264.73l-1.083-1.556a2.173,2.173,0,0,0-1.74-.914H141.34a1.9,1.9,0,0,0-1.6.914l-.938,1.556a1.892,1.892,0,0,1-1.6.914h-4.7a1.908,1.908,0,0,0-1.916,2.045L132.1,294a2.189,2.189,0,0,0,2.021,2.053h37.263A1.9,1.9,0,0,0,173.295,294l-1.483-26.334a2.2,2.2,0,0,0-2.149-2.045H153.793A2.173,2.173,0,0,1,152.045,264.73Z" transform="translate(-24.554 -95.033)" fill="#e0e0e0"/><path d="M174.354,269.6H140.186a2.863,2.863,0,0,0-2.807,2.558l-2.053,22.789a2.309,2.309,0,0,0,2.349,2.558h34.136a2.871,2.871,0,0,0,2.807-2.558l2.053-22.789a2.309,2.309,0,0,0-2.317-2.558Z" transform="translate(-25.45 -96.476)" fill="#e6e6e6"/><path d="M222.937,264.73l-1.123-1.556a2.157,2.157,0,0,0-1.74-.914h-7.882a1.9,1.9,0,0,0-1.6.914l-.938,1.556a1.892,1.892,0,0,1-1.6.914h-4.7a1.892,1.892,0,0,0-1.908,2.045L202.954,294a2.205,2.205,0,0,0,2.149,2.053h37.2A1.908,1.908,0,0,0,244.219,294L242.7,267.665a2.181,2.181,0,0,0-2.149-2.045H224.677a2.157,2.157,0,0,1-1.74-.89Z" transform="translate(-37.878 -95.033)" fill="#e0e0e0"/><path d="M245.212,269.6H211.076a2.871,2.871,0,0,0-2.807,2.558l-2.053,22.789a2.309,2.309,0,0,0,2.35,2.558H242.7a2.871,2.871,0,0,0,2.807-2.558l2.053-22.789a2.309,2.309,0,0,0-2.35-2.558Z" transform="translate(-38.783 -96.476)" fill="#e6e6e6"/><path d="M81.139,324.77l-1.115-1.556a2.173,2.173,0,0,0-1.74-.914H70.4a1.892,1.892,0,0,0-1.6.914l-.938,1.556a1.892,1.892,0,0,1-1.6.914H61.525a1.909,1.909,0,0,0-1.917,2.045l1.524,26.31a2.181,2.181,0,0,0,2.149,2.045h37.263a1.9,1.9,0,0,0,1.908-2.045l-1.524-26.31a2.181,2.181,0,0,0-2.141-2.045H82.879A2.173,2.173,0,0,1,81.139,324.77Z" transform="translate(-11.809 -106.447)" fill="#e0e0e0"/><path d="M103.432,329.64H69.3a2.863,2.863,0,0,0-2.807,2.558l-2.053,22.789a2.3,2.3,0,0,0,2.341,2.55h34.144a2.863,2.863,0,0,0,2.807-2.55l2.053-22.789a2.309,2.309,0,0,0-2.35-2.558Z" transform="translate(-12.763 -107.901)" fill="#e6e6e6"/><path d="M152.045,324.77l-1.083-1.556a2.173,2.173,0,0,0-1.74-.914H141.34a1.9,1.9,0,0,0-1.6.914l-.938,1.556a1.892,1.892,0,0,1-1.6.914h-4.7a1.909,1.909,0,0,0-1.916,2.045l1.524,26.31a2.181,2.181,0,0,0,2.149,2.045h37.263a1.892,1.892,0,0,0,1.908-2.045l-1.612-26.31a2.2,2.2,0,0,0-2.149-2.045H153.793A2.173,2.173,0,0,1,152.045,324.77Z" transform="translate(-24.553 -106.447)" fill="#e0e0e0"/><path d="M174.354,329.64H140.186a2.863,2.863,0,0,0-2.807,2.558l-2.053,22.789a2.3,2.3,0,0,0,2.35,2.55h34.136a2.863,2.863,0,0,0,2.807-2.55l2.053-22.789a2.309,2.309,0,0,0-2.317-2.558Z" transform="translate(-25.45 -107.901)" fill="#e6e6e6"/><path d="M222.937,324.77l-1.123-1.556a2.157,2.157,0,0,0-1.74-.914h-7.882a1.9,1.9,0,0,0-1.6.914l-.938,1.556a1.892,1.892,0,0,1-1.6.914h-4.7a1.892,1.892,0,0,0-1.908,2.045l1.516,26.31a2.2,2.2,0,0,0,2.149,2.045h37.2a1.908,1.908,0,0,0,1.917-2.045l-1.524-26.31a2.181,2.181,0,0,0-2.149-2.045H224.677A2.157,2.157,0,0,1,222.937,324.77Z" transform="translate(-37.878 -106.447)" fill="#e0e0e0"/><path d="M245.212,329.64H211.076a2.871,2.871,0,0,0-2.807,2.558l-2.053,22.789a2.3,2.3,0,0,0,2.35,2.55H242.7a2.863,2.863,0,0,0,2.807-2.55l2.053-22.789a2.309,2.309,0,0,0-2.35-2.558Z" transform="translate(-38.783 -107.901)" fill="#e6e6e6"/><rect width="62.811" height="18.443" rx="2.67" transform="translate(304.693 245.411)" fill="#e6e6e6"/><path d="M443.086,369.7a3.873,3.873,0,1,1-3.873-3.873A3.873,3.873,0,0,1,443.086,369.7Z" transform="translate(-81.748 -115.071)" fill="#f5f5f5"/><path d="M441.615,370.173a1.973,1.973,0,1,1-1.973-1.973,1.973,1.973,0,0,1,1.973,1.973Z" transform="translate(-82.21 -115.54)" fill="#e6e6e6"/><rect width="4.41" height="4.41" transform="translate(344.715 252.427)" fill="#f5f5f5"/><rect width="62.811" height="18.443" rx="2.67" transform="translate(304.693 226.165)" fill="#e6e6e6"/><path d="M443.086,345.7a3.873,3.873,0,1,1-3.873-3.873A3.873,3.873,0,0,1,443.086,345.7Z" transform="translate(-81.748 -110.316)" fill="#f5f5f5"/><path d="M441.615,346.173a1.973,1.973,0,1,1-1.973-1.973A1.973,1.973,0,0,1,441.615,346.173Z" transform="translate(-82.21 -110.786)" fill="#e6e6e6"/><rect width="4.41" height="4.41" transform="translate(344.715 233.182)" fill="#f5f5f5"/><rect width="62.811" height="18.443" rx="2.67" transform="translate(304.693 206.606)" fill="#e6e6e6"/><path d="M443.086,321.7a3.873,3.873,0,1,1-3.873-3.873A3.873,3.873,0,0,1,443.086,321.7Z" transform="translate(-81.748 -105.893)" fill="#f5f5f5"/><path d="M441.615,322.173a1.973,1.973,0,1,1-1.973-1.973A1.973,1.973,0,0,1,441.615,322.173Z" transform="translate(-82.21 -106.368)" fill="#e6e6e6"/><rect width="4.41" height="4.41" transform="translate(344.715 213.6)" fill="#f5f5f5"/><rect width="62.811" height="18.443" rx="2.67" transform="translate(304.693 187.249)" fill="#e6e6e6"/><path d="M443.086,297.7a3.873,3.873,0,1,1-3.873-3.873,3.873,3.873,0,0,1,3.873,3.873Z" transform="translate(-81.748 -101.246)" fill="#f5f5f5"/><path d="M441.615,298.173a1.973,1.973,0,1,1-1.973-1.973A1.973,1.973,0,0,1,441.615,298.173Z" transform="translate(-82.21 -101.72)" fill="#e6e6e6"/><rect width="4.41" height="4.41" transform="translate(344.715 194.248)" fill="#f5f5f5"/><rect width="62.811" height="18.443" rx="2.67" transform="translate(304.693 167.892)" fill="#e6e6e6"/><path d="M443.086,273.7a3.873,3.873,0,1,1-3.873-3.873A3.873,3.873,0,0,1,443.086,273.7Z" transform="translate(-81.748 -96.598)" fill="#f5f5f5"/><path d="M441.615,274.173a1.973,1.973,0,1,1-1.973-1.973A1.973,1.973,0,0,1,441.615,274.173Z" transform="translate(-82.21 -97.071)" fill="#e6e6e6"/><rect width="4.41" height="4.41" transform="translate(344.715 174.897)" fill="#f5f5f5"/><rect width="62.811" height="18.443" rx="2.67" transform="translate(304.693 148.534)" fill="#e6e6e6"/><path d="M443.086,249.7a3.873,3.873,0,1,1-3.873-3.873,3.873,3.873,0,0,1,3.873,3.873Z" transform="translate(-81.748 -91.951)" fill="#f5f5f5"/><path d="M441.615,250.173a1.973,1.973,0,1,1-1.973-1.973A1.973,1.973,0,0,1,441.615,250.173Z" transform="translate(-82.21 -92.422)" fill="#e6e6e6"/><rect width="4.41" height="4.41" transform="translate(344.715 155.545)" fill="#f5f5f5"/><g transform="translate(293.152 257.591)"><path d="M382.549,376.812l-1.123-1.556a2.149,2.149,0,0,0-1.74-.906h-7.874a1.9,1.9,0,0,0-1.644.906l-.938,1.556a1.885,1.885,0,0,1-1.6.914h-4.7a1.9,1.9,0,0,0-1.908,2.045l1.524,26.31a2.189,2.189,0,0,0,2.141,2.053H401.9a1.908,1.908,0,0,0,1.916-2.053l-1.523-26.31a2.181,2.181,0,0,0-2.149-2.045H384.257A2.157,2.157,0,0,1,382.549,376.812Z" transform="translate(-361.013 -374.35)" fill="#6f99e3"/><path d="M382.549,376.812l-1.123-1.556a2.149,2.149,0,0,0-1.74-.906h-7.874a1.9,1.9,0,0,0-1.644.906l-.938,1.556a1.885,1.885,0,0,1-1.6.914h-4.7a1.9,1.9,0,0,0-1.908,2.045l1.524,26.31a2.189,2.189,0,0,0,2.141,2.053H401.9a1.908,1.908,0,0,0,1.916-2.053l-1.523-26.31a2.181,2.181,0,0,0-2.149-2.045H384.257A2.157,2.157,0,0,1,382.549,376.812Z" transform="translate(-361.013 -374.35)" fill="#fff" opacity="0.5"/><path d="M404.832,381.69H370.7a2.863,2.863,0,0,0-2.807,2.55l-2.053,22.789a2.309,2.309,0,0,0,2.35,2.558h34.136a2.863,2.863,0,0,0,2.807-2.558l2.053-22.789a2.3,2.3,0,0,0-2.349-2.55Z" transform="translate(-361.966 -375.804)" fill="#6f99e3"/><path d="M404.832,381.69H370.7a2.863,2.863,0,0,0-2.807,2.55l-2.053,22.789a2.309,2.309,0,0,0,2.35,2.558h34.136a2.863,2.863,0,0,0,2.807-2.558l2.053-22.789a2.3,2.3,0,0,0-2.349-2.55Z" transform="translate(-361.966 -375.804)" fill="#fff" opacity="0.7"/></g><g transform="translate(185.769 244.28)"><rect width="48.722" height="34.024" transform="translate(1.459 7.153)" fill="#263238"/><rect width="38.811" height="11.395" rx="1.65" transform="translate(13.223 35.692)" fill="#6f99e3"/><rect width="38.811" height="11.395" rx="1.65" transform="translate(13.223 35.692)" opacity="0.2" style="isolation:isolate"/><rect width="38.811" height="11.395" rx="1.65" transform="translate(0 35.692)" fill="#6f99e3"/><path d="M270.741,408.776a2.406,2.406,0,1,1-2.406-2.406A2.406,2.406,0,0,1,270.741,408.776Z" transform="translate(-235.755 -367.383)" fill="#f5f5f5" opacity="0.3"/><circle cx="1.219" cy="1.219" r="1.219" transform="translate(31.378 40.174)" fill="#6f99e3"/><rect width="2.726" height="2.726" transform="translate(24.738 40.03)" fill="#f5f5f5" opacity="0.3"/><rect width="38.811" height="11.395" rx="1.65" transform="translate(13.223 23.8)" fill="#6f99e3"/><rect width="38.811" height="11.395" rx="1.65" transform="translate(13.223 23.8)" opacity="0.2" style="isolation:isolate"/><rect width="38.811" height="11.395" rx="1.65" transform="translate(0 23.8)" fill="#6f99e3"/><path d="M270.741,393.936a2.406,2.406,0,1,1-2.406-2.406A2.406,2.406,0,0,1,270.741,393.936Z" transform="translate(-235.755 -364.442)" fill="#f5f5f5" opacity="0.3"/><path d="M269.858,394.227A1.219,1.219,0,1,1,268.687,393,1.219,1.219,0,0,1,269.858,394.227Z" transform="translate(-236.05 -364.733)" fill="#6f99e3"/><rect width="2.726" height="2.726" transform="translate(24.738 28.13)" fill="#f5f5f5" opacity="0.3"/><rect width="38.811" height="11.395" rx="1.65" transform="translate(13.223 11.9)" fill="#6f99e3"/><rect width="38.811" height="11.395" rx="1.65" transform="translate(13.223 11.9)" opacity="0.2" style="isolation:isolate"/><rect width="38.811" height="11.395" rx="1.65" transform="translate(0 11.9)" fill="#6f99e3"/><path d="M270.741,379.1a2.406,2.406,0,1,1-2.406-2.406A2.406,2.406,0,0,1,270.741,379.1Z" transform="translate(-235.755 -361.502)" fill="#f5f5f5" opacity="0.3"/><path d="M269.858,379.389a1.219,1.219,0,1,1-1.211-1.219,1.219,1.219,0,0,1,1.211,1.219Z" transform="translate(-236.05 -361.796)" fill="#6f99e3"/><rect width="2.726" height="2.726" transform="translate(24.738 16.23)" fill="#f5f5f5" opacity="0.3"/><rect width="38.811" height="11.395" rx="1.65" transform="translate(13.223)" fill="#6f99e3"/><rect width="38.811" height="11.395" rx="1.65" transform="translate(13.223)" opacity="0.2" style="isolation:isolate"/><rect width="38.811" height="11.395" rx="1.65" fill="#6f99e3"/><path d="M270.741,364.256a2.406,2.406,0,1,1-2.406-2.406A2.406,2.406,0,0,1,270.741,364.256Z" transform="translate(-235.755 -358.562)" fill="#f5f5f5" opacity="0.3"/><path d="M269.858,364.549a1.219,1.219,0,1,1-1.211-1.219,1.219,1.219,0,0,1,1.211,1.219Z" transform="translate(-236.05 -358.855)" fill="#6f99e3"/><rect width="2.726" height="2.726" transform="translate(24.738 4.33)" fill="#f5f5f5" opacity="0.3"/><rect width="48.722" height="15.853" transform="translate(45.098 25.315)" fill="#263238"/><rect width="38.811" height="11.395" rx="1.65" transform="translate(56.853 35.692)" fill="#6f99e3"/><rect width="38.811" height="11.395" rx="1.65" transform="translate(56.853 35.692)" opacity="0.2" style="isolation:isolate"/><rect width="38.811" height="11.395" rx="1.65" transform="translate(43.638 35.692)" fill="#6f99e3"/><path d="M325.151,408.776a2.406,2.406,0,1,1-2.406-2.406A2.406,2.406,0,0,1,325.151,408.776Z" transform="translate(-246.535 -367.383)" fill="#f5f5f5" opacity="0.3"/><path d="M324.278,409.069a1.219,1.219,0,1,1-1.219-1.219,1.219,1.219,0,0,1,1.219,1.219Z" transform="translate(-246.832 -367.676)" fill="#6f99e3"/><rect width="2.726" height="2.726" transform="translate(68.368 40.03)" fill="#f5f5f5" opacity="0.3"/><rect width="38.811" height="11.395" rx="1.65" transform="translate(56.853 23.8)" fill="#6f99e3"/><rect width="38.811" height="11.395" rx="1.65" transform="translate(56.853 23.8)" opacity="0.2" style="isolation:isolate"/><rect width="38.811" height="11.395" rx="1.65" transform="translate(43.638 23.8)" fill="#6f99e3"/><path d="M325.151,393.936a2.406,2.406,0,1,1-2.406-2.406A2.406,2.406,0,0,1,325.151,393.936Z" transform="translate(-246.535 -364.442)" fill="#f5f5f5" opacity="0.3"/><path d="M324.278,394.229a1.219,1.219,0,1,1-1.219-1.219A1.219,1.219,0,0,1,324.278,394.229Z" transform="translate(-246.832 -364.736)" fill="#6f99e3"/><rect width="2.726" height="2.726" transform="translate(68.368 28.13)" fill="#f5f5f5" opacity="0.3"/></g><g transform="translate(140.77 87.127)"><path d="M195.083,190.809a3.7,3.7,0,1,1,3.7-3.7,3.7,3.7,0,0,1-3.7,3.7Z" transform="translate(-176.952 -167.042)" fill="#6f99e3"/><path d="M193.212,203.094h-.088a19.927,19.927,0,0,1-9.871-2.783l2.013-3.544a15.765,15.765,0,0,0,7.858,2.213Zm9.863-2.967-2.021-3.448A15.813,15.813,0,0,0,206.8,190.9l3.472,2A19.8,19.8,0,0,1,203.076,200.127Zm-27.031-7.217a19.686,19.686,0,0,1-2.654-9.863H177.4a15.589,15.589,0,0,0,2.117,7.858Zm32.877-9.935a15.677,15.677,0,0,0-2.133-7.85l3.464-2.021a19.766,19.766,0,0,1,2.678,9.863Zm-29.429-7.754-3.464-2A19.855,19.855,0,0,1,183.245,166l2.013,3.464a15.958,15.958,0,0,0-5.766,5.758Zm21.474-5.806a15.893,15.893,0,0,0-7.826-2.245l-.016-4.17h0a19.9,19.9,0,0,1,9.831,2.783Z" transform="translate(-173.39 -163)" fill="#6f99e3"/><g transform="translate(0 0)" opacity="0.6" style="isolation:isolate"><path d="M193.212,203.094h-.088a19.927,19.927,0,0,1-9.871-2.783l2.013-3.544a15.765,15.765,0,0,0,7.858,2.213Zm9.863-2.967-2.021-3.448A15.813,15.813,0,0,0,206.8,190.9l3.472,2A19.8,19.8,0,0,1,203.076,200.127Zm-27.031-7.217a19.686,19.686,0,0,1-2.654-9.863H177.4a15.589,15.589,0,0,0,2.117,7.858Zm32.877-9.935a15.677,15.677,0,0,0-2.133-7.85l3.464-2.021a19.766,19.766,0,0,1,2.678,9.863Zm-29.429-7.754-3.464-2A19.855,19.855,0,0,1,183.245,166l2.013,3.464a15.958,15.958,0,0,0-5.766,5.758Zm21.474-5.806a15.893,15.893,0,0,0-7.826-2.245l-.016-4.17h0a19.9,19.9,0,0,1,9.831,2.783Z" transform="translate(-173.39 -163)" fill="#fff"/></g></g><g transform="translate(159.121 10.224)"><path d="M201.778,191.739a4.94,4.94,0,1,1,4.932-4.94,4.94,4.94,0,0,1-4.932,4.94Z" transform="translate(-193.616 -90.357)" fill="#6f99e3"/><path d="M201.778,191.739a4.94,4.94,0,1,1,4.932-4.94,4.94,4.94,0,0,1-4.932,4.94Z" transform="translate(-193.616 -90.357)" fill="#fff" opacity="0.5"/><circle cx="8.123" cy="8.123" r="8.123" transform="translate(0 102.476) rotate(-76.72)" fill="none" stroke="#6f99e3" stroke-miterlimit="10" stroke-width="3"/><rect width="134" height="1" transform="translate(17.38 95.776)" fill="#6f99e3"/><path d="M205.6,164.339H204v-9.623a.8.8,0,0,1,.233-.569l49.051-48.915a.8.8,0,0,1,.569-.233h44.769v1.6h-44.44L205.6,155.045Z" transform="translate(-195.036 -75.13)" fill="#6f99e3"/><path d="M321.876,263.754H261.735a.8.8,0,0,1-.569-.233l-56.934-56.934a.8.8,0,0,1-.233-.569V198h1.6v7.69l56.46,56.46h59.812Z" transform="translate(-195.036 -93.555)" fill="#6f99e3"/><path d="M287.554,210.346H255.342a.8.8,0,0,1-.561-.233L233.13,188.6l1.131-1.139,21.418,21.282h31.875Z" transform="translate(-200.807 -91.467)" fill="#6f99e3"/><path d="M272.929,183.086l-1.139-1.131,21.579-21.723a.842.842,0,0,1,.569-.233h32.548v1.6H294.275Z" transform="translate(-208.467 -86.026)" fill="#6f99e3"/><path d="M391.246,134.471H263.931a.8.8,0,0,1-.569-.241l-12.782-12.91,1.139-1.131,12.549,12.678H391.246Z" transform="translate(-204.264 -78.139)" fill="#6f99e3"/><path d="M284.1,101.22l-1.1-1.139,20.849-20.849a.8.8,0,0,1,.569-.233h66.789v1.6H304.715Z" transform="translate(-210.688 -69.979)" fill="#6f99e3"/><path d="M292.58,316.122l-32.348-32.34a.8.8,0,0,1-.233-.537V264h1.6v18.916l32.075,32.075Z" transform="translate(-206.131 -106.631)" fill="#6f99e3"/><path d="M291.259,273.769l-1.139-1.115,21.266-21.4a.842.842,0,0,1,.569-.233h80.709v1.6H312.292Z" transform="translate(-212.098 -104.059)" fill="#6f99e3"/><path d="M370.4,302.082H334.448a.8.8,0,0,1-.569-.233L311.29,279.261l1.139-1.131,22.348,22.348H370.4Z" transform="translate(-216.292 -109.43)" fill="#6f99e3"/><circle cx="3.673" cy="3.673" r="3.673" transform="translate(156.847 6.15)" fill="#6f99e3"/><path d="M328.9,112.388a8.484,8.484,0,1,1,8.484-8.484A8.484,8.484,0,0,1,328.9,112.388Zm0-15.364a6.88,6.88,0,1,0,6.88,6.88A6.88,6.88,0,0,0,328.9,97.024Z" transform="translate(-218.101 -73.232)" fill="#6f99e3"/><circle cx="3.673" cy="3.673" r="3.673" transform="translate(107.13 26.999)" fill="#6f99e3"/><path d="M428.765,136.261a3.673,3.673,0,1,1-1.073-2.6,3.673,3.673,0,0,1,1.073,2.6Z" transform="translate(-238.111 -80.594)" fill="#6f99e3"/><circle cx="3.673" cy="3.673" r="3.673" transform="translate(114.347 71.103)" fill="#6f99e3"/><path d="M388.9,194.388a8.484,8.484,0,1,1,8.484-8.484,8.484,8.484,0,0,1-8.484,8.484Zm0-15.364a6.88,6.88,0,1,0,6.88,6.88A6.88,6.88,0,0,0,388.9,179.024Z" transform="translate(-229.988 -89.478)" fill="#6f99e3"/><circle cx="3.673" cy="3.673" r="3.673" transform="translate(155.243 92.754)" fill="#6f99e3"/><circle cx="3.673" cy="3.673" r="3.673" transform="translate(83.074 114.404)" fill="#6f99e3"/><circle cx="3.673" cy="3.673" r="3.673" transform="translate(176.894 144.074)" fill="#6f99e3"/><path d="M357.9,285.224a8.492,8.492,0,1,1,8.484-8.492A8.492,8.492,0,0,1,357.9,285.224Zm0-15.372a6.888,6.888,0,1,0,6.88,6.88,6.888,6.888,0,0,0-6.88-6.88Z" transform="translate(-223.843 -107.471)" fill="#6f99e3"/><path d="M362.765,277.923a3.673,3.673,0,1,1-3.673-3.673,3.673,3.673,0,0,1,3.673,3.673Z" transform="translate(-225.035 -108.662)" fill="#6f99e3"/><circle cx="3.673" cy="3.673" r="3.673" transform="translate(150.432 188.177)" fill="#6f99e3"/><path d="M304.1,327.423a3.681,3.681,0,1,1-3.681-3.673,3.681,3.681,0,0,1,3.681,3.673Z" transform="translate(-213.41 -118.468)" fill="#6f99e3"/><rect width="15.813" height="20.648" rx="1.51" transform="translate(168.987)" fill="#6f99e3"/><rect width="15.813" height="20.648" rx="1.51" transform="translate(168.987)" fill="#fff" opacity="0.6" style="isolation:isolate"/><rect width="11.09" height="1.115" transform="translate(171.345 2.935)" fill="#6f99e3"/><rect width="11.09" height="1.115" transform="translate(171.345 4.883)" fill="#6f99e3"/><rect width="11.09" height="1.115" transform="translate(171.345 6.84)" fill="#6f99e3"/><rect width="11.09" height="1.115" transform="translate(171.345 8.789)" fill="#6f99e3"/><rect width="11.09" height="1.115" transform="translate(171.345 10.745)" fill="#6f99e3"/><rect width="11.09" height="1.115" transform="translate(171.345 12.702)" fill="#6f99e3"/><rect width="11.09" height="1.115" transform="translate(171.345 14.65)" fill="#6f99e3"/><rect width="7.185" height="1.115" transform="translate(171.345 16.607)" fill="#6f99e3"/><rect width="15.813" height="20.648" rx="1.51" transform="translate(94.476 109.489)" fill="#6f99e3"/><rect width="15.813" height="20.648" rx="1.51" transform="translate(94.476 109.489)" fill="#fff" opacity="0.6" style="isolation:isolate"/><rect width="11.09" height="1.115" transform="translate(96.834 112.416)" fill="#6f99e3"/><rect width="11.09" height="1.115" transform="translate(96.834 114.372)" fill="#6f99e3"/><rect width="11.09" height="1.115" transform="translate(96.834 116.321)" fill="#6f99e3"/><rect width="11.09" height="1.115" transform="translate(96.834 118.277)" fill="#6f99e3"/><rect width="11.09" height="1.115" transform="translate(96.834 120.226)" fill="#6f99e3"/><rect width="11.09" height="1.115" transform="translate(96.834 122.183)" fill="#6f99e3"/><rect width="11.09" height="1.115" transform="translate(96.834 124.139)" fill="#6f99e3"/><rect width="7.185" height="1.115" transform="translate(96.834 126.088)" fill="#6f99e3"/><rect width="15.813" height="20.648" rx="1.51" transform="translate(186.981 131.709)" fill="#6f99e3"/><rect width="15.813" height="20.648" rx="1.51" transform="translate(186.981 131.709)" fill="#fff" opacity="0.6" style="isolation:isolate"/><rect width="11.09" height="1.115" transform="translate(189.339 134.644)" fill="#6f99e3"/><rect width="11.09" height="1.115" transform="translate(189.339 136.592)" fill="#6f99e3"/><rect width="11.09" height="1.115" transform="translate(189.339 138.549)" fill="#6f99e3"/><rect width="11.09" height="1.115" transform="translate(189.339 140.506)" fill="#6f99e3"/><rect width="11.09" height="1.115" transform="translate(189.339 142.454)" fill="#6f99e3"/><rect width="11.09" height="1.115" transform="translate(189.339 144.411)" fill="#6f99e3"/><rect width="11.09" height="1.115" transform="translate(189.339 146.359)" fill="#6f99e3"/><rect width="7.185" height="1.115" transform="translate(189.339 148.316)" fill="#6f99e3"/><rect width="15.813" height="20.648" rx="1.51" transform="translate(193.252 39.589)" fill="#6f99e3"/><rect width="15.813" height="20.648" rx="1.51" transform="translate(193.252 39.589)" fill="#fff" opacity="0.6" style="isolation:isolate"/><rect width="11.09" height="1.115" transform="translate(195.61 42.524)" fill="#6f99e3"/><rect width="11.09" height="1.115" transform="translate(195.61 44.472)" fill="#6f99e3"/><rect width="11.09" height="1.115" transform="translate(195.61 46.429)" fill="#6f99e3"/><rect width="11.09" height="1.115" transform="translate(195.61 48.385)" fill="#6f99e3"/><rect width="11.09" height="1.115" transform="translate(195.61 50.334)" fill="#6f99e3"/><rect width="11.09" height="1.115" transform="translate(195.61 52.291)" fill="#6f99e3"/><rect width="11.09" height="1.115" transform="translate(195.61 54.239)" fill="#6f99e3"/><rect width="7.185" height="1.115" transform="translate(195.61 56.196)" fill="#6f99e3"/><rect width="15.813" height="20.648" rx="1.51" transform="translate(94.773 204.848)" fill="#6f99e3"/><rect width="15.813" height="20.648" rx="1.51" transform="translate(94.773 204.848)" fill="#fff" opacity="0.6" style="isolation:isolate"/><rect width="11.09" height="1.115" transform="translate(97.131 207.783)" fill="#6f99e3"/><rect width="11.09" height="1.115" transform="translate(97.131 209.732)" fill="#6f99e3"/><rect width="11.09" height="1.115" transform="translate(97.131 211.689)" fill="#6f99e3"/><rect width="11.09" height="1.115" transform="translate(97.131 213.637)" fill="#6f99e3"/><rect width="11.09" height="1.115" transform="translate(97.131 215.594)" fill="#6f99e3"/><rect width="11.09" height="1.115" transform="translate(97.131 217.55)" fill="#6f99e3"/><rect width="11.09" height="1.115" transform="translate(97.131 219.499)" fill="#6f99e3"/><rect width="7.185" height="1.115" transform="translate(97.131 221.455)" fill="#6f99e3"/><rect width="36.887" height="36.887" rx="1.54" transform="translate(170.896 77.542)" fill="#6f99e3"/><circle cx="12.429" cy="12.429" r="12.429" transform="translate(176.91 83.556)" fill="#fff" opacity="0.5"/><path d="M425.877,184.375h12.429a12.413,12.413,0,1,1-6.215-10.785Z" transform="translate(-236.538 -88.39)" fill="#fff" opacity="0.7"/><circle cx="9.623" cy="9.623" r="9.623" transform="translate(179.716 86.363)" fill="#6f99e3"/><circle cx="9.623" cy="9.623" r="9.623" transform="translate(179.716 86.363)" fill="#fff" opacity="0.3"/><text transform="translate(185.145 96.852)" fill="#fff" font-size="4" font-family="Helvetica" letter-spacing="0.022em"><tspan x="0" y="0">8</tspan><tspan y="0" letter-spacing="0em">0%</tspan></text><rect width="28.066" height="28.066" rx="1.17" transform="translate(145.163 155.364)" fill="#6f99e3"/><rect width="3.608" height="1.836" transform="translate(164.529 178.723)" fill="#fff" opacity="0.5"/><rect width="3.608" height="1.836" transform="translate(164.529 160.4)" fill="#fff"/><rect width="3.608" height="1.836" transform="translate(164.529 163.455)" fill="#fff"/><rect width="3.608" height="1.836" transform="translate(164.529 166.511)" fill="#fff" opacity="0.75"/><rect width="3.608" height="1.836" transform="translate(164.529 169.558)" fill="#fff" opacity="0.5"/><rect width="3.608" height="1.836" transform="translate(164.529 172.613)" fill="#fff" opacity="0.5"/><rect width="3.608" height="1.836" transform="translate(164.529 175.668)" fill="#fff" opacity="0.5"/><rect width="3.608" height="1.836" transform="translate(159.621 178.723)" fill="#fff" opacity="0.5"/><rect width="3.608" height="1.836" transform="translate(159.621 169.558)" fill="#fff"/><rect width="3.608" height="1.836" transform="translate(159.621 172.613)" fill="#fff" opacity="0.75"/><rect width="3.608" height="1.836" transform="translate(159.621 175.668)" fill="#fff" opacity="0.5"/><rect width="3.608" height="1.836" transform="translate(154.706 178.723)" fill="#fff" opacity="0.5"/><rect width="3.608" height="1.836" transform="translate(154.706 166.511)" fill="#fff"/><rect width="3.608" height="1.836" transform="translate(154.706 169.558)" fill="#fff" opacity="0.75"/><rect width="3.608" height="1.836" transform="translate(154.706 172.613)" fill="#fff" opacity="0.5"/><rect width="3.608" height="1.836" transform="translate(154.706 175.668)" fill="#fff" opacity="0.5"/><rect width="3.608" height="1.836" transform="translate(149.798 178.723)" fill="#fff" opacity="0.5"/><rect width="3.608" height="1.836" transform="translate(149.798 172.613)" fill="#fff"/><rect width="3.608" height="1.836" transform="translate(149.798 175.668)" fill="#fff" opacity="0.75"/><rect width="28.066" height="28.066" rx="1.17" transform="translate(123.697 20.312)" fill="#6f99e3"/><path d="M364.39,105.191v-1.756l-.906-.08a4.538,4.538,0,0,0-.674-1.6l.577-.706-1.235-1.291-.706.585a4.594,4.594,0,0,0-1.6-.674l-.088-.906H358l-.08.906a4.635,4.635,0,0,0-1.6.674l-.7-.585L354.374,101l.577.706a4.811,4.811,0,0,0-.674,1.6l-.9.08v1.756l.9.088a4.915,4.915,0,0,0,.674,1.6l-.577.706,1.243,1.243.7-.585a4.635,4.635,0,0,0,1.6.674l.08.906h1.756l.088-.906a4.594,4.594,0,0,0,1.6-.674l.706.585,1.235-1.243-.577-.706a4.594,4.594,0,0,0,.674-1.6Zm-5.525,1.5a2.406,2.406,0,1,1,2.406-2.406,2.406,2.406,0,0,1-2.406,2.406Z" transform="translate(-224.631 -73.894)" fill="#fff" opacity="0.9"/><path d="M373.86,111.76v-1.379l-.706-.064a3.737,3.737,0,0,0-.529-1.275l.457-.545-.97-.978-.553.457a3.7,3.7,0,0,0-1.267-.529l-.072-.706h-1.371l-.072.706a3.7,3.7,0,0,0-1.267.529l-.553-.457-.97.978.457.545a3.584,3.584,0,0,0-.529,1.275l-.714.064v1.379l.714.064a3.544,3.544,0,0,0,.529,1.267l-.457.553.97.97.553-.449a3.681,3.681,0,0,0,1.267.521l.072.714h1.371l.072-.714a3.681,3.681,0,0,0,1.267-.521l.553.449.97-.97-.457-.553a3.7,3.7,0,0,0,.529-1.267Zm-4.33,1.171a1.341,1.341,0,1,0-.016-.024Z" transform="translate(-226.973 -75.475)" fill="#fff" opacity="0.6"/><path d="M365.321,116.8v-1.155l-.593-.056a3.119,3.119,0,0,0-.449-1.075l.385-.457-.8-.8-.465.385a2.878,2.878,0,0,0-1.066-.449l-.056-.593h-1.155l-.056.593a2.991,2.991,0,0,0-1.066.449l-.457-.385-.8.8.377.457a3.1,3.1,0,0,0-.441,1.075l-.593.056V116.8l.593.056a3.128,3.128,0,0,0,.441,1.066l-.377.457.8.8.457-.377a3.127,3.127,0,0,0,1.066.441l.056.593h1.155l.056-.593a3,3,0,0,0,1.066-.441l.465.377.8-.8-.385-.457a3.143,3.143,0,0,0,.449-1.066Zm-3.641.986a1.564,1.564,0,1,1,1.564-1.564,1.6,1.6,0,0,1-1.564,1.564Z" transform="translate(-225.562 -76.636)" fill="#fff" opacity="0.4"/><rect width="24.658" height="16.038" transform="translate(124.387 66.556)" fill="#6f99e3"/><rect width="24.658" height="16.038" transform="translate(124.387 66.556)" fill="#fff" opacity="0.6" style="isolation:isolate"/><rect width="22.854" height="12.229" transform="translate(125.285 69.563)" fill="#6f99e3"/><rect width="16.904" height="0.529" transform="translate(127.145 71.391)" fill="#fff"/><rect width="8.115" height="0.529" transform="translate(127.145 73.003)" fill="#fff"/><rect width="10.216" height="0.529" transform="translate(127.145 74.615)" fill="#fff"/><rect width="3.6" height="0.529" transform="translate(127.145 76.227)" fill="#fff"/><rect width="2.333" height="0.529" transform="translate(127.145 77.839)" fill="#fff"/><rect width="24.658" height="16.038" transform="translate(163.679 188.843)" fill="#6f99e3"/><rect width="24.658" height="16.038" transform="translate(163.679 188.843)" fill="#fff" opacity="0.6" style="isolation:isolate"/><rect width="22.854" height="12.229" transform="translate(164.577 191.85)" fill="#6f99e3"/><rect width="16.904" height="0.529" transform="translate(166.437 193.678)" fill="#fff"/><rect width="8.115" height="0.529" transform="translate(166.437 195.29)" fill="#fff"/><rect width="10.216" height="0.529" transform="translate(166.437 196.902)" fill="#fff"/><rect width="3.6" height="0.529" transform="translate(166.437 198.514)" fill="#fff"/><rect width="2.333" height="0.529" transform="translate(166.437 200.125)" fill="#fff"/><g transform="translate(0.456 6.15)" opacity="0.4"><rect width="136" height="1" transform="translate(14.924 89.625)" fill="#fff"/><path d="M205.6,164.339H204v-9.623a.8.8,0,0,1,.233-.569l49.051-48.915a.8.8,0,0,1,.569-.233h44.769v1.6h-44.44L205.6,155.045Z" transform="translate(-195.492 -81.28)" fill="#fff"/><path d="M321.876,263.754H261.735a.8.8,0,0,1-.569-.233l-56.934-56.934a.8.8,0,0,1-.233-.569V198h1.6v7.69l56.46,56.46h59.812Z" transform="translate(-195.492 -99.705)" fill="#fff"/><path d="M287.554,210.346H255.342a.8.8,0,0,1-.561-.233L233.13,188.6l1.131-1.139,21.418,21.282h31.875Z" transform="translate(-201.263 -97.617)" fill="#fff"/><path d="M272.929,183.086l-1.139-1.131,21.579-21.723a.842.842,0,0,1,.569-.233h32.548v1.6H294.275Z" transform="translate(-208.923 -92.177)" fill="#fff"/><path d="M391.246,134.471H263.931a.8.8,0,0,1-.569-.241l-12.782-12.91,1.139-1.131,12.549,12.678H391.246Z" transform="translate(-204.72 -84.29)" fill="#fff"/><path d="M284.1,101.22l-1.1-1.139,20.849-20.849a.8.8,0,0,1,.569-.233h66.789v1.6H304.715Z" transform="translate(-211.143 -76.129)" fill="#fff"/><path d="M292.58,316.122l-32.348-32.34a.8.8,0,0,1-.233-.537V264h1.6v18.916l32.075,32.075Z" transform="translate(-206.587 -112.781)" fill="#fff"/><path d="M291.259,273.769l-1.139-1.115,21.266-21.4a.842.842,0,0,1,.569-.233h80.709v1.6H312.292Z" transform="translate(-212.554 -110.21)" fill="#fff"/><path d="M370.4,302.082H334.448a.8.8,0,0,1-.569-.233L311.29,279.261l1.139-1.131,22.348,22.348H370.4Z" transform="translate(-216.748 -115.581)" fill="#fff"/><circle cx="3.673" cy="3.673" r="3.673" transform="translate(156.391)" fill="#fff"/><path d="M328.9,112.388a8.484,8.484,0,1,1,8.484-8.484A8.484,8.484,0,0,1,328.9,112.388Zm0-15.364a6.88,6.88,0,1,0,6.88,6.88A6.88,6.88,0,0,0,328.9,97.024Z" transform="translate(-218.557 -79.382)" fill="#fff"/><path d="M428.765,136.261a3.673,3.673,0,1,1-1.073-2.6,3.673,3.673,0,0,1,1.073,2.6Z" transform="translate(-238.567 -86.744)" fill="#fff"/><circle cx="3.673" cy="3.673" r="3.673" transform="translate(113.891 64.952)" fill="#fff"/><path d="M388.9,194.388a8.484,8.484,0,1,1,8.484-8.484,8.484,8.484,0,0,1-8.484,8.484Zm0-15.364a6.88,6.88,0,1,0,6.88,6.88A6.88,6.88,0,0,0,388.9,179.024Z" transform="translate(-230.444 -95.628)" fill="#fff"/><circle cx="3.673" cy="3.673" r="3.673" transform="translate(82.618 108.254)" fill="#fff"/><circle cx="3.673" cy="3.673" r="3.673" transform="translate(176.438 137.924)" fill="#fff"/><path d="M357.9,285.224a8.492,8.492,0,1,1,8.484-8.492A8.492,8.492,0,0,1,357.9,285.224Zm0-15.372a6.888,6.888,0,1,0,6.88,6.88,6.888,6.888,0,0,0-6.88-6.88Z" transform="translate(-224.299 -113.621)" fill="#fff"/><circle cx="3.673" cy="3.673" r="3.673" transform="translate(149.976 182.027)" fill="#fff"/><path d="M304.1,327.423a3.681,3.681,0,1,1-3.681-3.673,3.681,3.681,0,0,1,3.681,3.673Z" transform="translate(-213.866 -124.619)" fill="#fff"/><path d="M202.7,195.042a9.326,9.326,0,1,1,6.61-2.731,9.326,9.326,0,0,1-6.61,2.731Zm0-16.246a6.92,6.92,0,1,0,6.92,6.92,6.92,6.92,0,0,0-6.92-6.92Z" transform="translate(-193.39 -95.424)" fill="#fff"/></g></g></g></g></svg>