<svg xmlns="http://www.w3.org/2000/svg" width="500.175" height="349" viewBox="0 0 500.175 349"><g transform="translate(-683 -2077.635)"><path d="M11073.479,871.984s262.788-60.814,302.561,55.951,129.847,167.826-76.536,228-303.674,63.676-314.59,18.667-68.212-49.616-52.1-143.462S11073.479,871.984,11073.479,871.984Z" transform="translate(-10246.974 1221.482)" fill="#ffe6f3"/><rect width="157.057" height="118.372" rx="8.55" transform="translate(744.893 2147.286)" opacity="0.2"/><rect width="157.057" height="118.372" rx="8.55" transform="translate(741 2141.055)" fill="#fff" stroke="#263238" stroke-linecap="round" stroke-linejoin="round" stroke-width="1"/><path d="M134.931,163.933l-33.576,10.9a35.332,35.332,0,0,1,22.68-44.514,33.545,33.545,0,0,1,10.9-1.735Z" transform="translate(656.846 2031.262)" fill="#6f99e3" stroke="#263238" stroke-linecap="round" stroke-linejoin="round" stroke-width="1"/><path d="M134.836,162,155.6,190.562a35.321,35.321,0,0,1-49.327-7.817,33.587,33.587,0,0,1-5.014-9.848Z" transform="translate(656.94 2033.195)" fill="#fff" stroke="#263238" stroke-linecap="round" stroke-linejoin="round" stroke-width="1"/><path d="M133,162.6l33.6-10.917a34.771,34.771,0,0,1-12.81,39.479Z" transform="translate(658.776 2032.598)" fill="#263238" stroke="#263238" stroke-linecap="round" stroke-linejoin="round" stroke-width="1"/><path d="M133,163.932V128.6a34.782,34.782,0,0,1,33.6,24.415Z" transform="translate(658.776 2031.263)" fill="#fff" stroke="#263238" stroke-linecap="round" stroke-linejoin="round" stroke-width="1"/><circle cx="22.024" cy="22.024" r="22.024" transform="translate(769.805 2173.15)" fill="#fff" stroke="#263238" stroke-linecap="round" stroke-linejoin="round" stroke-width="1"/><rect width="48.396" height="4.009" transform="translate(837.052 2157.706)" fill="#6f99e3" stroke="#263238" stroke-linecap="round" stroke-linejoin="round" stroke-width="1"/><rect width="37.987" height="4.009" transform="translate(837.052 2166.284)" fill="#263238" stroke="#263238" stroke-linecap="round" stroke-linejoin="round" stroke-width="1"/><rect width="27.916" height="4.009" transform="translate(837.052 2174.864)" fill="#fff" stroke="#263238" stroke-linecap="round" stroke-linejoin="round" stroke-width="1"/><rect width="39.669" height="4.009" transform="translate(837.052 2183.443)" fill="#6f99e3" stroke="#263238" stroke-linecap="round" stroke-linejoin="round" stroke-width="1"/><rect width="18.851" height="4.009" transform="translate(837.052 2192.022)" fill="#263238" stroke="#263238" stroke-linecap="round" stroke-linejoin="round" stroke-width="1"/><rect width="48.396" height="4.009" transform="translate(837.052 2200.611)" fill="#fff" stroke="#263238" stroke-linecap="round" stroke-linejoin="round" stroke-width="1"/><rect width="35.639" height="4.009" transform="translate(837.052 2209.19)" fill="#6f99e3" stroke="#263238" stroke-linecap="round" stroke-linejoin="round" stroke-width="1"/><rect width="31.143" height="4.009" transform="translate(837.052 2217.77)" fill="#263238" stroke="#263238" stroke-linecap="round" stroke-linejoin="round" stroke-width="1"/><rect width="48.396" height="4.009" transform="translate(837.052 2226.349)" fill="#fff" stroke="#263238" stroke-linecap="round" stroke-linejoin="round" stroke-width="1"/><line x2="37.511" transform="translate(773.814 2238.038)" fill="none" stroke="#263238" stroke-linecap="round" stroke-linejoin="round" stroke-width="1"/><line x2="48.132" transform="translate(768.504 2243.327)" fill="none" stroke="#263238" stroke-linecap="round" stroke-linejoin="round" stroke-width="1"/><line x2="37.511" transform="translate(838.342 2238.038)" fill="none" stroke="#263238" stroke-linecap="round" stroke-linejoin="round" stroke-width="1"/><line x2="48.132" transform="translate(833.032 2243.327)" fill="none" stroke="#263238" stroke-linecap="round" stroke-linejoin="round" stroke-width="1"/><rect width="137.434" height="103.584" rx="8.55" transform="translate(765.288 2315.027)" opacity="0.2"/><rect width="137.434" height="103.584" rx="8.55" transform="translate(760.612 2309.59)" fill="#fff" stroke="#263238" stroke-linecap="round" stroke-linejoin="round" stroke-width="1"/><line x2="18.332" transform="translate(770.027 2358.832)" fill="none" stroke="#263238" stroke-linecap="round" stroke-linejoin="round" stroke-width="1"/><line x2="28.995" transform="translate(770.027 2362.979)" fill="none" stroke="#263238" stroke-linecap="round" stroke-linejoin="round" stroke-width="1"/><line x2="18.332" transform="translate(770.027 2367.115)" fill="none" stroke="#263238" stroke-linecap="round" stroke-linejoin="round" stroke-width="1"/><line x2="26.446" transform="translate(770.027 2371.251)" fill="none" stroke="#263238" stroke-linecap="round" stroke-linejoin="round" stroke-width="1"/><line x2="18.332" transform="translate(770.027 2375.398)" fill="none" stroke="#263238" stroke-linecap="round" stroke-linejoin="round" stroke-width="1"/><line x2="32.391" transform="translate(770.027 2379.534)" fill="none" stroke="#263238" stroke-linecap="round" stroke-linejoin="round" stroke-width="1"/><line x2="18.332" transform="translate(815.938 2358.832)" fill="none" stroke="#263238" stroke-linecap="round" stroke-linejoin="round" stroke-width="1"/><line x2="28.995" transform="translate(815.938 2362.979)" fill="none" stroke="#263238" stroke-linecap="round" stroke-linejoin="round" stroke-width="1"/><line x2="18.332" transform="translate(815.938 2367.115)" fill="none" stroke="#263238" stroke-linecap="round" stroke-linejoin="round" stroke-width="1"/><line x2="26.446" transform="translate(815.938 2371.251)" fill="none" stroke="#263238" stroke-linecap="round" stroke-linejoin="round" stroke-width="1"/><line x2="18.332" transform="translate(815.938 2375.398)" fill="none" stroke="#263238" stroke-linecap="round" stroke-linejoin="round" stroke-width="1"/><line x2="32.391" transform="translate(815.938 2379.534)" fill="none" stroke="#263238" stroke-linecap="round" stroke-linejoin="round" stroke-width="1"/><line x2="18.332" transform="translate(861.848 2358.832)" fill="none" stroke="#263238" stroke-linecap="round" stroke-linejoin="round" stroke-width="1"/><line x2="28.985" transform="translate(861.848 2362.979)" fill="none" stroke="#263238" stroke-linecap="round" stroke-linejoin="round" stroke-width="1"/><line x2="18.332" transform="translate(861.848 2367.115)" fill="none" stroke="#263238" stroke-linecap="round" stroke-linejoin="round" stroke-width="1"/><line x2="26.435" transform="translate(861.848 2371.251)" fill="none" stroke="#263238" stroke-linecap="round" stroke-linejoin="round" stroke-width="1"/><line x2="18.332" transform="translate(861.848 2375.398)" fill="none" stroke="#263238" stroke-linecap="round" stroke-linejoin="round" stroke-width="1"/><line x2="32.391" transform="translate(861.848 2379.534)" fill="none" stroke="#263238" stroke-linecap="round" stroke-linejoin="round" stroke-width="1"/><rect width="35.48" height="7.098" transform="translate(768.853 2345.229)" fill="#263238"/><rect width="35.48" height="7.098" transform="translate(815.567 2345.229)" fill="#263238"/><rect width="35.48" height="7.098" transform="translate(862.281 2345.229)" fill="#263238"/><line y2="35.914" transform="translate(809.865 2344.816)" fill="none" stroke="#263238" stroke-linecap="round" stroke-linejoin="round" stroke-width="1"/><line y2="35.914" transform="translate(856.198 2344.816)" fill="none" stroke="#263238" stroke-linecap="round" stroke-linejoin="round" stroke-width="1"/><path d="M125.441,288.371l7.68-2.5a8.071,8.071,0,1,1-10.176-5.183,7.7,7.7,0,0,1,2.5-.391Z" transform="translate(657.872 2040.038)" fill="#6f99e3" stroke="#263238" stroke-miterlimit="10" stroke-width="0.5"/><path d="M125,288.371V280.3a7.944,7.944,0,0,1,7.68,5.575Z" transform="translate(658.313 2040.037)" fill="#263238" stroke="#263238" stroke-miterlimit="10" stroke-width="0.5"/><path d="M198.941,288.371l7.68-2.5a8.071,8.071,0,1,1-10.166-5.183,7.637,7.637,0,0,1,2.486-.391Z" transform="translate(662.123 2040.038)" fill="#6f99e3" stroke="#263238" stroke-miterlimit="10" stroke-width="0.5"/><path d="M198.5,288.371V280.3a7.934,7.934,0,0,1,7.68,5.575Z" transform="translate(662.564 2040.037)" fill="#263238" stroke="#263238" stroke-miterlimit="10" stroke-width="0.5"/><path d="M149.961,288.371v8.071a8.071,8.071,0,0,1,0-16.143h0Z" transform="translate(659.29 2040.038)" fill="#6f99e3" stroke="#263238" stroke-miterlimit="10" stroke-width="0.5"/><path d="M149.52,288.371V280.3a8.071,8.071,0,1,1,0,16.143h0Z" transform="translate(659.731 2040.038)" fill="#263238" stroke="#263238" stroke-miterlimit="10" stroke-width="0.5"/><path d="M174.442,288.371l7.68,2.5a8.075,8.075,0,1,1-15.36-4.993,7.944,7.944,0,0,1,7.68-5.575Z" transform="translate(660.706 2040.037)" fill="#6f99e3" stroke="#263238" stroke-miterlimit="10" stroke-width="0.5"/><path d="M174,288.371V280.3a8.071,8.071,0,0,1,8.082,8.071,7.711,7.711,0,0,1-.4,2.5Z" transform="translate(661.147 2040.038)" fill="#263238" stroke="#263238" stroke-miterlimit="10" stroke-width="0.5"/><path d="M223.442,288.371l7.68,2.5a8.076,8.076,0,0,1-15.36-4.993,7.944,7.944,0,0,1,7.68-5.575Z" transform="translate(663.54 2040.037)" fill="#6f99e3" stroke="#263238" stroke-miterlimit="10" stroke-width="0.5"/><path d="M223,288.371V280.3a8.061,8.061,0,0,1,8.071,8.071,7.7,7.7,0,0,1-.391,2.5Z" transform="translate(663.981 2040.038)" fill="#263238" stroke="#263238" stroke-miterlimit="10" stroke-width="0.5"/><rect width="7.066" height="2.391" transform="translate(881.502 2401.685)" fill="#6f99e3" stroke="#263238" stroke-linecap="round" stroke-linejoin="round" stroke-width="0.75"/><rect width="7.066" height="14.334" transform="translate(873.653 2389.742)" fill="#263238" stroke="#263238" stroke-linecap="round" stroke-linejoin="round" stroke-width="0.75"/><rect width="7.066" height="9.193" transform="translate(865.814 2394.894)" fill="#fff" stroke="#263238" stroke-linecap="round" stroke-linejoin="round" stroke-width="0.75"/><rect width="7.066" height="16.354" transform="translate(857.965 2387.722)" fill="#6f99e3" stroke="#263238" stroke-linecap="round" stroke-linejoin="round" stroke-width="0.75"/><rect width="7.066" height="4.231" transform="translate(850.116 2399.855)" fill="#263238" stroke="#263238" stroke-linecap="round" stroke-linejoin="round" stroke-width="0.75"/><rect width="7.066" height="5.511" transform="translate(842.267 2398.565)" fill="#fff" stroke="#263238" stroke-linecap="round" stroke-linejoin="round" stroke-width="0.75"/><rect width="7.066" height="11.033" transform="translate(834.418 2393.053)" fill="#6f99e3" stroke="#263238" stroke-linecap="round" stroke-linejoin="round" stroke-width="0.75"/><rect width="7.066" height="1.841" transform="translate(826.568 2402.246)" fill="#263238" stroke="#263238" stroke-linecap="round" stroke-linejoin="round" stroke-width="0.75"/><rect width="7.066" height="14.334" transform="translate(818.72 2389.742)" fill="#fff" stroke="#263238" stroke-linecap="round" stroke-linejoin="round" stroke-width="0.75"/><rect width="7.066" height="11.583" transform="translate(810.87 2392.503)" fill="#6f99e3" stroke="#263238" stroke-linecap="round" stroke-linejoin="round" stroke-width="0.75"/><rect width="7.066" height="0.55" transform="translate(803.031 2403.526)" fill="#263238" stroke="#263238" stroke-linecap="round" stroke-linejoin="round" stroke-width="0.75"/><rect width="7.066" height="0.73" transform="translate(795.183 2403.346)" fill="#fff" stroke="#263238" stroke-linecap="round" stroke-linejoin="round" stroke-width="0.75"/><rect width="7.066" height="9.193" transform="translate(787.333 2394.894)" fill="#6f99e3" stroke="#263238" stroke-linecap="round" stroke-linejoin="round" stroke-width="0.75"/><rect width="7.066" height="1.841" transform="translate(779.484 2402.246)" fill="#263238" stroke="#263238" stroke-linecap="round" stroke-linejoin="round" stroke-width="0.75"/><rect width="7.066" height="3.681" transform="translate(771.635 2400.405)" fill="#fff" stroke="#263238" stroke-linecap="round" stroke-linejoin="round" stroke-width="0.75"/><rect width="157.057" height="118.372" rx="8.55" transform="translate(931.442 2225.344)" opacity="0.2"/><rect width="157.057" height="118.372" rx="8.55" transform="translate(925.995 2219.124)" fill="#fff" stroke="#263238" stroke-linecap="round" stroke-linejoin="round" stroke-width="1"/><rect width="8.145" height="9.034" transform="translate(1065.016 2311.737)" fill="#6f99e3" stroke="#263238" stroke-linecap="round" stroke-linejoin="round" stroke-width="0.75"/><rect width="8.145" height="54.193" transform="translate(1055.961 2266.568)" fill="#263238" stroke="#263238" stroke-linecap="round" stroke-linejoin="round" stroke-width="0.75"/><rect width="8.145" height="34.739" transform="translate(1046.906 2286.032)" fill="#fff" stroke="#263238" stroke-linecap="round" stroke-linejoin="round" stroke-width="0.75"/><rect width="8.145" height="61.841" transform="translate(1037.861 2258.93)" fill="#6f99e3" stroke="#263238" stroke-linecap="round" stroke-linejoin="round" stroke-width="0.75"/><rect width="8.145" height="15.984" transform="translate(1028.807 2304.787)" fill="#263238" stroke="#263238" stroke-linecap="round" stroke-linejoin="round" stroke-width="0.75"/><rect width="8.145" height="20.839" transform="translate(1019.751 2299.921)" fill="#fff" stroke="#263238" stroke-linecap="round" stroke-linejoin="round" stroke-width="0.75"/><rect width="8.145" height="41.689" transform="translate(1010.706 2279.082)" fill="#6f99e3" stroke="#263238" stroke-linecap="round" stroke-linejoin="round" stroke-width="0.75"/><rect width="8.145" height="6.95" transform="translate(1001.651 2313.821)" fill="#263238" stroke="#263238" stroke-linecap="round" stroke-linejoin="round" stroke-width="0.75"/><rect width="8.145" height="54.193" transform="translate(992.597 2266.568)" fill="#fff" stroke="#263238" stroke-linecap="round" stroke-linejoin="round" stroke-width="0.75"/><rect width="8.145" height="43.773" transform="translate(983.552 2276.998)" fill="#6f99e3" stroke="#263238" stroke-linecap="round" stroke-linejoin="round" stroke-width="0.75"/><rect width="8.145" height="2.084" transform="translate(974.497 2318.677)" fill="#263238" stroke="#263238" stroke-linecap="round" stroke-linejoin="round" stroke-width="0.75"/><rect width="8.145" height="2.782" transform="translate(965.441 2317.989)" fill="#fff" stroke="#263238" stroke-linecap="round" stroke-linejoin="round" stroke-width="0.75"/><rect width="8.145" height="34.739" transform="translate(956.387 2286.032)" fill="#6f99e3" stroke="#263238" stroke-linecap="round" stroke-linejoin="round" stroke-width="0.75"/><rect width="8.145" height="6.95" transform="translate(947.342 2313.821)" fill="#263238" stroke="#263238" stroke-linecap="round" stroke-linejoin="round" stroke-width="0.75"/><rect width="8.145" height="13.9" transform="translate(938.287 2306.871)" fill="#fff" stroke="#263238" stroke-linecap="round" stroke-linejoin="round" stroke-width="0.75"/><rect width="134.345" height="6.876" transform="translate(939.345 2243.856)" fill="#6f99e3" stroke="#263238" stroke-miterlimit="10" stroke-width="1"/><rect width="21.791" height="5.871" transform="translate(974.74 2244.353)" fill="#263238" stroke="#263238" stroke-miterlimit="10" stroke-width="1"/><rect width="40.928" height="5.871" transform="translate(997.409 2244.353)" fill="#fff" stroke="#263238" stroke-miterlimit="10" stroke-width="1"/><rect width="127.089" height="95.787" rx="8.55" transform="translate(944.274 2097.462)" opacity="0.2"/><rect width="127.089" height="95.787" rx="8.55" transform="translate(939.599 2091.241)" fill="#fff" stroke="#263238" stroke-linecap="round" stroke-linejoin="round" stroke-width="1"/><line x2="119.324" transform="translate(945.501 2178.058)" fill="none" stroke="#263238" stroke-miterlimit="10" stroke-width="0.5"/><line y2="1.767" transform="translate(945.501 2178.058)" fill="none" stroke="#263238" stroke-miterlimit="10" stroke-width="0.5"/><line y2="1.767" transform="translate(953.456 2178.058)" fill="none" stroke="#263238" stroke-miterlimit="10" stroke-width="0.5"/><line y2="1.767" transform="translate(961.411 2178.058)" fill="none" stroke="#263238" stroke-miterlimit="10" stroke-width="0.5"/><line y2="1.767" transform="translate(969.366 2178.058)" fill="none" stroke="#263238" stroke-miterlimit="10" stroke-width="0.5"/><line y2="1.767" transform="translate(977.321 2178.058)" fill="none" stroke="#263238" stroke-miterlimit="10" stroke-width="0.5"/><line y2="1.767" transform="translate(985.276 2178.058)" fill="none" stroke="#263238" stroke-miterlimit="10" stroke-width="0.5"/><line y2="1.767" transform="translate(993.23 2178.058)" fill="none" stroke="#263238" stroke-miterlimit="10" stroke-width="0.5"/><line y2="1.767" transform="translate(1001.186 2178.058)" fill="none" stroke="#263238" stroke-miterlimit="10" stroke-width="0.5"/><line y2="1.767" transform="translate(1009.141 2178.058)" fill="none" stroke="#263238" stroke-miterlimit="10" stroke-width="0.5"/><line y2="1.767" transform="translate(1017.096 2178.058)" fill="none" stroke="#263238" stroke-miterlimit="10" stroke-width="0.5"/><line y2="1.767" transform="translate(1025.051 2178.058)" fill="none" stroke="#263238" stroke-miterlimit="10" stroke-width="0.5"/><line y2="1.767" transform="translate(1033.006 2178.058)" fill="none" stroke="#263238" stroke-miterlimit="10" stroke-width="0.5"/><line y2="1.767" transform="translate(1040.961 2178.058)" fill="none" stroke="#263238" stroke-miterlimit="10" stroke-width="0.5"/><line y2="1.767" transform="translate(1048.916 2178.058)" fill="none" stroke="#263238" stroke-miterlimit="10" stroke-width="0.5"/><line y2="1.767" transform="translate(1056.871 2178.058)" fill="none" stroke="#263238" stroke-miterlimit="10" stroke-width="0.5"/><line y2="1.767" transform="translate(1064.825 2178.058)" fill="none" stroke="#263238" stroke-miterlimit="10" stroke-width="0.5"/><path d="M282.08,148.649H393.449V133.258l-7.881-15.233a1.258,1.258,0,0,1-.106-.339l-7-45.18a.846.846,0,1,0-1.693,0l-7.13,55.156a1.058,1.058,0,0,1-.37.677l-6.865,5.289a.8.8,0,0,1-1.227-.349l-6.918-14.27a.793.793,0,0,0-1.386-.18l-7.151,9.256-7.955,10.261-7.955-10.261-7.013-9.045a.8.8,0,0,0-1.439.317l-7.4,23.093L306,101.29l-7.955,45.265-7.955-6.157-6.347-17.877c-.36-1.058-1.65-.719-1.65.381Z" transform="translate(667.398 2027.97)" fill="#6f99e3"/><path d="M393.449,148.086H282.08V134.9l7.87-13.1a.771.771,0,0,0,.106-.3l7-38.854a.867.867,0,0,1,1.7,0l7.119,47.433a.91.91,0,0,0,.381.582l6.865,4.57a.857.857,0,0,0,1.227-.3l6.908-12.271a.857.857,0,0,1,1.386-.148l7.162,7.934,7.955,8.822,7.955-8.822,7-7.775a.867.867,0,0,1,1.449.275l7.4,19.856h7.955l7.955,3.533,7.955-5.289,6.347-15.37a.857.857,0,0,1,1.661.328Z" transform="translate(667.398 2028.565)" fill="#263238"/><line x2="24.648" transform="translate(1009.786 2104.01)" fill="none" stroke="#263238" stroke-linecap="round" stroke-linejoin="round" stroke-width="1"/><line x2="24.648" transform="translate(1009.786 2109.785)" fill="none" stroke="#263238" stroke-linecap="round" stroke-linejoin="round" stroke-width="1"/><line x2="24.648" transform="translate(1009.786 2115.551)" fill="none" stroke="#263238" stroke-linecap="round" stroke-linejoin="round" stroke-width="1"/><line x2="24.648" transform="translate(1009.786 2121.326)" fill="none" stroke="#263238" stroke-linecap="round" stroke-linejoin="round" stroke-width="1"/><line x2="24.648" transform="translate(1009.786 2127.092)" fill="none" stroke="#263238" stroke-linecap="round" stroke-linejoin="round" stroke-width="1"/><line x2="24.648" transform="translate(1009.786 2132.867)" fill="none" stroke="#263238" stroke-linecap="round" stroke-linejoin="round" stroke-width="1"/><line x2="3.089" transform="translate(1004.18 2104.01)" fill="none" stroke="#263238" stroke-linecap="round" stroke-linejoin="round" stroke-width="1"/><line x2="3.089" transform="translate(1004.18 2109.785)" fill="none" stroke="#263238" stroke-linecap="round" stroke-linejoin="round" stroke-width="1"/><line x2="3.089" transform="translate(1004.18 2115.551)" fill="none" stroke="#263238" stroke-linecap="round" stroke-linejoin="round" stroke-width="1"/><line x2="3.089" transform="translate(1004.18 2121.326)" fill="none" stroke="#263238" stroke-linecap="round" stroke-linejoin="round" stroke-width="1"/><line x2="3.089" transform="translate(1004.18 2127.092)" fill="none" stroke="#263238" stroke-linecap="round" stroke-linejoin="round" stroke-width="1"/><line x2="3.089" transform="translate(1004.18 2132.867)" fill="none" stroke="#263238" stroke-linecap="round" stroke-linejoin="round" stroke-width="1"/></g></svg>