<svg xmlns="http://www.w3.org/2000/svg" xmlns:xlink="http://www.w3.org/1999/xlink" width="500" height="349" viewBox="0 0 500 349"><defs><clipPath id="a"><rect width="105.813" height="69.422" fill="none"/></clipPath><clipPath id="c"><rect width="99" height="2" fill="none"/></clipPath><clipPath id="e"><rect width="4" height="72" fill="none"/></clipPath></defs><g transform="translate(-697.999 -2880.461)"><path d="M11242.576,841.979s240.313,21.756,285.011,142.447S11564,1087.8,11332.063,1150s-268.778,46.523-281.046,0,33.148-91.852,51.252-188.853S11242.576,841.979,11242.576,841.979Z" transform="translate(-10350.946 2038.482)" fill="#e1f7f7"/><g transform="translate(753 2931)" fill="#e8e8e8" stroke="#707070" stroke-width="1"><rect width="356" height="248.964" rx="15" stroke="none"/><rect x="0.5" y="0.5" width="355" height="247.964" rx="14.5" fill="none"/></g><g transform="translate(756 2934)" stroke="#707070" stroke-width="1"><rect width="349" height="242.964" rx="15" stroke="none"/><rect x="0.5" y="0.5" width="348" height="241.964" rx="14.5" fill="none"/></g><path d="M0,0H317a15,15,0,0,1,15,15V205.964a15,15,0,0,1-15,15H0a0,0,0,0,1,0,0V0A0,0,0,0,1,0,0Z" transform="translate(766 2945)" fill="#fff"/><rect width="332" height="21" transform="translate(766 2945)" fill="#f4f4f4"/><rect width="65" height="199.964" transform="translate(766 2966)" fill="#6f99e3"/><rect width="65" height="13" transform="translate(766 2997.99)" fill="#8bb1f4"/><rect width="58" height="13" rx="6.5" transform="translate(768 3044.983)" fill="#e37ab0"/><text transform="translate(780 3053)" fill="#fff" font-size="5" font-family="TsukuARdGothic-Bold, Tsukushi A Round Gothic" font-weight="700"><tspan x="0" y="0">学習データ投稿</tspan></text><text transform="translate(778 2993)" fill="#fff" font-size="5" font-family="TsukuARdGothic-Bold, Tsukushi A Round Gothic" font-weight="700"><tspan x="0" y="0">学習内容</tspan></text><g transform="translate(1015 3083.964)"><g fill="#fff" stroke="#d1d1d1" stroke-width="1"><path d="M5,0H69a5,5,0,0,1,5,5V82a0,0,0,0,1,0,0H0a0,0,0,0,1,0,0V5A5,5,0,0,1,5,0Z" stroke="none"/><path d="M5,.5H69A4.5,4.5,0,0,1,73.5,5V81a.5.5,0,0,1-.5.5H1A.5.5,0,0,1,.5,81V5A4.5,4.5,0,0,1,5,.5Z" fill="none"/></g><g transform="translate(4 7)"><g fill="#fff" stroke="#e5e5e5" stroke-width="0.5"><rect width="67" height="19" stroke="none"/><rect x="0.25" y="0.25" width="66.5" height="18.5" fill="none"/></g><g transform="translate(2.999 3)"><text font-size="4" font-family="TsukuARdGothic-Regular, Tsukushi A Round Gothic"><tspan x="0" y="4">ここには学習内容が入ります。こ</tspan><tspan x="0" y="9">こには学習内容が入ります。</tspan></text><text transform="translate(1 13)" font-size="2" font-family="TsukuARdGothic-Regular, Tsukushi A Round Gothic"><tspan x="0" y="0">2021/01/01</tspan></text></g></g><g transform="translate(4 28)" fill="#fff" stroke="#e5e5e5" stroke-width="0.5"><rect width="67" height="19" stroke="none"/><rect x="0.25" y="0.25" width="66.5" height="18.5" fill="none"/></g><text transform="translate(7 31)" font-size="4" font-family="TsukuARdGothic-Regular, Tsukushi A Round Gothic"><tspan x="0" y="4">ここには学習内容が入ります。こ</tspan><tspan x="0" y="9">こには学習内容が入ります。</tspan></text><text transform="translate(8 44)" font-size="2" font-family="TsukuARdGothic-Regular, Tsukushi A Round Gothic"><tspan x="0" y="0">2021/01/01</tspan></text><g transform="translate(4 49)" fill="#fff" stroke="#e5e5e5" stroke-width="0.5"><rect width="67" height="19" stroke="none"/><rect x="0.25" y="0.25" width="66.5" height="18.5" fill="none"/></g><text transform="translate(7 52)" font-size="4" font-family="TsukuARdGothic-Regular, Tsukushi A Round Gothic"><tspan x="0" y="4">ここには学習内容が入ります。こ</tspan><tspan x="0" y="9">こには学習内容が入ります。</tspan></text><text transform="translate(8 65)" font-size="2" font-family="TsukuARdGothic-Regular, Tsukushi A Round Gothic"><tspan x="0" y="0">2021/01/01</tspan></text></g><text transform="translate(778 3006)" fill="#fff" font-size="5" font-family="TsukuARdGothic-Bold, Tsukushi A Round Gothic" font-weight="700"><tspan x="0" y="0">学習状況</tspan></text><text transform="translate(778 3019)" fill="#fff" font-size="5" font-family="TsukuARdGothic-Bold, Tsukushi A Round Gothic" font-weight="700"><tspan x="0" y="0">学習最適化</tspan></text><text transform="translate(778 3032)" fill="#fff" font-size="5" font-family="TsukuARdGothic-Bold, Tsukushi A Round Gothic" font-weight="700"><tspan x="0" y="0">振り返り</tspan></text><text transform="translate(778 3132)" fill="#fff" font-size="5" font-family="TsukuARdGothic-Bold, Tsukushi A Round Gothic" font-weight="700"><tspan x="0" y="0">設定</tspan></text><text transform="translate(778 3145)" fill="#fff" font-size="5" font-family="TsukuARdGothic-Bold, Tsukushi A Round Gothic" font-weight="700"><tspan x="0" y="0">ヘルプ</tspan></text><text transform="translate(778 3119)" fill="#fff" font-size="5" font-family="TsukuARdGothic-Bold, Tsukushi A Round Gothic" font-weight="700"><tspan x="0" y="0">プロフィール</tspan></text><text transform="translate(1041 2956)" font-size="3" font-family="TsukuARdGothic-Bold, Tsukushi A Round Gothic" font-weight="700"><tspan x="0" y="0">山田太郎さん</tspan></text><ellipse cx="6" cy="5.5" rx="6" ry="5.5" transform="translate(1026 2950)" fill="#fff"/><g transform="translate(1026.53 2950.875)"><path d="M0,0H9.468V9.468H0Z" fill="none"/><circle cx="1.5" cy="1.5" r="1.5" transform="translate(3.47 1.125)" fill="none" stroke="#2c3e50" stroke-linecap="round" stroke-linejoin="round" stroke-width="1.5"/><path d="M6,17.367v-.789A1.578,1.578,0,0,1,7.578,15H9.156a1.578,1.578,0,0,1,1.578,1.578v.789" transform="translate(-3.362 -9.083)" fill="none" stroke="#2c3e50" stroke-linecap="round" stroke-linejoin="round" stroke-width="1.5"/></g><g transform="translate(770.318 3140.91)"><path d="M4.779.82A2.8,2.8,0,1,0,5.6,2.8,2.792,2.792,0,0,0,4.779.82Zm-.41.411A2.219,2.219,0,1,1,2.8.581,2.211,2.211,0,0,1,4.368,1.23Z" transform="translate(0 0)" fill="#fff"/><path d="M217.3,329.326a.283.283,0,1,0,.283.283A.283.283,0,0,0,217.3,329.326Z" transform="translate(-214.647 -325.727)" fill="#fff"/><path d="M180.855,131.7l.193.154a.1.1,0,0,0,.133,0,.261.261,0,0,1,.1-.085.617.617,0,0,1,.316-.076.479.479,0,0,1,.311.111.349.349,0,0,1,.082.1.183.183,0,0,1,.023.083.345.345,0,0,1-.035.163.33.33,0,0,1-.063.084.7.7,0,0,1-.153.11c-.06.034-.125.064-.191.1a.59.59,0,0,0-.213.19.515.515,0,0,0-.067.148.628.628,0,0,0-.021.167v.111a.1.1,0,0,0,.1.1h.25a.1.1,0,0,0,.1-.1v-.111a.17.17,0,0,1,0-.045.055.055,0,0,1,.013-.025.177.177,0,0,1,.047-.034c.038-.021.1-.05.166-.087a1.106,1.106,0,0,0,.332-.257.767.767,0,0,0,.13-.225.831.831,0,0,0,.049-.289.639.639,0,0,0-.076-.3.835.835,0,0,0-.318-.327.947.947,0,0,0-.481-.13,1.078,1.078,0,0,0-.543.137.607.607,0,0,0-.2.172.1.1,0,0,0,0,.16Z" transform="translate(-178.843 -129.803)" fill="#fff"/></g><g transform="translate(770.347 3127.48)"><path d="M5.465,2.3l-.611-.028a.144.144,0,0,1-.126-.089l-.126-.3a.144.144,0,0,1,.027-.152l.412-.452a.144.144,0,0,0,0-.2L4.529.566a.144.144,0,0,0-.2,0L3.878.973A.144.144,0,0,1,3.726,1l-.3-.126A.144.144,0,0,1,3.335.748L3.306.137A.144.144,0,0,0,3.163,0H2.444A.144.144,0,0,0,2.3.137L2.272.748a.144.144,0,0,1-.089.126L1.881,1A.144.144,0,0,1,1.729.973L1.277.561a.144.144,0,0,0-.2,0L.57,1.074a.144.144,0,0,0,0,.2l.412.452A.144.144,0,0,1,1,1.877l-.125.3a.144.144,0,0,1-.126.089L.141,2.3A.144.144,0,0,0,0,2.44v.718A.144.144,0,0,0,.141,3.3l.611.028a.144.144,0,0,1,.126.089l.125.3a.144.144,0,0,1-.026.152l-.412.452a.144.144,0,0,0,0,.2l.508.508a.144.144,0,0,0,.2,0l.452-.412A.144.144,0,0,1,1.881,4.6l.3.126a.144.144,0,0,1,.089.127l.028.611a.144.144,0,0,0,.144.137h.719a.144.144,0,0,0,.144-.137l.028-.611a.144.144,0,0,1,.089-.127l.3-.126a.144.144,0,0,1,.152.027l.452.412a.144.144,0,0,0,.2,0l.508-.508a.145.145,0,0,0,0-.2l-.412-.452A.144.144,0,0,1,4.6,3.722l.126-.3a.143.143,0,0,1,.126-.089L5.465,3.3A.144.144,0,0,0,5.6,3.159V2.44A.144.144,0,0,0,5.465,2.3ZM2.8,3.714A.914.914,0,1,1,3.718,2.8.915.915,0,0,1,2.8,3.714Z" transform="translate(-0.004)" fill="#fff"/></g><g transform="translate(770.908 3114.605)"><path d="M53.782,4.074c-.237-.144-.322-.13-.322-.419V3.194c.13-.144.177-.126.287-.693.222,0,.208-.289.313-.545.085-.208.014-.293-.058-.328.059-.76.059-1.283-.8-1.445A1.2,1.2,0,0,0,52.19.052a1.148,1.148,0,0,1-.425,0l.038.36c-.327.392-.163.916-.216,1.222-.069.037-.131.124-.049.323.1.256.09.545.313.545.11.566.157.548.287.693v.462c0,.289-.1.294-.322.419-.539.3-1.241.476-1.367,1.418-.023.172.966.36,2.349.361s2.372-.189,2.349-.361C55.023,4.551,54.314,4.4,53.782,4.074Z" transform="translate(-50.449 0)" fill="#fff"/></g><g transform="translate(769.788 3014.406)"><path d="M292.912,94.621l.4,0,0,.4h.486l0-.4h0l.4,0,0-.483h0v0l-.4,0,0-.4-.486,0,0,.4-.4,0Z" transform="translate(-290.316 -92.756)" fill="#fff"/><path d="M122.053,125.578l0-.464v0h0v0l-1.7,0,0,.467Z" transform="translate(-119.554 -123.761)" fill="#fff"/><path d="M122.98,223.783l0-.466h0v0l-2.631,0,0,.467Z" transform="translate(-119.315 -220.908)" fill="#fff"/><path d="M122.978,321.525h0v0l-2.631,0,0,.467h2.631Z" transform="translate(-119.315 -318.059)" fill="#fff"/><path d="M45.829,0l-4.7,0,0,5.578v.015h0v0h3.427l1.268-1.269ZM41.662.528l3.642,0,0,3.8-.745,0,0,.741-2.9,0V.528Z" transform="translate(-41.134)" fill="#fff"/></g><g transform="translate(769.788 3001.531)"><path d="M161.885,4.716c-1.105.153-2.164,2.226-2.684,3.186-.131.241.1.367.232.136.1-.166.333-.648.46-.623.609.1.934-.3.7-.546.775.016,1.159-.41.939-.669a1.161,1.161,0,0,0,.868-.1A.742.742,0,0,0,161.885,4.716Z" transform="translate(-157.512 -4.702)" fill="#fff"/><path d="M4.241,91.832a1.565,1.565,0,0,1-.431.288v2.146a.169.169,0,0,1-.169.169H.678a.169.169,0,0,1-.169-.169V91.3a.169.169,0,0,1,.169-.169H2.34c.116-.177.236-.348.357-.508H.678A.677.677,0,0,0,0,91.3v2.963a.677.677,0,0,0,.677.677H3.641a.677.677,0,0,0,.677-.677V91.822S4.291,91.785,4.241,91.832Z" transform="translate(-0.001 -89.736)" fill="#fff"/></g><g transform="translate(769.788 2989.776)"><path d="M5.209,76.708a.152.152,0,0,0-.074-.074,1.508,1.508,0,0,0-.236-.083,3.185,3.185,0,0,0-.454-.083,4.863,4.863,0,0,0-.545-.03,4.589,4.589,0,0,0-.709.052,2.846,2.846,0,0,0-.291.061,1.688,1.688,0,0,0-.173.056,1.675,1.675,0,0,0-.173-.056,3.178,3.178,0,0,0-.454-.083,4.868,4.868,0,0,0-.546-.03,4.589,4.589,0,0,0-.709.052,2.851,2.851,0,0,0-.29.061,1.516,1.516,0,0,0-.236.083.152.152,0,0,0-.074.074c-.115.029-.246.083-.246.178v2.775a.483.483,0,0,0,.483.483H2.431v.025a.1.1,0,0,0,.095.095h.4a.1.1,0,0,0,.095-.095v-.025H4.973a.483.483,0,0,0,.483-.483V76.886C5.456,76.791,5.325,76.737,5.209,76.708ZM2.576,79.6l-.021-.006a3.153,3.153,0,0,0-.454-.083,4.867,4.867,0,0,0-.546-.03,4.609,4.609,0,0,0-.709.052,2.852,2.852,0,0,0-.29.061L.535,79.6V76.874q.046-.016.1-.031a2.843,2.843,0,0,1,.409-.074,4.512,4.512,0,0,1,.511-.028,4.316,4.316,0,0,1,.661.048,2.519,2.519,0,0,1,.259.054q.054.015.1.031Zm2.344,0L4.9,79.59a3.16,3.16,0,0,0-.454-.083,4.861,4.861,0,0,0-.545-.03,4.609,4.609,0,0,0-.709.052,2.846,2.846,0,0,0-.291.061l-.021.006V76.874q.046-.016.1-.031a2.832,2.832,0,0,1,.409-.074,4.515,4.515,0,0,1,.511-.028,4.319,4.319,0,0,1,.661.048,2.528,2.528,0,0,1,.259.054c.036.01.07.02.1.031Z" transform="translate(0 -76.438)" fill="#fff"/></g><g transform="translate(769.229 3027.281)"><path d="M5.741,47.637l0-.438A2,2,0,0,0,3.6,45.344a2.137,2.137,0,0,0-.8.155,1.169,1.169,0,0,0-1.466.406A1.226,1.226,0,0,0,.39,47.072a1.084,1.084,0,0,0,.019,1.683,1.089,1.089,0,0,0,1.49.98v.97H4.411v-.458a2.151,2.151,0,0,0,1.151-1.124l.562-.046a.1.1,0,0,0,.089-.13ZM1.106,49.113a.554.554,0,0,1-.163-.393.563.563,0,0,1,0-.068l.021-.176-.154-.088a.56.56,0,0,1-.2-.2.553.553,0,0,1,0-.556.563.563,0,0,1,.193-.2l.144-.088-.018-.168c0-.026,0-.051,0-.075a.694.694,0,0,1,.608-.688l.14-.017.065-.125a.645.645,0,0,1,.231-.25.637.637,0,0,1,.951.713l-.048.175.146.109a.553.553,0,0,1,.222.444.547.547,0,0,1-.1.32.56.56,0,0,1-.262.2l-.257.095.1.255a.555.555,0,0,1-.517.759.56.56,0,0,1-.112-.011l-.129-.026-.1.086a.554.554,0,0,1-.756-.027Z" transform="translate(0 -45.344)" fill="#fff"/><path d="M477.114,140.141a.223.223,0,0,0-.223.223v1.028a.223.223,0,1,0,.447,0v-1.028A.223.223,0,0,0,477.114,140.141Z" transform="translate(-470.822 -138.935)" fill="#fff"/></g><g transform="translate(843.128 2984.735)" fill="#fff" stroke="#d1d1d1" stroke-width="1"><rect width="117.29" height="81.179" stroke="none"/><rect x="0.5" y="0.5" width="116.29" height="80.179" fill="none"/></g><text transform="translate(843 2979.994)" font-size="6" font-family="TsukuARdGothic-Bold, Tsukushi A Round Gothic" font-weight="700"><tspan x="0" y="0">学習状況</tspan></text><text transform="translate(843 3077.979)" font-size="5" font-family="TsukuARdGothic-Bold, Tsukushi A Round Gothic" font-weight="700"><tspan x="0" y="0">学習ボード</tspan></text><g transform="translate(843 3083.964)"><g fill="#fff" stroke="#d1d1d1" stroke-width="1"><path d="M5,0H69a5,5,0,0,1,5,5V82a0,0,0,0,1,0,0H0a0,0,0,0,1,0,0V5A5,5,0,0,1,5,0Z" stroke="none"/><path d="M5,.5H69A4.5,4.5,0,0,1,73.5,5V81a.5.5,0,0,1-.5.5H1A.5.5,0,0,1,.5,81V5A4.5,4.5,0,0,1,5,.5Z" fill="none"/></g><g transform="translate(4 7)"><g fill="#fff" stroke="#e5e5e5" stroke-width="0.5"><rect width="67" height="19" stroke="none"/><rect x="0.25" y="0.25" width="66.5" height="18.5" fill="none"/></g><g transform="translate(2.999 3)"><text font-size="4" font-family="TsukuARdGothic-Regular, Tsukushi A Round Gothic"><tspan x="0" y="4">ここには学習内容が入ります。こ</tspan><tspan x="0" y="9">こには学習内容が入ります。</tspan></text><text transform="translate(1 13)" font-size="2" font-family="TsukuARdGothic-Regular, Tsukushi A Round Gothic"><tspan x="0" y="0">2021/01/01</tspan></text></g></g><g transform="translate(4 28)" fill="#fff" stroke="#e5e5e5" stroke-width="0.5"><rect width="67" height="19" stroke="none"/><rect x="0.25" y="0.25" width="66.5" height="18.5" fill="none"/></g><text transform="translate(7 31)" font-size="4" font-family="TsukuARdGothic-Regular, Tsukushi A Round Gothic"><tspan x="0" y="4">ここには学習内容が入ります。こ</tspan><tspan x="0" y="9">こには学習内容が入ります。</tspan></text><text transform="translate(8 44)" font-size="2" font-family="TsukuARdGothic-Regular, Tsukushi A Round Gothic"><tspan x="0" y="0">2021/01/01</tspan></text><g transform="translate(4 49)" fill="#fff" stroke="#e5e5e5" stroke-width="0.5"><rect width="67" height="19" stroke="none"/><rect x="0.25" y="0.25" width="66.5" height="18.5" fill="none"/></g><text transform="translate(7 52)" font-size="4" font-family="TsukuARdGothic-Regular, Tsukushi A Round Gothic"><tspan x="0" y="4">ここには学習内容が入ります。こ</tspan><tspan x="0" y="9">こには学習内容が入ります。</tspan></text><text transform="translate(8 65)" font-size="2" font-family="TsukuARdGothic-Regular, Tsukushi A Round Gothic"><tspan x="0" y="0">2021/01/01</tspan></text></g><g transform="translate(849.007 2990.893)" clip-path="url(#a)"><g transform="translate(-150.5 -1064)"><line x2="189" transform="translate(150.5 1064.5)" fill="none" stroke="#f2f2f2" stroke-width="0.5"/></g><g transform="translate(-150.5 -1053)"><line x2="189" transform="translate(150.5 1064.5)" fill="none" stroke="#f2f2f2" stroke-width="0.5"/></g><g transform="translate(-150.5 -1042)"><line x2="189" transform="translate(150.5 1064.5)" fill="none" stroke="#f2f2f2" stroke-width="0.5"/></g><g transform="translate(-150.5 -1031)"><line x2="189" transform="translate(150.5 1064.5)" fill="none" stroke="#f2f2f2" stroke-width="0.5"/></g><g transform="translate(-150.5 -1020)"><line x2="189" transform="translate(150.5 1064.5)" fill="none" stroke="#f2f2f2" stroke-width="0.5"/></g><g transform="translate(-150.5 -1009)"><line x2="189" transform="translate(150.5 1064.5)" fill="none" stroke="#f2f2f2" stroke-width="0.5"/></g><g transform="translate(-150.5 -998)"><line x2="189" transform="translate(150.5 1064.5)" fill="none" stroke="#f2f2f2" stroke-width="0.5"/></g></g><rect width="7" height="24" transform="translate(866 3034.983)" fill="#6f99e3"/><rect width="8" height="18" transform="translate(854 3040.983)" fill="#6f99e3"/><rect width="7" height="36" transform="translate(877 3022.985)" fill="#6f99e3"/><rect width="7" height="43" transform="translate(888 3015.985)" fill="#6f99e3"/><rect width="7" height="49" transform="translate(899 3009.986)" fill="#6f99e3"/><rect width="6" height="61" transform="translate(911 2997.987)" fill="#6f99e3"/><rect width="7" height="49" transform="translate(922 3009.986)" fill="#6f99e3"/><rect width="9" height="66" transform="translate(932 2992.988)" fill="#6f99e3"/><rect width="8" height="66" transform="translate(943 2992.988)" fill="#6f99e3"/><g transform="translate(971.896 2984.735)" fill="#fff" stroke="#d1d1d1" stroke-width="1"><rect width="117.29" height="81.179" stroke="none"/><rect x="0.5" y="0.5" width="116.29" height="80.179" fill="none"/></g><g transform="translate(977.774 2990.893)" clip-path="url(#a)"><g transform="translate(-150.5 -1064)"><line x2="189" transform="translate(150.5 1064.5)" fill="none" stroke="#f2f2f2" stroke-width="0.5"/></g><g transform="translate(-150.5 -1053)"><line x2="189" transform="translate(150.5 1064.5)" fill="none" stroke="#f2f2f2" stroke-width="0.5"/></g><g transform="translate(-150.5 -1042)"><line x2="189" transform="translate(150.5 1064.5)" fill="none" stroke="#f2f2f2" stroke-width="0.5"/></g><g transform="translate(-150.5 -1031)"><line x2="189" transform="translate(150.5 1064.5)" fill="none" stroke="#f2f2f2" stroke-width="0.5"/></g><g transform="translate(-150.5 -1020)"><line x2="189" transform="translate(150.5 1064.5)" fill="none" stroke="#f2f2f2" stroke-width="0.5"/></g><g transform="translate(-150.5 -1009)"><line x2="189" transform="translate(150.5 1064.5)" fill="none" stroke="#f2f2f2" stroke-width="0.5"/></g><g transform="translate(-150.5 -998)"><line x2="189" transform="translate(150.5 1064.5)" fill="none" stroke="#f2f2f2" stroke-width="0.5"/></g></g><rect width="7" height="24" transform="translate(995 3034.983)" fill="#6f99e3"/><rect width="8" height="18" transform="translate(983 3040.983)" fill="#6f99e3"/><rect width="6" height="36" transform="translate(1006 3022.985)" fill="#6f99e3"/><rect width="7" height="36" transform="translate(1017 3022.985)" fill="#6f99e3"/><rect width="7" height="49" transform="translate(1028 3009.986)" fill="#6f99e3"/><rect width="7" height="49" transform="translate(1039 3009.986)" fill="#6f99e3"/><rect width="7" height="49" transform="translate(1050 3009.986)" fill="#6f99e3"/><rect width="7" height="55" transform="translate(1062 3003.987)" fill="#6f99e3"/><rect width="8" height="66" transform="translate(1073 2992.988)" fill="#6f99e3"/><g transform="translate(854 3060.981)" clip-path="url(#c)"><g transform="translate(-159 -1065)"><text transform="translate(159 1069)" font-size="4" font-family="TsukuARdGothic-Regular, Tsukushi A Round Gothic"><tspan x="0" y="0">2020/01</tspan></text></g><g transform="translate(-139 -1065)"><text transform="translate(159 1069)" font-size="4" font-family="TsukuARdGothic-Regular, Tsukushi A Round Gothic"><tspan x="0" y="0">2020/02</tspan></text></g><g transform="translate(-119 -1065)"><text transform="translate(159 1069)" font-size="4" font-family="TsukuARdGothic-Regular, Tsukushi A Round Gothic"><tspan x="0" y="0">2020/03</tspan></text></g><g transform="translate(-99 -1065)"><text transform="translate(159 1069)" font-size="4" font-family="TsukuARdGothic-Regular, Tsukushi A Round Gothic"><tspan x="0" y="0">2020/04</tspan></text></g><g transform="translate(-79 -1065)"><text transform="translate(159 1069)" font-size="4" font-family="TsukuARdGothic-Regular, Tsukushi A Round Gothic"><tspan x="0" y="0">2020/05</tspan></text></g></g><g transform="translate(983 3060.981)" clip-path="url(#c)"><g transform="translate(-159 -1065)"><text transform="translate(159 1069)" font-size="4" font-family="TsukuARdGothic-Regular, Tsukushi A Round Gothic"><tspan x="0" y="0">2020/01</tspan></text></g><g transform="translate(-139 -1065)"><text transform="translate(159 1069)" font-size="4" font-family="TsukuARdGothic-Regular, Tsukushi A Round Gothic"><tspan x="0" y="0">2020/02</tspan></text></g><g transform="translate(-119 -1065)"><text transform="translate(159 1069)" font-size="4" font-family="TsukuARdGothic-Regular, Tsukushi A Round Gothic"><tspan x="0" y="0">2020/03</tspan></text></g><g transform="translate(-99 -1065)"><text transform="translate(159 1069)" font-size="4" font-family="TsukuARdGothic-Regular, Tsukushi A Round Gothic"><tspan x="0" y="0">2020/04</tspan></text></g><g transform="translate(-79 -1065)"><text transform="translate(159 1069)" font-size="4" font-family="TsukuARdGothic-Regular, Tsukushi A Round Gothic"><tspan x="0" y="0">2020/05</tspan></text></g></g><g transform="translate(973 2988.988)" clip-path="url(#e)"><g transform="translate(-372 -938)"><text transform="translate(372 942)" font-size="4" font-family="TsukuARdGothic-Regular, Tsukushi A Round Gothic"><tspan x="0" y="0">11h</tspan></text></g><g transform="translate(-372 -927)"><text transform="translate(372 942)" font-size="4" font-family="TsukuARdGothic-Regular, Tsukushi A Round Gothic"><tspan x="0" y="0">10h</tspan></text></g><g transform="translate(-372 -916)"><text transform="translate(372 942)" font-size="4" font-family="TsukuARdGothic-Regular, Tsukushi A Round Gothic"><tspan x="0" y="0">9h</tspan></text></g><g transform="translate(-372 -905)"><text transform="translate(372 942)" font-size="4" font-family="TsukuARdGothic-Regular, Tsukushi A Round Gothic"><tspan x="0" y="0">8h</tspan></text></g><g transform="translate(-372 -894)"><text transform="translate(372 942)" font-size="4" font-family="TsukuARdGothic-Regular, Tsukushi A Round Gothic"><tspan x="0" y="0">7h</tspan></text></g><g transform="translate(-372 -883)"><text transform="translate(372 942)" font-size="4" font-family="TsukuARdGothic-Regular, Tsukushi A Round Gothic"><tspan x="0" y="0">6h</tspan></text></g><g transform="translate(-372 -872)"><text transform="translate(372 942)" font-size="4" font-family="TsukuARdGothic-Regular, Tsukushi A Round Gothic"><tspan x="0" y="0">5h</tspan></text></g></g><g transform="translate(844 2989.988)" clip-path="url(#e)"><g transform="translate(-372 -938)"><text transform="translate(372 942)" font-size="4" font-family="TsukuARdGothic-Regular, Tsukushi A Round Gothic"><tspan x="0" y="0">11h</tspan></text></g><g transform="translate(-372 -927)"><text transform="translate(372 942)" font-size="4" font-family="TsukuARdGothic-Regular, Tsukushi A Round Gothic"><tspan x="0" y="0">10h</tspan></text></g><g transform="translate(-372 -916)"><text transform="translate(372 942)" font-size="4" font-family="TsukuARdGothic-Regular, Tsukushi A Round Gothic"><tspan x="0" y="0">9h</tspan></text></g><g transform="translate(-372 -905)"><text transform="translate(372 942)" font-size="4" font-family="TsukuARdGothic-Regular, Tsukushi A Round Gothic"><tspan x="0" y="0">8h</tspan></text></g><g transform="translate(-372 -894)"><text transform="translate(372 942)" font-size="4" font-family="TsukuARdGothic-Regular, Tsukushi A Round Gothic"><tspan x="0" y="0">7h</tspan></text></g><g transform="translate(-372 -883)"><text transform="translate(372 942)" font-size="4" font-family="TsukuARdGothic-Regular, Tsukushi A Round Gothic"><tspan x="0" y="0">6h</tspan></text></g><g transform="translate(-372 -872)"><text transform="translate(372 942)" font-size="4" font-family="TsukuARdGothic-Regular, Tsukushi A Round Gothic"><tspan x="0" y="0">5h</tspan></text></g></g><g transform="translate(929 3083.964)"><g fill="#fff" stroke="#d1d1d1" stroke-width="1"><path d="M5,0H69a5,5,0,0,1,5,5V82a0,0,0,0,1,0,0H0a0,0,0,0,1,0,0V5A5,5,0,0,1,5,0Z" stroke="none"/><path d="M5,.5H69A4.5,4.5,0,0,1,73.5,5V81a.5.5,0,0,1-.5.5H1A.5.5,0,0,1,.5,81V5A4.5,4.5,0,0,1,5,.5Z" fill="none"/></g><g transform="translate(4 7)"><g fill="#fff" stroke="#e5e5e5" stroke-width="0.5"><rect width="67" height="19" stroke="none"/><rect x="0.25" y="0.25" width="66.5" height="18.5" fill="none"/></g><g transform="translate(2.999 3)"><text font-size="4" font-family="TsukuARdGothic-Regular, Tsukushi A Round Gothic"><tspan x="0" y="4">ここには学習内容が入ります。こ</tspan><tspan x="0" y="9">こには学習内容が入ります。</tspan></text><text transform="translate(1 13)" font-size="2" font-family="TsukuARdGothic-Regular, Tsukushi A Round Gothic"><tspan x="0" y="0">2021/01/01</tspan></text></g></g><g transform="translate(4 28)" fill="#fff" stroke="#e5e5e5" stroke-width="0.5"><rect width="67" height="19" stroke="none"/><rect x="0.25" y="0.25" width="66.5" height="18.5" fill="none"/></g><text transform="translate(7 31)" font-size="4" font-family="TsukuARdGothic-Regular, Tsukushi A Round Gothic"><tspan x="0" y="4">ここには学習内容が入ります。こ</tspan><tspan x="0" y="9">こには学習内容が入ります。</tspan></text><text transform="translate(8 44)" font-size="2" font-family="TsukuARdGothic-Regular, Tsukushi A Round Gothic"><tspan x="0" y="0">2021/01/01</tspan></text><g transform="translate(4 49)" fill="#fff" stroke="#e5e5e5" stroke-width="0.5"><rect width="67" height="19" stroke="none"/><rect x="0.25" y="0.25" width="66.5" height="18.5" fill="none"/></g><text transform="translate(7 52)" font-size="4" font-family="TsukuARdGothic-Regular, Tsukushi A Round Gothic"><tspan x="0" y="4">ここには学習内容が入ります。こ</tspan><tspan x="0" y="9">こには学習内容が入ります。</tspan></text><text transform="translate(8 65)" font-size="2" font-family="TsukuARdGothic-Regular, Tsukushi A Round Gothic"><tspan x="0" y="0">2021/01/01</tspan></text></g><text transform="translate(780 2957)" fill="#e37ab0" font-size="5" font-family="TsukuARdGothic-Bold, Tsukushi A Round Gothic" font-weight="700"><tspan x="0" y="0">Learn</tspan></text><g transform="translate(774 2953.45)"><g transform="translate(0 -0.45)" fill="#e37ab0" stroke="#e37ab0" stroke-width="1"><rect width="5" height="5" rx="1" stroke="none"/><rect x="0.5" y="0.5" width="4" height="4" rx="0.5" fill="none"/></g><path d="M9765.436-1463.315c-.14.15-1.119,2.31-.416,2.623a6.553,6.553,0,0,0,3.034.045c.088-.16.156-.439-.044-.453a13.282,13.282,0,0,1-2.146.268c-.207-.056-.716-.41-.076-1,.559-.513,2.265-1.26,2.223-1.385a2.162,2.162,0,0,0-1.672-.5A1.6,1.6,0,0,0,9765.436-1463.315Z" transform="translate(-9763.932 1464.29)" fill="#fff"/></g><path d="M5,0H108a5,5,0,0,1,5,5v8a0,0,0,0,1,0,0H0a0,0,0,0,1,0,0V5A5,5,0,0,1,5,0Z" transform="translate(975 3152.964)" fill="#e37ab0"/><g transform="translate(990.371 3155.64)"><text transform="translate(8.629 4.324)" fill="#fff" font-size="3" font-family="TsukuARdGothic-Bold, Tsukushi A Round Gothic" font-weight="700"><tspan x="0" y="0">何かお困りではありませんか?</tspan></text><g transform="translate(0)"><path d="M0,0H7.664V7.664H0Z" fill="none"/><ellipse cx="2.5" cy="2" rx="2.5" ry="2" transform="translate(0.629 1.324)" fill="none" stroke="#fff" stroke-linecap="round" stroke-linejoin="round" stroke-width="1"/><path d="M16.916,16.916,15,15" transform="translate(-9.65 -10.21)" fill="none" stroke="#fff" stroke-linecap="round" stroke-linejoin="round" stroke-width="1"/><line y2="0.003" transform="translate(3.193 4.151)" fill="none" stroke="#fff" stroke-linecap="round" stroke-linejoin="round" stroke-width="1"/><path d="M9.224,7.958a.479.479,0,1,0-.364-.79" transform="translate(-6.031 -4.765)" fill="none" stroke="#fff" stroke-linecap="round" stroke-linejoin="round" stroke-width="1"/></g></g></g></svg>