<svg xmlns="http://www.w3.org/2000/svg" width="300" height="300.138" viewBox="0 0 300 300.138"><g transform="translate(-11654 -739.862)"><path d="M0,0H300V300H0Z" transform="translate(11654 740)" fill="none"/><g transform="translate(11626.425 703.332)"><g transform="translate(27.576 42.999)"><path d="M121.6,63.417s-51.03,26-76.481,66.056a110.569,110.569,0,0,0,7.489,129.848c30.927,38.254,90.039,33.23,139.533,57.462s104.1,19.242,127.5-32.1S307.763,214.157,301.7,154.742,242.078,8.325,121.6,63.417Z" transform="translate(-27.576 -45.877)" fill="#e37ab0"/><path d="M121.6,63.417s-51.03,26-76.481,66.056a110.569,110.569,0,0,0,7.489,129.848c30.927,38.254,90.039,33.23,139.533,57.462s104.1,19.242,127.5-32.1S307.763,214.157,301.7,154.742,242.078,8.325,121.6,63.417Z" transform="translate(-27.576 -45.877)" fill="#fff" opacity="0.7"/></g><g transform="translate(84.329 89.346)"><path d="M120.006,375.3c2.02-.673,5.6-3.967,5.6-3.974s-2.883-1.677-3.078-1.758c-2.27-.956-7.22-1.468-9.018.626a3.273,3.273,0,0,0,.768,4.782C115.871,376.107,118.255,375.864,120.006,375.3Z" transform="translate(-112.156 -197.641)" fill="#9c9c9c"/><path d="M173.209,327.592c.047,0-1.482-2.984-1.6-3.165-1.347-2.02-5.213-5.206-7.866-4.452a3.273,3.273,0,0,0-2.02,4.425c.721,1.8,2.842,2.923,4.62,3.415C168.427,328.394,173.2,327.6,173.209,327.592Z" transform="translate(-128.04 -181.683)" fill="#9c9c9c"/><path d="M130.261,361.161c1.738-1.138,4.135-4.943,4.324-5.246a57.588,57.588,0,0,0,6.775,3.677c1.347.633,2.748,1.232,4.149,1.812-.673-.175-1.286-.317-1.347-.33-2.445-.323-7.354.492-8.533,2.984a3.266,3.266,0,0,0,2.02,4.432c1.832.673,4.041-.209,5.61-1.219s3.671-4.236,4.216-5.092l1.616.673c2.593,1.03,5.179,2.02,7.691,3.125.882.377,1.738.788,2.6,1.185-.606-.148-1.111-.269-1.192-.276-2.445-.323-7.348.492-8.533,2.984a3.26,3.26,0,0,0,2.02,4.425c1.839.674,4.075-.209,5.61-1.219s3.462-3.92,4.122-4.93c.862.438,1.731.876,2.553,1.347.552.33,1.111.606,1.65.97l1.6,1.03c.99.673,2.02,1.4,2.977,2.1.673.485,1.293.956,1.926,1.428-.876-.384-2.606-1.111-2.761-1.152-2.364-.673-7.341-.626-8.883,1.657a3.26,3.26,0,0,0,1.307,4.681c1.711.923,4.041.411,5.731-.357,1.839-.842,4.714-4.095,5.038-4.506,1.044.788,2.054,1.562,2.99,2.31,2.734,2.162,5.011,4.108,6.735,5.63l1.347-1.226c-1.8-1.522-4.216-3.5-7.119-5.7-1.057-.8-2.2-1.643-3.367-2.492a35.878,35.878,0,0,0,1.643-3.832c2.068.209,5.96-.862,6.465-1,.438,1.232.849,2.438,1.219,3.576,1.064,3.253,1.879,6.061,2.478,8.291l1.509-1.347c-.626-2.081-1.435-4.62-2.438-7.482-.438-1.253-.929-2.579-1.455-3.94.465-.263,4.209-2.445,5.388-4.088,1.071-1.5,2.02-3.7,1.441-5.563a3.273,3.273,0,0,0-4.344-2.175c-2.539,1.084-3.549,5.954-3.327,8.405,0,.148.337,1.7.552,2.694-.216-.559-.418-1.1-.673-1.664-.445-1.131-.923-2.243-1.428-3.441-.269-.572-.532-1.145-.808-1.724s-.6-1.165-.9-1.758c-.721-1.347-1.522-2.694-2.364-4.041.99-.391,4.472-1.832,5.765-3.152s2.559-3.367,2.263-5.273a3.26,3.26,0,0,0-3.96-2.808c-2.694.673-4.411,5.348-4.56,7.806,0,.148.081,1.926.148,2.9-.512-.795-1.017-1.589-1.556-2.377-1.562-2.27-3.219-4.519-4.856-6.769-.505-.673-1-1.381-1.488-2.074.35-.135,4.526-1.758,5.974-3.233,1.286-1.347,2.559-3.367,2.27-5.28a3.266,3.266,0,0,0-3.967-2.808c-2.694.673-4.411,5.348-4.56,7.806,0,.189.121,2.741.189,3.367-1.091-1.529-2.162-3.058-3.159-4.607a56.327,56.327,0,0,1-3.65-6.5c.162-.061,4.526-1.738,6.007-3.253,1.286-1.347,2.559-3.367,2.27-5.273a3.26,3.26,0,0,0-3.96-2.808c-2.694.673-4.411,5.347-4.559,7.806,0,.162.088,2.108.155,3.031l-.148.04a41.577,41.577,0,0,1-2.438-7.092c-.343-1.347-.6-2.633-.822-3.893.842-.229,4.714-1.313,6.183-2.532s2.909-3.051,2.835-5a3.273,3.273,0,0,0-3.637-3.226c-2.728.384-4.97,4.829-5.388,7.26,0,.128-.108,1.5-.155,2.492-.088-.572-.2-1.158-.269-1.711-.29-2.068-.431-3.974-.546-5.664-.054-.963-.081-1.839-.1-2.654.707-.673,3.549-3.367,4.29-5.071s1.179-4.041.216-5.738a3.266,3.266,0,0,0-4.714-1.192c-2.249,1.6-2.189,6.58-1.441,8.93.067.2,1.435,3.26,1.475,3.226l.04-.04c0,.781,0,1.623.054,2.546.074,1.7.168,3.617.418,5.7a58.11,58.11,0,0,0,1.118,6.668,42.134,42.134,0,0,0,2.3,7.213l.04.081c-.525-.613-2.054-2.276-2.189-2.391-1.859-1.616-6.4-3.644-8.755-2.216a3.26,3.26,0,0,0-.775,4.8c1.172,1.556,3.509,2.074,5.354,2.081,2.074,0,6.169-1.852,6.5-2.02a57.772,57.772,0,0,0,3.623,6.809c.781,1.273,1.61,2.539,2.458,3.792-.471-.512-.9-.97-.963-1.03-1.859-1.61-6.4-3.644-8.755-2.216a3.26,3.26,0,0,0-.775,4.8c1.165,1.563,3.509,2.074,5.354,2.081s5.388-1.509,6.317-1.919c.33.478.673.963.99,1.441,1.589,2.283,3.186,4.566,4.714,6.843.532.808,1.024,1.616,1.515,2.425-.418-.458-.775-.835-.835-.889-1.859-1.616-6.4-3.644-8.755-2.216a3.26,3.26,0,0,0-.768,4.8c1.165,1.556,3.509,2.074,5.347,2.081s5.051-1.347,6.156-1.845c.485.842.97,1.684,1.394,2.526.283.579.593,1.118.835,1.717s.519,1.172.768,1.744c.451,1.131.916,2.29,1.347,3.4.29.768.552,1.509.815,2.249-.512-.808-1.562-2.364-1.664-2.485a12.648,12.648,0,0,0-5.388-3.475,3.674,3.674,0,0,0-.512-.512,3.266,3.266,0,0,0-4.822.579c-1.522,2.3.323,6.923,1.866,8.85.088.114,1.212,1.232,1.933,1.926l-1.522-.99c-.99-.673-2.02-1.347-3.085-2.081l-1.623-1c-.539-.344-1.145-.64-1.724-.963-1.347-.727-2.755-1.4-4.182-2.02.606-.869,2.694-3.987,3.064-5.805s.283-4.2-1.017-5.651a3.266,3.266,0,0,0-4.856-.155c-1.852,2.02-.727,6.89.5,9.025.081.135,1.131,1.563,1.731,2.337-.862-.377-1.724-.761-2.606-1.118-2.559-1.03-5.179-2.021-7.786-2.97-.8-.3-1.6-.606-2.391-.909.222-.3,2.808-3.96,3.2-5.994.35-1.8.29-4.2-1.017-5.651a3.266,3.266,0,0,0-4.856-.155c-1.852,2.02-.727,6.89.505,9.025.088.162,1.61,2.216,2.02,2.694-1.751-.673-3.489-1.347-5.179-2.095a56.231,56.231,0,0,1-6.627-3.408c.1-.141,2.822-3.947,3.219-6.028.343-1.8.283-4.2-1.017-5.651a3.266,3.266,0,0,0-4.856-.155c-1.852,2.02-.727,6.89.5,9.025.081.141,1.239,1.711,1.812,2.445l-.108.115a41.944,41.944,0,0,1-5.94-4.573c-1.03-.923-1.96-1.859-2.842-2.795.579-.673,3.192-3.684,3.765-5.523s.741-4.149-.391-5.725a3.273,3.273,0,0,0-4.815-.673c-2.061,1.832-1.475,6.775-.492,9.031.054.121.741,1.307,1.253,2.162-.391-.424-.8-.855-1.172-1.273-1.347-1.563-2.553-3.078-3.576-4.432-.579-.775-1.084-1.482-1.556-2.148.236-.943,1.125-4.748.788-6.6s-1.253-4.041-2.99-4.9a3.26,3.26,0,0,0-4.58,1.6c-.99,2.573,1.8,6.688,3.718,8.237.168.135,3,1.926,3.01,1.879a.432.432,0,0,0,0-.061c.438.673.916,1.347,1.448,2.1,1,1.347,2.142,2.923,3.5,4.519a58.937,58.937,0,0,0,4.613,4.95,42.866,42.866,0,0,0,5.893,4.714l.081.047c-.775-.222-2.97-.768-3.145-.788-2.445-.323-7.348.492-8.533,2.984a3.266,3.266,0,0,0,2.02,4.432C126.49,363.033,128.726,362.178,130.261,361.161Z" transform="translate(-111.844 -174.135)" fill="#9c9c9c"/><path d="M325.49,133.8c1.441,2.411,6.634,5.947,6.641,5.947s1.293-4.128,1.347-4.4c.552-3.145-.229-9.557-3.367-11.227a4.236,4.236,0,0,0-5.853,2.344C323.281,128.806,324.264,131.755,325.49,133.8Z" transform="translate(-181.07 -117.628)" fill="#9c9c9c"/><path d="M400.794,187.358c0,.061,3.367-2.734,3.549-2.936,2.2-2.324,5.085-8.082,3.367-11.241a4.236,4.236,0,0,0-6.176-1.273c-2.081,1.435-2.883,4.438-3,6.822C398.41,181.532,400.794,187.351,400.794,187.358Z" transform="translate(-205.451 -133.104)" fill="#9c9c9c"/><path d="M305.809,146.944c1.946,1.866,7.456,3.805,7.893,3.953a75.085,75.085,0,0,0-2.694,9.638c-.411,1.9-.768,3.832-1.1,5.772v-1.839c-.3-3.179-2.741-9.159-6.236-9.934a4.236,4.236,0,0,0-5.031,3.805c-.3,2.512,1.441,5.1,3.165,6.735s6.412,3.428,7.651,3.873c-.121.741-.249,1.488-.364,2.229-.559,3.576-1.1,7.146-1.738,10.634-.222,1.226-.492,2.431-.754,3.637v-1.589c-.3-3.186-2.741-9.159-6.237-9.941a4.236,4.236,0,0,0-5.024,3.812c-.3,2.505,1.435,5.092,3.159,6.735s5.96,3.246,7.408,3.785c-.3,1.226-.606,2.451-.956,3.623-.263.795-.451,1.576-.754,2.364l-.849,2.324c-.586,1.455-1.185,2.963-1.8,4.378-.418.977-.835,1.906-1.253,2.842.236-1.219.673-3.617.673-3.819.189-3.192-1.347-9.469-4.661-10.776a4.236,4.236,0,0,0-5.549,3c-.673,2.431.673,5.253,2.1,7.146,1.6,2.088,6.54,4.755,7.159,5.085-.673,1.542-1.387,3.044-2.061,4.445-1.953,4.088-3.758,7.523-5.186,10.156l1.946,1.387c1.414-2.694,3.219-6.338,5.159-10.648.714-1.569,1.448-3.26,2.182-5a44.607,44.607,0,0,0,5.321.977c.337,2.694,2.808,7.3,3.132,7.893-1.435.909-2.835,1.778-4.176,2.573-3.805,2.29-7.152,4.135-9.772,5.529l2.121,1.515c2.458-1.387,5.435-3.138,8.755-5.233,1.461-.916,3-1.926,4.573-2.977.465.512,4.3,4.62,6.735,5.644,2.2.923,5.26,1.5,7.449.222a4.229,4.229,0,0,0,1.5-6.122c-2.1-2.9-8.553-2.775-11.6-1.785-.175.061-2.054.909-3.226,1.468.64-.431,1.266-.849,1.919-1.3,1.3-.889,2.573-1.812,3.94-2.795l1.953-1.515c.673-.5,1.3-1.1,1.96-1.65q2.253-1.96,4.4-4.149c.781,1.131,3.61,5.125,5.651,6.378s4.977,2.276,7.328,1.347a4.236,4.236,0,0,0,2.418-5.826c-1.637-3.186-8.041-4.041-11.193-3.522-.2.034-2.418.673-3.63,1.024.855-.869,1.717-1.738,2.553-2.654,2.425-2.627,4.8-5.388,7.166-8.082.727-.835,1.468-1.657,2.2-2.478.276.4,3.529,5.22,5.819,6.627,2.02,1.246,4.977,2.276,7.334,1.347a4.236,4.236,0,0,0,2.411-5.826c-1.637-3.186-8.041-4.041-11.193-3.522-.236.034-3.435.943-4.236,1.212,1.616-1.818,3.239-3.617,4.916-5.327a74.755,74.755,0,0,1,7.173-6.492c.128.189,3.5,5.233,5.846,6.674,2.02,1.246,4.977,2.27,7.334,1.347a4.236,4.236,0,0,0,2.411-5.826c-1.637-3.186-8.041-4.041-11.193-3.516-.209,0-2.64.721-3.792,1.071l-.094-.182a54.816,54.816,0,0,1,8.277-5.125c1.589-.822,3.152-1.515,4.714-2.162.532,1,3.017,5.563,4.984,7.092s4.714,2.808,7.139,2.148a4.236,4.236,0,0,0,3.037-5.523c-1.28-3.367-7.543-4.9-10.735-4.714-.175,0-1.933.3-3.206.525.673-.276,1.414-.579,2.088-.835,2.532-.963,4.9-1.69,7.018-2.317,1.2-.35,2.3-.673,3.32-.9,1.037.714,5.246,3.536,7.658,3.974s5.462.33,7.321-1.381a4.236,4.236,0,0,0,.148-6.3c-2.694-2.377-8.951-.869-11.705.748-.242.141-3.711,2.761-3.657,2.8l.061.04c-.99.229-2.054.492-3.213.795-2.121.586-4.526,1.266-7.085,2.175a76.137,76.137,0,0,0-8.122,3.367,55.772,55.772,0,0,0-8.466,4.984l-.088.074c.62-.842,2.29-3.253,2.4-3.455,1.509-2.822,2.768-9.153.283-11.732a4.25,4.25,0,0,0-6.3.4c-1.63,1.933-1.61,5.044-1.084,7.375.593,2.627,4.115,7.28,4.4,7.651a75.1,75.1,0,0,0-7.57,6.546c-1.394,1.347-2.748,2.775-4.095,4.209.519-.748.97-1.421,1.024-1.522,1.509-2.815,2.768-9.153.283-11.725a4.23,4.23,0,0,0-6.29.4c-1.637,1.926-1.616,5.038-1.091,7.368s3.462,6.4,4.25,7.449l-1.536,1.664c-2.438,2.694-4.856,5.354-7.314,7.907-.862.9-1.751,1.758-2.633,2.62.458-.673.842-1.226.889-1.347,1.509-2.815,2.768-9.153.283-11.725a4.243,4.243,0,0,0-6.3.4c-1.63,1.933-1.61,5.044-1.084,7.375s3.172,6,4.108,7.26c-.929.849-1.859,1.7-2.8,2.492-.673.519-1.246,1.064-1.933,1.556l-1.987,1.468c-1.293.9-2.627,1.818-3.913,2.66-.9.586-1.751,1.131-2.62,1.684.876-.889,2.546-2.66,2.694-2.822a16.487,16.487,0,0,0,2.856-7.8,5.084,5.084,0,0,0,.5-.795,4.243,4.243,0,0,0-2.128-5.94c-3.367-1.259-8.668,2.4-10.655,4.91-.121.148-1.212,1.892-1.886,3,.3-.714.593-1.4.889-2.142.593-1.455,1.145-2.923,1.738-4.506.263-.775.532-1.556.795-2.344s.478-1.63.727-2.451c.532-1.926.977-3.893,1.381-5.893,1.273.519,5.832,2.29,8.23,2.209s5.388-.849,6.863-2.916a4.236,4.236,0,0,0-1.206-6.189c-3.118-1.758-8.93,1.064-11.274,3.233-.148.141-1.657,1.886-2.465,2.862.229-1.2.471-2.4.673-3.623.566-3.536,1.03-7.125,1.515-10.708.141-1.1.3-2.189.458-3.28.451.189,5.826,2.411,8.513,2.317,2.384-.081,5.388-.849,6.856-2.916a4.236,4.236,0,0,0-1.2-6.189c-3.125-1.751-8.937,1.064-11.281,3.239-.175.162-2.344,2.694-2.862,3.367.344-2.4.674-4.8,1.158-7.152a75.431,75.431,0,0,1,2.418-9.382c.209.088,5.805,2.438,8.56,2.344,2.384-.088,5.388-.849,6.856-2.916a4.243,4.243,0,0,0-1.2-6.2c-3.125-1.751-8.93,1.064-11.281,3.239-.155.141-1.8,2.061-2.573,2.99l-.175-.1a54.334,54.334,0,0,1,4.041-8.836c.876-1.562,1.792-3.01,2.694-4.4,1,.546,5.583,2.977,8.082,3.172,2.384.175,5.462-.256,7.139-2.148a4.236,4.236,0,0,0-.519-6.284c-2.909-2.088-8.991.074-11.564,1.98-.135.1-1.441,1.307-2.377,2.2.424-.62.855-1.266,1.28-1.852,1.576-2.2,3.159-4.115,4.566-5.805.815-.95,1.569-1.8,2.276-2.579,1.259,0,6.331.054,8.58-.909s4.714-2.741,5.347-5.193a4.236,4.236,0,0,0-3.367-5.341c-3.543-.512-7.947,4.216-9.355,7.085-.121.249-1.569,4.351-1.509,4.351h.081c-.673.741-1.448,1.542-2.243,2.438-1.448,1.657-3.078,3.549-4.714,5.718a75.693,75.693,0,0,0-4.937,7.267,55.4,55.4,0,0,0-4.3,8.829l-.04.114c.061-1.051.115-3.98.094-4.209-.3-3.186-2.741-9.159-6.236-9.934a4.236,4.236,0,0,0-5.024,3.805C302.354,142.708,304.085,145.294,305.809,146.944Z" transform="translate(-170.205 -114.693)" fill="#9c9c9c"/></g><g transform="translate(50.773 49.891)"><path d="M367.8,319.535v-2.256c0-11.618,14.709-12.123,14.709-20.393,0-3.59-2.923-5.933-7.274-5.933-4.762,0-7.772,2.593-7.772,6.27v.923c0,.916-.5,1.347-1.421,1.347l-8.937-.337c-.835,0-1.421-.417-1.421-1v-.923c0-10.1,8.021-17.046,19.807-17.046,11.53,0,18.965,6.519,18.965,16.292,0,13.874-14.958,13.961-14.958,21.552v1.5a1.28,1.28,0,0,1-1.421,1.421h-8.856a1.28,1.28,0,0,1-1.421-1.421ZM367.042,333a7.161,7.161,0,0,1,14.291,0c0,3.677-3.367,6.688-7.186,6.688a7,7,0,0,1-7.105-6.7Z" transform="translate(-157.904 -129.275)" fill="#263238"/><path d="M106.389,179.93v-1.96c0-10.1,12.8-10.527,12.8-17.713,0-3.125-2.539-5.152-6.311-5.152-4.142,0-6.735,2.249-6.735,5.442v.8c0,.795-.431,1.158-1.232,1.158l-7.765-.29c-.727,0-1.232-.364-1.232-.869v-.8c0-8.755,6.964-14.817,17.2-14.817,10.015,0,16.48,5.664,16.48,14.143,0,12.049-13,12.123-13,18.73v1.307a1.111,1.111,0,0,1-1.232,1.232h-7.738a1.111,1.111,0,0,1-1.232-1.212Zm-.673,11.685a6.22,6.22,0,1,1,6.169,5.805,6,6,0,0,1-6.149-5.805Z" transform="translate(-73.086 -85.372)" fill="#e37ab0"/><path d="M350.251,73.385v-.99c0-5.1,6.452-5.321,6.452-8.951,0-1.576-1.286-2.606-3.192-2.606-2.088,0-3.408,1.138-3.408,2.755V64c0,.4-.222.586-.626.586l-3.92-.148c-.37,0-.626-.182-.626-.438v-.4c0-4.438,3.522-7.482,8.695-7.482,5.058,0,8.324,2.862,8.324,7.152,0,6.061-6.566,6.122-6.566,9.429v.673a.559.559,0,0,1-.626.62H350.87a.552.552,0,0,1-.62-.6Zm-.33,5.906a3.145,3.145,0,1,1,3.138,2.93,3.031,3.031,0,0,1-3.138-2.93Z" transform="translate(-154.394 -56.11)" fill="#e37ab0"/><path d="M68.741,273.447V272.2c0-6.425,8.136-6.7,8.136-11.281,0-1.987-1.616-3.28-4.041-3.28-2.633,0-4.3,1.435-4.3,3.468v.505c0,.512-.276.741-.788.741l-4.943-.182c-.465,0-.788-.236-.788-.559v-.505c0-5.59,4.438-9.429,10.958-9.429,6.378,0,10.486,3.6,10.486,9.011,0,7.671-8.27,7.718-8.27,11.927v.828a.707.707,0,0,1-.788.788h-4.89a.707.707,0,0,1-.775-.788Zm-.418,7.442a3.96,3.96,0,1,1,3.933,3.7,3.825,3.825,0,0,1-3.947-3.7Z" transform="translate(-62.02 -119.966)" fill="none" stroke="#263238" stroke-miterlimit="10" stroke-width="1"/><path d="M161.783,104.122v-.855c0-4.418,5.6-4.613,5.6-7.759,0-1.347-1.111-2.256-2.768-2.256-1.812,0-2.957.983-2.957,2.384v.35c0,.35-.189.505-.539.505l-3.367-.128c-.317,0-.539-.155-.539-.377v-.35c0-3.846,3.051-6.486,7.53-6.486s7.146,2.478,7.146,6.2c0,5.28-5.691,5.314-5.691,8.2v.572a.485.485,0,0,1-.539.539h-3.367a.485.485,0,0,1-.505-.539Zm-.283,5.118a2.694,2.694,0,1,1,2.694,2.546,2.627,2.627,0,0,1-2.714-2.532Z" transform="translate(-93.101 -66.898)" fill="#263238"/><path d="M309.783,378.272v-.855c0-4.418,5.6-4.607,5.6-7.759,0-1.347-1.111-2.256-2.768-2.256-1.812,0-2.957.983-2.957,2.384v.35c0,.35-.189.512-.539.512l-3.367-.128c-.317,0-.539-.162-.539-.384v-.35c0-3.846,3.051-6.486,7.53-6.486s7.22,2.478,7.22,6.2c0,5.273-5.691,5.307-5.691,8.2v.572a.492.492,0,0,1-.539.545h-3.367a.492.492,0,0,1-.579-.545Zm-.283,5.119a2.694,2.694,0,1,1,2.694,2.546,2.627,2.627,0,0,1-2.687-2.546Z" transform="translate(-141.425 -156.411)" fill="none" stroke="#263238" stroke-miterlimit="10" stroke-width="1"/></g><g transform="translate(118.365 137.889)"><path d="M253.021,398.723c-.047-.141-.094-.283-.148-.424s-.094-.29-.148-.431-.094-.283-.148-.424-.094-.29-.148-.431-.094-.283-.148-.424-.094-.29-.148-.431l-.148-.424c-.047-.148-.1-.29-.148-.431l-.148-.424c-.047-.148-.1-.29-.148-.431l-.148-.424c-.047-.148-.1-.29-.148-.431l-.141-.451c-.047-.148-.1-.29-.148-.431l-.155-.424c-.047-.148-.094-.29-.148-.431s-.094-.283-.148-.424-.094-.29-.148-.431-.094-.283-.148-.424a17.7,17.7,0,0,0-32.617-1.428c-.067.135-.128.276-.189.411l-.182.418c-.067.135-.128.269-.189.411s-.128.276-.189.411l-.182.411c-.067.141-.128.276-.189.418s-.128.269-.189.411-.128.269-.189.411l-.182.411c-.067.135-.128.276-.189.411s-.128.276-.189.411l-.182.418c-.067.135-.128.269-.189.411s-.128.276-.189.411l-.182.411c-.067.141-.128.276-.189.418s-.128.269-.189.411l-.182.411c-.067.135-.128.276-.189.411s-.128.276-.189.418a18.326,18.326,0,0,0-1.738,7.867c0,10.843,9.361,19.706,20.939,19.706,11.328,0,21.181-8.863,21.181-19.706a17.794,17.794,0,0,0-1.071-6.061A3.716,3.716,0,0,0,253.021,398.723Z" transform="translate(-178.621 -249.532)" fill="#263238"/><path d="M220.758,186.8c-34.732,0-58.378,20.44-58.378,50.249v2.694a2.586,2.586,0,0,0,1.28,2.2,3.308,3.308,0,0,0,.471.377,15478.989,15478.989,0,0,0,.956.754,2.693,2.693,0,0,0,.478.377,2.9,2.9,0,0,0,.471.377,2.984,2.984,0,0,0,.478.384,3.37,3.37,0,0,0,.478.377,3.034,3.034,0,0,0,.478.377,2.974,2.974,0,0,0,.471.377,3.132,3.132,0,0,0,.519.4,3.79,3.79,0,0,0,.438.344,3.367,3.367,0,0,0,.478.377,3.307,3.307,0,0,0,.471.377,3.37,3.37,0,0,0,.478.377,3.034,3.034,0,0,0,.478.377,2.972,2.972,0,0,0,.471.377,3.032,3.032,0,0,0,.478.377,2.972,2.972,0,0,0,.471.377,3.371,3.371,0,0,0,.478.377,2.972,2.972,0,0,0,.471.377,3.967,3.967,0,0,0,2.829.983l21.659.808c2.229,0,3.442-1.01,3.442-3.239v-2.223c0-8.91,7.287-15.18,18.858-15.18,10.527,0,17.612,5.664,17.612,14.372a15.567,15.567,0,0,1-.284,2.96c-10.869,14.248-39.163,20.531-39.163,48.191v6.654c0,2.694,1.475,4.182,4.189,4.182H228.4c2.694,0,4.189-1.475,4.189-4.182V298.37c0-22.414,44.093-22.663,44.093-63.55C276.678,206.008,254.749,186.8,220.758,186.8Z" transform="translate(-162.38 -186.78)" fill="#263238"/><path d="M198.1,302.812v-6.654c0-34.24,43.352-35.695,43.352-60.1,0-10.594-8.621-17.511-21.43-17.511-14.042,0-22.9,7.637-22.9,18.474v2.694c0,2.694-1.482,3.947-4.189,3.947l-26.36-.99c-2.458,0-4.182-1.232-4.182-2.957v-2.694c0-29.809,23.646-50.249,58.378-50.249,33.991,0,55.9,19.208,55.9,48.033,0,40.887-44.093,41.137-44.093,63.55v4.438c0,2.694-1.482,4.182-4.189,4.182h-26.1C199.573,306.994,198.1,305.519,198.1,302.812ZM195.883,342.5c0-10.836,9.6-19.706,21.181-19.706,11.086,0,20.939,8.87,20.939,19.706s-9.873,19.673-21.181,19.673C205.231,362.173,195.883,353.31,195.883,342.5Z" transform="translate(-162.383 -186.77)" fill="#e37ab0" stroke="#e37ab0" stroke-miterlimit="10" stroke-width="1"/><ellipse cx="36.779" cy="8.223" rx="36.779" ry="8.223" transform="translate(16.581 181.04)" fill="#263238"/></g><g transform="translate(134.03 37.063)"><path d="M195.224,190.85l-1.408,3.071s-8.176.882-8.176,1.5.088,4.836.532,5.011a1.448,1.448,0,0,0,1.051,0l12.042-3.078,1.145-5.449Z" transform="translate(-185.64 -87.276)" fill="#fff" stroke="#263238" stroke-linecap="round" stroke-linejoin="round" stroke-width="1"/><path d="M193.289,198.416a29.264,29.264,0,0,1-4.815,3.206c-1.946.876-2.02,2.2-1.4,2.2a64.93,64.93,0,0,0,6.115-2.3s4.991-1.307,5.711-1.7.8-2.606.8-2.606" transform="translate(-185.995 -89.353)" fill="#fff" stroke="#263238" stroke-linecap="round" stroke-linejoin="round" stroke-width="1"/><path d="M206.42,103.23,201.4,141.74l-3.5,20.851,7.759,1.832,5.785-24.663,2.741-15.524Z" transform="translate(-189.643 -58.667)" fill="#7d7d7d" stroke="#263238" stroke-linecap="round" stroke-linejoin="round" stroke-width="1"/><path d="M266.11,60.442l-3.064-.485-6.277-2.377-.229,7.456,9.732.9Z" transform="translate(-208.79 -43.762)" fill="#fff" stroke="#263238" stroke-linecap="round" stroke-linejoin="round" stroke-width="1"/><path d="M213.731,263.689a94.478,94.478,0,0,0-6.391,8.351c-2.593,3.96-1.677,8.217,1.522,9.287s7.3-1.832,8.371-4.115.761-3.5,2.431-5.779,3.044-4.566,2.438-7.61S215.375,261.56,213.731,263.689Z" transform="translate(-192.234 -110.445)" fill="#7d7d7d" stroke="#263238" stroke-linecap="round" stroke-linejoin="round" stroke-width="1"/><path d="M216.935,283.051c-.216-.458-.465-.943-.761-1.461-2.445-4.3-6.735-3.96-9.429-3.159-1.771,3.617-.761,7.213,2.142,8.183S215.534,285.213,216.935,283.051Z" transform="translate(-192.245 -115.711)" fill="#fff" stroke="#263238" stroke-linecap="round" stroke-linejoin="round" stroke-width="1"/><path d="M216.217,277.31c-.909,1.347-2.128,5.024-6.849,3.5A6.506,6.506,0,0,1,206,278.69a4.438,4.438,0,0,0,2.943,3.644c3.192,1.064,7.3-1.832,8.371-4.115s.761-3.5,2.431-5.779,3.044-4.566,2.438-7.61c0,3.65-1.347,4.256-3.044,6.237S217.133,275.936,216.217,277.31Z" transform="translate(-192.288 -111.432)" fill="#fff" stroke="#263238" stroke-linecap="round" stroke-linejoin="round" stroke-width="1"/><path d="M280.121,263.689a94.486,94.486,0,0,1,6.391,8.351c2.593,3.96,1.677,8.217-1.522,9.287s-7.3-1.832-8.371-4.115-.761-3.5-2.431-5.779-3.044-4.566-2.438-7.61S278.451,261.56,280.121,263.689Z" transform="translate(-213.708 -110.445)" fill="#7d7d7d" stroke="#263238" stroke-linecap="round" stroke-linejoin="round" stroke-width="1"/><path d="M279.52,283.051c.209-.458.458-.943.754-1.461,2.445-4.3,6.735-3.96,9.429-3.159,1.771,3.617.761,7.213-2.142,8.183S280.914,285.213,279.52,283.051Z" transform="translate(-216.293 -115.711)" fill="#fff" stroke="#263238" stroke-linecap="round" stroke-linejoin="round" stroke-width="1"/><path d="M277.676,277.31c.909,1.347,2.128,5.024,6.849,3.5a6.506,6.506,0,0,0,3.367-2.122,4.438,4.438,0,0,1-2.943,3.644c-3.192,1.064-7.3-1.832-8.371-4.115s-.761-3.5-2.431-5.779-3.044-4.566-2.438-7.61c0,3.65,1.347,4.256,3.044,6.237S276.76,275.936,277.676,277.31Z" transform="translate(-213.695 -111.432)" fill="#fff" stroke="#263238" stroke-linecap="round" stroke-linejoin="round" stroke-width="1"/><path d="M266.368,180.881c0-2.741-4.714-5.785-4.714-5.785-7.105-7.227-19.928-6.27-24.663-5.624-4.714-.673-17.551-1.6-24.656,5.624,0,0-4.714,3.044-4.714,5.785s5.94,52.209,5.94,52.209-.155,2.586,4.108,2.889,6.061-2.128,6.061-2.128l1.677-41.857s6.849-4.876,8.082-5.024c.444-.061,1.024-.155,1.67-.236v.081a8.958,8.958,0,0,1,3.657,0v-.081c.673.081,1.219.175,1.67.236,1.219.148,8.082,5.024,8.082,5.024l1.677,41.857s1.825,2.431,6.061,2.128,4.108-2.889,4.108-2.889S266.368,183.622,266.368,180.881Z" transform="translate(-192.817 -80.149)" fill="#263238" stroke="#263238" stroke-linecap="round" stroke-linejoin="round" stroke-width="1"/><path d="M268.372,196.414s-.916-10.048,3.5-13.854" transform="translate(-212.627 -84.569)" fill="none" stroke="#707070" stroke-linecap="round" stroke-linejoin="round" stroke-width="1"/><path d="M232.656,195.529s.458-8.371-.458-11.416a8.925,8.925,0,0,0-2.438-4.263" transform="translate(-200.046 -83.684)" fill="none" stroke="#707070" stroke-linecap="round" stroke-linejoin="round" stroke-width="1"/><path d="M242.42,173.52s4.869,5.63,5.785,10.351" transform="translate(-204.179 -81.618)" fill="none" stroke="#707070" stroke-linecap="round" stroke-linejoin="round" stroke-width="1"/><path d="M256.764,174s-2.741,3.044-3.044,5.327" transform="translate(-207.869 -81.774)" fill="none" stroke="#707070" stroke-linecap="round" stroke-linejoin="round" stroke-width="1"/><path d="M241.945,86s-4.411-.613-5.933.909-6.7,7.132-6.7,7.132l2.741,48.4s6.243,2.438,11.57,2.438,11.416-1.98,12.8-3.044.155-52.97.155-52.97S245.265,85.543,241.945,86Z" transform="translate(-199.899 -53.002)" fill="#e37ab0" stroke="#263238" stroke-linecap="round" stroke-linejoin="round" stroke-width="1"/><path d="M258.881,78.657a55.5,55.5,0,0,1,7-.613c3.044,0,6.061.155,6.061.155l7.61-7.307-15.315-3.5,1.219-7s11.261-.761,16.891.3,14.46,3.805,14.918,3.805,1.064,1.677.606,2.889-14.776,17.053-19.053,21.161a105,105,0,0,0-7.913,8.674l-1.953,33.944a53.968,53.968,0,0,1,5.94,3.65c.916.909,1.98,4.566,1.98,4.566s-9.287-3.805-11.725-4.108-3.953-.458-4.411-1.347-4.263-41.554-4.263-41.554l.155-12.938S256.6,78.657,258.881,78.657Z" transform="translate(-208.767 -44.594)" fill="#7d7d7d" stroke="#263238" stroke-linecap="round" stroke-linejoin="round" stroke-width="1"/><path d="M269.623,118.6l-8.223,1.064.761,3.044,4.115,1.064,3.953-1.825Z" transform="translate(-210.377 -63.686)" fill="none" stroke="#263238" stroke-linecap="round" stroke-linejoin="round" stroke-width="1"/><path d="M279.725,91.48,277.9,107.462l4.721-13.544" transform="translate(-215.764 -54.831)" fill="none" stroke="#263238" stroke-linecap="round" stroke-linejoin="round" stroke-width="1"/><path d="M290.78,75.372s3.805.761,9.59-1.522" transform="translate(-219.97 -49.074)" fill="none" stroke="#263238" stroke-linecap="round" stroke-linejoin="round" stroke-width="1"/><path d="M296.66,77.4a34.4,34.4,0,0,0,7.456-.606" transform="translate(-221.889 -50.034)" fill="none" stroke="#263238" stroke-linecap="round" stroke-linejoin="round" stroke-width="1"/><path d="M240.39,85.83l.761,11.113a7.321,7.321,0,0,0,5.933,2.889c3.805-.148,4.263-2.889,4.263-2.889V87.81Z" transform="translate(-203.517 -52.986)" fill="#fff" stroke="#263238" stroke-linecap="round" stroke-linejoin="round" stroke-width="1"/><path d="M256.733,91.431l-.3,9.146,3.2-5.024s3.5,4.411,4.411,4.263-.606-1.98-.909-3.65-2.9-7.617-3.2-9.287-3.2-1.98-3.367-1.219a7.773,7.773,0,0,0,0,1.98Z" transform="translate(-208.754 -52.801)" fill="#7d7d7d" stroke="#263238" stroke-linecap="round" stroke-linejoin="round" stroke-width="1"/><path d="M231.236,100.192s.606,42.618-.916,43.1-7.61.613-11.449,2.438-5.63,2.586-5.63,2.586,1.825-4.411,3.96-6.391a21.019,21.019,0,0,1,4.714-3.2l-3.953-20.393S210.654,99,210.5,97.936s13.854-8.978,16.743-10.351,3.657-.148,3.657-.148Z" transform="translate(-193.756 -53.346)" fill="#7d7d7d" stroke="#263238" stroke-linecap="round" stroke-linejoin="round" stroke-width="1"/><path d="M233.665,84.434S230.015,96,229.7,97.527s0,1.522,1.071.451,3.805-3.65,3.805-3.65L237.47,99.2l-.155-8.978V85.04S237.167,82.912,233.665,84.434Z" transform="translate(-199.99 -52.351)" fill="#7d7d7d" stroke="#263238" stroke-linecap="round" stroke-linejoin="round" stroke-width="1"/><path d="M224.945,121.77h8.978l-.148,3.65-3.96,1.367-5.024-1.367Z" transform="translate(-198.423 -64.721)" fill="none" stroke="#263238" stroke-linecap="round" stroke-linejoin="round" stroke-width="1"/><path d="M250.568,59.894s2.128,9.281,2.586,10.776-2.431,7.462-3.367,8.829a4.431,4.431,0,0,1-3.367,2.128,33.312,33.312,0,0,1-8.223-2.889c-1.374-.916-2.734-1.98-2.734-1.98a3.657,3.657,0,0,1-3.96-.606c-1.825-1.677-4.263-3.657-3.657-5.024a3.576,3.576,0,0,1,3.5-2.128c1.677,0,1.071-.155,1.071-.155s-3.044-4.411-3.044-7.913,6.54-6.061,10.345-6.061a20.326,20.326,0,0,1,7.61,1.825Z" transform="translate(-199.389 -42.877)" fill="#fff" stroke="#263238" stroke-linecap="round" stroke-linejoin="round" stroke-width="1"/><path d="M253.129,67.52,255.87,72.7l-2.741,1.825L251.91,73" transform="translate(-207.278 -47.007)" fill="none" stroke="#263238" stroke-linecap="round" stroke-linejoin="round" stroke-width="1"/><path d="M260.367,74.53s.148,1.219-1.677,3.2" transform="translate(-209.492 -49.296)" fill="none" stroke="#263238" stroke-linecap="round" stroke-linejoin="round" stroke-width="1"/><path d="M248.777,69.723c0,.714-.31,1.293-.673,1.293s-.674-.579-.674-1.293.31-1.293.674-1.293S248.777,69.009,248.777,69.723Z" transform="translate(-205.815 -47.304)" fill="#263238"/><ellipse cx="0.687" cy="1.293" rx="0.687" ry="1.293" transform="translate(47.063 18.688)" fill="#263238"/><path d="M232.42,46.16s-9.577,3.5-9.894,7.92,8.526,10.5,8.984,11.261,1.825-.916,1.825-.916a3.536,3.536,0,0,1-.613-2.889c.458-1.522,2.438-3.367,2.438-4.108s-2.283.606-2.283-1.677,5.63-3.65,8.978-3.5,6.243,5.785,8.681,3.044-1.071-3.5-1.071-3.5,4.714-.613,4.714-3.044a4.442,4.442,0,0,0-3.5-4.115c-1.064,0-3.953,1.832-3.953-.148s2.889-2.9.148-6.061-6.236,0-6.236,1.219-.916,3.5-1.522,3.5-2.438-2.734-4.566-1.212a5.644,5.644,0,0,0-2.128,4.229Z" transform="translate(-197.681 -37.063)" fill="#263238" stroke="#263238" stroke-linecap="round" stroke-linejoin="round" stroke-width="1"/><line y1="1.832" x2="4.869" transform="translate(38.699 18.991)" fill="none" stroke="#263238" stroke-linecap="round" stroke-linejoin="round" stroke-width="1"/><path d="M251.441,61.421a2.1,2.1,0,0,1,.216-1.4" transform="translate(-207.112 -44.558)" fill="none" stroke="#263238" stroke-linecap="round" stroke-linejoin="round" stroke-width="1"/><path d="M251.78,58.909a5.18,5.18,0,0,1,2.829-2.249" transform="translate(-207.236 -43.461)" fill="none" stroke="#fff" stroke-linecap="round" stroke-linejoin="round" stroke-width="1"/></g></g></g></svg>