<svg xmlns="http://www.w3.org/2000/svg" width="300" height="300" viewBox="0 0 300 300"><g transform="translate(-12000 -768)"><rect width="300" height="300" transform="translate(12000 768)" fill="none"/><g transform="translate(11457 -706)"><g transform="translate(543.349 1483.95)"><path d="M217.913,44.949s-49.356-24.125-97.9-.85S46.819,122.132,25.681,165.823,16.492,257.93,53.463,283.762s62.2-2.756,114.122,1.88,65.859,14.016,109.026-11.324,51.153-96.378,17.334-153.669S217.913,44.949,217.913,44.949Z" transform="translate(-15.273 -33.97)" fill="#ffd5ea"/></g><g transform="translate(549.172 1490.363)"><line y2="93.283" transform="translate(119.474)" fill="none" stroke="#4f4f4f" stroke-miterlimit="10" stroke-width="3"/><path d="M181.17,98.61h38.441v39.081h39.477" transform="translate(-80.917 -63.692)" fill="none" stroke="#4f4f4f" stroke-miterlimit="10" stroke-width="3"/><path d="M321.726,60.3v44.816h-18.7v79.734H411.071" transform="translate(-124.859 -49.878)" fill="none" stroke="#4f4f4f" stroke-miterlimit="10" stroke-width="3"/><line x2="95.573" transform="translate(178.171 94.844)" fill="none" stroke="#4f4f4f" stroke-miterlimit="10" stroke-width="3"/><line x2="66.492" transform="translate(199.464 75.041)" fill="none" stroke="#4f4f4f" stroke-miterlimit="10" stroke-width="3"/><path d="M364.77,144.9V125.624h20.257v-9.9" transform="translate(-147.121 -69.862)" fill="none" stroke="#4f4f4f" stroke-miterlimit="10" stroke-width="3"/><line x2="19.739" transform="translate(196.868 34.394)" fill="none" stroke="#4f4f4f" stroke-miterlimit="10" stroke-width="3"/><path d="M272.97,80.094h19.221V47.26" transform="translate(-114.019 -45.176)" fill="none" stroke="#4f4f4f" stroke-miterlimit="10" stroke-width="3"/><line y2="54.721" transform="translate(158.433 1.56)" fill="none" stroke="#4f4f4f" stroke-miterlimit="10" stroke-width="3"/><line x2="18.703" transform="translate(140.248 16.158)" fill="none" stroke="#4f4f4f" stroke-miterlimit="10" stroke-width="3"/><line y2="72.432" transform="translate(80.514 22.411)" fill="none" stroke="#4f4f4f" stroke-miterlimit="10" stroke-width="3"/><path d="M60.13,197.023v14.591H77.273V192.33h59.734v20.845h38.959v-19.8H196.74v39.605H117.786" transform="translate(-37.271 -97.486)" fill="none" stroke="#4f4f4f" stroke-miterlimit="10" stroke-width="3"/><path d="M117.786,224.93v38.563H60.13" transform="translate(-37.271 -109.242)" fill="none" stroke="#4f4f4f" stroke-miterlimit="10" stroke-width="3"/><path d="M88.56,286.06v77.126h39.477" transform="translate(-47.523 -131.285)" fill="none" stroke="#4f4f4f" stroke-miterlimit="10" stroke-width="3"/><line x1="19.739" transform="translate(20.781 193.338)" fill="none" stroke="#4f4f4f" stroke-miterlimit="10" stroke-width="3"/><line x2="21.299" transform="translate(0 174.054)" fill="none" stroke="#4f4f4f" stroke-miterlimit="10" stroke-width="3"/><path d="M35.76,242.88h53.5V224.12" transform="translate(-28.484 -108.95)" fill="none" stroke="#4f4f4f" stroke-miterlimit="10" stroke-width="3"/><path d="M120.24,320.752V282.19h78.436v-18.76h77.918v18.76h19.214V223.3h21.3" transform="translate(-58.946 -108.654)" fill="none" stroke="#4f4f4f" stroke-miterlimit="10" stroke-width="3"/><path d="M334.71,212.657h20.774V192.33" transform="translate(-136.282 -97.486)" fill="none" stroke="#4f4f4f" stroke-miterlimit="10" stroke-width="3"/><path d="M369.139,334.749V285.24H348.882v40.129H232v19.8H211.23v29.183" transform="translate(-91.756 -130.989)" fill="none" stroke="#4f4f4f" stroke-miterlimit="10" stroke-width="3"/><line x1="19.739" transform="translate(99.217 232.943)" fill="none" stroke="#4f4f4f" stroke-miterlimit="10" stroke-width="3"/><path d="M189.259,348H150.3v55.239" transform="translate(-69.786 -153.62)" fill="none" stroke="#4f4f4f" stroke-miterlimit="10" stroke-width="3"/><line y2="19.803" transform="translate(100.253 194.898)" fill="none" stroke="#4f4f4f" stroke-miterlimit="10" stroke-width="3"/><line y1="18.76" transform="translate(100.771 155.293)" fill="none" stroke="#4f4f4f" stroke-miterlimit="10" stroke-width="3"/><line y2="19.803" transform="translate(119.474 135.491)" fill="none" stroke="#4f4f4f" stroke-miterlimit="10" stroke-width="3"/><path d="M242.1,420.067V409.12h19.221" transform="translate(-102.888 -175.659)" fill="none" stroke="#4f4f4f" stroke-miterlimit="10" stroke-width="3"/><line y1="31.267" transform="translate(159.469 214.183)" fill="none" stroke="#4f4f4f" stroke-miterlimit="10" stroke-width="3"/><path d="M303.84,348v39.081h39.477v14.073" transform="translate(-125.151 -153.62)" fill="none" stroke="#4f4f4f" stroke-miterlimit="10" stroke-width="3"/><line x2="72.72" transform="translate(198.946 213.659)" fill="none" stroke="#4f4f4f" stroke-miterlimit="10" stroke-width="3"/><line y2="19.803" transform="translate(237.905 214.183)" fill="none" stroke="#4f4f4f" stroke-miterlimit="10" stroke-width="3"/><line y1="20.845" transform="translate(197.91 174.054)" fill="none" stroke="#4f4f4f" stroke-miterlimit="10" stroke-width="3"/><line y2="19.278" transform="translate(178.689 154.775)" fill="none" stroke="#4f4f4f" stroke-miterlimit="10" stroke-width="3"/><line y1="19.278" transform="translate(158.951 174.578)" fill="none" stroke="#4f4f4f" stroke-miterlimit="10" stroke-width="3"/><line x1="19.221" transform="translate(100.253 75.041)" fill="none" stroke="#4f4f4f" stroke-miterlimit="10" stroke-width="3"/><line x1="17.66" transform="translate(81.557 55.239)" fill="none" stroke="#4f4f4f" stroke-miterlimit="10" stroke-width="3"/><path d="M79.62,142.847h25.455V110.02" transform="translate(-44.299 -67.806)" fill="none" stroke="#4f4f4f" stroke-miterlimit="10" stroke-width="3"/><line y2="16.151" transform="translate(20.256 212.098)" fill="none" stroke="#4f4f4f" stroke-miterlimit="10" stroke-width="3"/></g><g transform="translate(566.314 1483.95)"><path d="M245.6,53.53a102.53,102.53,0,0,0-14.738-8.581s-49.356-24.125-97.9-.85A121.808,121.808,0,0,0,104.37,63.4L51.19,270.379a90.348,90.348,0,0,0,15.224,13.383c36.945,25.826,62.2-2.756,114.122,1.88s65.859,14.016,109.026-11.324a66.614,66.614,0,0,0,10.755-7.884Z" transform="translate(-51.19 -33.97)" fill="#fff" opacity="0.2"/><line y1="12.603" x2="3.229" transform="translate(47.719 37.821)" fill="none" stroke="#263238" stroke-miterlimit="10" stroke-width="1"/><line y1="155.242" x2="39.733" transform="translate(6.426 56.511)" fill="none" stroke="#263238" stroke-miterlimit="10" stroke-width="1"/><line y1="4.406" x2="1.132" transform="translate(3.114 220.264)" fill="none" stroke="#263238" stroke-miterlimit="10" stroke-width="1"/><line x2="24.764" y2="97.069" transform="translate(219.739 118.662)" fill="none" stroke="#263238" stroke-miterlimit="10" stroke-width="1"/><line x2="18.357" y2="71.959" transform="translate(199.803 40.5)" fill="none" stroke="#263238" stroke-miterlimit="10" stroke-width="1"/></g><g transform="translate(614.252 1538.266)"><ellipse cx="71.723" cy="8.274" rx="71.723" ry="8.274" transform="translate(0 208.853)" fill="#263238" stroke="#263238" stroke-miterlimit="10" stroke-width="1"/><path d="M233.422,392.043h3.741l7.673-54.062h31.421l2.628,54.254h3.095L284.537,279.7a1.918,1.918,0,0,0-1.918-1.918l-46.4.422L214.4,338.128l24.624-.147Z" transform="translate(-157.979 -176.201)" fill="#263238" stroke="#263238" stroke-miterlimit="10" stroke-width="1"/><path d="M291.778,283.26h-42.9l2.8,49.663h38.345Z" transform="translate(-170.412 -178.177)" fill="#8c8c8c" stroke="#263238" stroke-miterlimit="10" stroke-width="1"/><path d="M149.869,256.3l-.729-52.483h68.417l5.064,87.957H153.488Z" transform="translate(-134.446 -149.532)" fill="#ccc" stroke="#263238" stroke-miterlimit="10" stroke-width="1"/><path d="M149.14,203.82s5.429,2.558,7.6,23.524,2.9,52.125,2.9,52.125l-10.064-10.231Z" transform="translate(-134.446 -149.532)" fill="#263238" stroke="#263238" stroke-miterlimit="10" stroke-width="1"/><rect width="67.688" height="19.182" rx="3.33" transform="translate(49.446 140.071)" fill="#b8b8b8" stroke="#263238" stroke-miterlimit="10" stroke-width="1"/><rect width="49.868" height="19.182" transform="translate(49.446 140.071)" fill="#263238" stroke="#263238" stroke-miterlimit="10" stroke-width="1"/><path d="M213.822,186.128s-7.935,2.8-11.362,5.448-4.668,11.362-2.487,19.457.934,10.742-.934,16.5-17.437,16.81-21.324,26.152a23.534,23.534,0,0,0,4.514,25.372c5.915,6.068,20.231,6.541,24.592,6.541s9.028-.313,9.028-.313,13.7-.639,24.125-3.427,17.437-11.982,14.79-18.364-11.362-7.941-15.1-9.342a45.327,45.327,0,0,1-9.655-5.6c-1.4-1.087-2.954-2.494-2.954-2.494s2.647-3.888,5.115-4.981,9.5,1.279,14.476-10.115a21.178,21.178,0,0,0,.639-7.315c-.467-3.427,0-5.915.16-11.676s5.115-10.275,4.354-17.123-13.076-13.7-24.125-11.676S213.822,186.128,213.822,186.128Z" transform="translate(-144.075 -141.955)" fill="#e37ab0" stroke="#263238" stroke-miterlimit="10" stroke-width="1"/><path d="M197.65,290.99s13.856-6.854,30.3,1.515" transform="translate(-151.939 -180.011)" fill="none" stroke="#263238" stroke-miterlimit="10" stroke-width="1"/><path d="M201.33,286.449a26.619,26.619,0,0,1,15.212.94" transform="translate(-153.266 -179.077)" fill="none" stroke="#263238" stroke-miterlimit="10" stroke-width="1"/><path d="M252.587,187.359c-.371,6.049-1.56,27.124-.492,32.118,1.279,5.844,11.688,7.935,16.286,4.591s6.215-18.351,7.1-27.552c.313-3.312-1.221-6.944-3.434-10.231a25.883,25.883,0,0,0-17.027-3.12l-1.01.192c-.8,1.375-1.317,2.379-1.317,2.379S252.645,186.323,252.587,187.359Z" transform="translate(-171.414 -141.965)" fill="#fff" stroke="#263238" stroke-miterlimit="10" stroke-width="1"/><path d="M235.671,190.011l-2.558-4.361c-4.834,1.01-6.266,1.483-6.266,1.483s-7.935,2.8-11.362,5.448-4.668,11.362-2.487,19.457a24.813,24.813,0,0,1,1.068,8.952c4.629,2.359,12.149,5.224,14.949.735C233.171,215.063,235.671,190.011,235.671,190.011Z" transform="translate(-157.081 -142.98)" fill="#fff" stroke="#263238" stroke-miterlimit="10" stroke-width="1"/><path d="M216.578,193.81s-8.095,2.18-9.649,13.076,9.962,28.639,12.788,34.247,10.742,18.543,14.476,19.924,7.628-5.608,7.628-13.076-9.809-21.951-12.456-28.019-4.514-15.41-4.514-15.41" transform="translate(-155.233 -145.922)" fill="#fff" stroke="#263238" stroke-miterlimit="10" stroke-width="1"/><path d="M299.806,212.362s-1.56,17.264-2.961,27.392-3.734,19.617-7.315,22.725-11.829.467-12.449-6.221,3.12-13.843,4.981-20.538,4.354-18.831,4.514-21.945S297.779,206.608,299.806,212.362Z" transform="translate(-180.556 -151.565)" fill="#fff" stroke="#263238" stroke-miterlimit="10" stroke-width="1"/><path d="M231.792,138.485s0,1.918-6.138,5.959-12.974,9.642-12.974,16.132,2.98,8.242,7.366,8.594a11.35,11.35,0,0,0,7.545-2.283s-1.4,3.5,3.5,7.89,8.952,4.035,11.049,3.159,19.822,6.484,26.651,5.755,11.222-1.918,10.691-9.463a9.646,9.646,0,0,0,11.049-2.807c4.732-5.608,1.579-11.746-2.98-16.625s-6.663-17.9-10.518-24.9-17.047-14.284-29.841-9.38S234.247,135.5,231.792,138.485Z" transform="translate(-157.358 -118.916)" fill="#263238" stroke="#263238" stroke-miterlimit="10" stroke-width="1"/><path d="M294.66,148.11s7.43,11.727,16.426,14.47" transform="translate(-186.92 -129.443)" fill="none" stroke="#8f8f8f" stroke-miterlimit="10" stroke-width="1"/><path d="M321.33,184.22c5.461,3.836,9.035,6.477,6.394,9.361" transform="translate(-196.536 -142.464)" fill="none" stroke="#8f8f8f" stroke-miterlimit="10" stroke-width="1"/><path d="M289.25,149.19c2.417,4.725,6.394,11.19,11.676,15.729,1.707,1.471,3.434,2.788,5.115,4" transform="translate(-184.969 -129.833)" fill="none" stroke="#8f8f8f" stroke-miterlimit="10" stroke-width="1"/><path d="M284.88,139.55s.32.87.953,2.3" transform="translate(-183.393 -126.357)" fill="none" stroke="#8f8f8f" stroke-miterlimit="10" stroke-width="1"/><path d="M255.144,169.87a19.454,19.454,0,0,1-3.894.556" transform="translate(-171.266 -137.29)" fill="none" stroke="#8f8f8f" stroke-miterlimit="10" stroke-width="1"/><path d="M272.824,127.93s-1.63,16.2-4.693,21.1a12.424,12.424,0,0,1-5.851,4.687" transform="translate(-175.244 -122.167)" fill="none" stroke="#8f8f8f" stroke-miterlimit="10" stroke-width="1"/><path d="M224.09,189.748a6.918,6.918,0,0,0,3.287-.058" transform="translate(-161.473 -144.437)" fill="none" stroke="#8f8f8f" stroke-miterlimit="10" stroke-width="1"/><path d="M251.963,140.43c-.94,3.945-2.717,8.7-6.017,11.164-6.253,4.693-19.547,3.133-24.63,9.387-3.523,4.335-3.728,7.251-2.558,9.016" transform="translate(-159.319 -126.674)" fill="none" stroke="#8f8f8f" stroke-miterlimit="10" stroke-width="1"/><path d="M272.434,130.38s-.077,1.279-.384,3.2" transform="translate(-178.767 -123.05)" fill="none" stroke="#8f8f8f" stroke-miterlimit="10" stroke-width="1"/><path d="M312.75,193.47a8.255,8.255,0,0,1,2.123,5.013" transform="translate(-193.443 -145.8)" fill="none" stroke="#8f8f8f" stroke-miterlimit="10" stroke-width="1"/><path d="M280.6,154.23s1.918,10.1,6.253,14.853c2.769,3.044,8.562,5.23,12.475,8.466" transform="translate(-181.85 -131.65)" fill="none" stroke="#8f8f8f" stroke-miterlimit="10" stroke-width="1"/><path d="M269.335,166.79s-.352,5.115-2.807,6.138-6.138-.352-6.138-.352S267.935,170.652,269.335,166.79Z" transform="translate(-174.562 -136.179)" fill="#fff" stroke="#263238" stroke-miterlimit="10" stroke-width="1"/><path d="M269.335,165.42a7.033,7.033,0,0,1-2.986,7.366,7.552,7.552,0,0,1-8.242.352s-1.4,4.559-3.159,11.573,2.807,13.146,5.115,16.478,6.49,4.553,8.242,3.677,3.677-2.8,8.76-6.829,7.89-11.573,8.069-12.1S269.686,175.062,269.335,165.42Z" transform="translate(-172.458 -135.685)" fill="#fff" stroke="#263238" stroke-miterlimit="10" stroke-width="1"/><path d="M283.457,199.53s-1.279,10.231-3.1,12.942c-.78,1.17-3.625-.639-3.625-.639" transform="translate(-180.454 -147.985)" fill="none" stroke="#263238" stroke-miterlimit="10" stroke-width="1"/><path d="M267.093,306.8s-1.765,8.076-4.118,10.608-6.5-2.04-6.5-2.04-6.394,12.091-5.294,12.82,11.784,1.33,18.479-1.918,6-16.689,4.195-19.042S269.632,304.8,267.093,306.8Z" transform="translate(-171.195 -186.152)" fill="#8f8f8f" stroke="#263238" stroke-miterlimit="10" stroke-width="1"/><path d="M235.229,300.725s-7.245,3.709-10.231,19.611-4.591,48.774-5.3,54.254-1.918,19.438-1.918,21.74,1.24,2.654,3.715,3.357,6.183,1.061,11.132,2.3,13.779,0,16.784-1.061-.173-5.48-4.591-8.127-10.122-5.5-12.769-8.7-1.918-8.658-1.771-10.953,12.021-39.56,14.5-46.274,6.535-14.847,4.77-21.382S239.3,297.72,235.229,300.725Z" transform="translate(-159.197 -183.915)" fill="#fff" stroke="#263238" stroke-miterlimit="10" stroke-width="1"/><path d="M244.761,435.364c-4.418-2.654-10.077-5.48-12.724-8.664a10.478,10.478,0,0,1-1.976-6.464c-6.241,1.407-9.144-1.106-10.4-3.005-.71,5.524-1.918,19.374-1.918,21.663s1.24,2.654,3.715,3.357,6.183,1.061,11.132,2.3,13.779,0,16.785-1.061S249.18,438.011,244.761,435.364Z" transform="translate(-159.183 -226.485)" fill="#fff" stroke="#263238" stroke-miterlimit="10" stroke-width="1"/><path d="M221.425,450.987c.249.077.524.141.8.2a13.741,13.741,0,0,0-2.743-8.312,8.128,8.128,0,0,0-1.362-1.419c-.243,2.96-.409,5.352-.409,6.189C217.71,449.932,218.95,450.284,221.425,450.987Z" transform="translate(-159.172 -235.223)" fill="#adadad" stroke="#263238" stroke-miterlimit="10" stroke-width="1"/><path d="M250,456.884a42.194,42.194,0,0,0,10.991-1.573c2.04-.71,1.2-3.056-.985-5.3-1.407.537-3.2,1.279-5.55,2.3C251.356,453.693,250.326,455.592,250,456.884Z" transform="translate(-170.816 -238.306)" fill="#adadad" stroke="#263238" stroke-miterlimit="10" stroke-width="1"/><path d="M279.888,299.126s-6.394,2.123-4.6,14.847,20.148,43.48,22.443,51.242,4.949,23.5,4.949,28.454,1.771,9.54,7.072,9.188,9.54-1.918,8.127-10.422-6.541-22.443-8.485-28.1-4.77-18.728-7.775-34.988-4.77-21.2-8.658-26.683S281.832,297.713,279.888,299.126Z" transform="translate(-179.82 -183.557)" fill="#fff" stroke="#263238" stroke-miterlimit="10" stroke-width="1"/><path d="M322.413,400.18c-.249-.735-.524-1.6-.806-2.59a7.219,7.219,0,0,1-3.785,3.472,14.143,14.143,0,0,1-6.752,1.138c2.219,8.076,4.629,22.6,4.629,27.316,0,4.949,1.771,9.54,7.072,9.188s9.54-1.918,8.127-10.422S324.357,405.838,322.413,400.18Z" transform="translate(-192.837 -219.403)" fill="#fff" stroke="#263238" stroke-miterlimit="10" stroke-width="1"/><path d="M334.035,451.76c-5.972-1.2-12.1.416-14.9,1.343.844,3.044,2.82,5.243,6.548,4.994C329.981,457.8,333.587,456.7,334.035,451.76Z" transform="translate(-195.743 -238.783)" fill="#adadad" stroke="#263238" stroke-miterlimit="10" stroke-width="1"/><path d="M241.34,239.312c.128-.531.269-1.087.428-1.65,1.758-6.138,5.62-21.439,6.5-24.419a48.947,48.947,0,0,0,1.228-8.063s-1.579-12.974-2.1-15.429A6.784,6.784,0,0,1,248.968,184c1.049-1.228,2.628-6.835,3.677-5.959s1.055,3.5.531,4.9-1.918,4.214-1.918,4.214v1.694l7.89-8.952s2.1-1.918,2.628,1.579c0,0,1.055-2.455,2.98-1.752s.665,3.37.665,3.37a1.6,1.6,0,0,1,2.1,1.228c.352,1.752-2.276,10.87-2.276,10.87s1.752-4.035,2.455-6.138,1.752-2.455,1.918-1.228a17.616,17.616,0,0,1-1.228,8.242c-1.4,3.159-5.083,7.711-6.311,9.47s-3.5,3.683-3.5,4.38-.352,32.789-.531,37.169-.524,5.787-4.559,7.89a8.227,8.227,0,0,1-10.87-3.4,14.572,14.572,0,0,1-1.17-2.558" transform="translate(-167.693 -140.202)" fill="#fff" stroke="#263238" stroke-miterlimit="10" stroke-width="1"/><line x1="4.559" y2="11.746" transform="translate(93.194 42.888)" fill="none" stroke="#263238" stroke-miterlimit="10" stroke-width="1"/><line x1="5.787" y2="11.573" transform="translate(88.283 41.308)" fill="none" stroke="#263238" stroke-miterlimit="10" stroke-width="1"/><path d="M255.939,195s-1.579,2.98-1.579,3.836" transform="translate(-172.388 -146.351)" fill="none" stroke="#263238" stroke-miterlimit="10" stroke-width="1"/><path d="M282.658,208.037c0-3.51-.524-14.38-.524-15.077s.352-2.283,1.228-2.283,1.4,1.752,1.4,2.283v-4.911a1.2,1.2,0,0,1,2.1-.876l.7.876s-.7-3.159,1.579-3.159,2.98,3.331,2.98,3.331a2.9,2.9,0,0,1,2.455,1.407c.7,1.4,2.276,9.291,2.807,11.394s-1.918,7.034-3.683,11.573-2.807,14.022-1.918,21.209,1.752,11.752,0,15.429-2.807,6.317-8.587,6.49-6.842-3.331-8.069-8.766,4.386-16.132,6.49-22.795,2.628-10.518,2.1-11.919a35.221,35.221,0,0,1-1.068-4.207Z" transform="translate(-179.815 -142.706)" fill="#fff" stroke="#263238" stroke-miterlimit="10" stroke-width="1"/><path d="M290.28,197.51s1.752,6.311,1.579,10.339" transform="translate(-185.34 -147.256)" fill="none" stroke="#263238" stroke-miterlimit="10" stroke-width="1"/><path d="M294.67,189.83s2.98,7.711,2.98,14.2" transform="translate(-186.923 -144.487)" fill="none" stroke="#263238" stroke-miterlimit="10" stroke-width="1"/><path d="M301.8,190.1s2.276,8.766,2.98,12.974" transform="translate(-189.494 -144.584)" fill="none" stroke="#263238" stroke-miterlimit="10" stroke-width="1"/><path d="M141.12,392.012h3.76l7.673-54.017h31.421l2.615,54.017H189.7l2.558-112.274a1.918,1.918,0,0,0-1.918-1.918l-46.4.422,3.3,58.455Z" transform="translate(-131.554 -176.215)" fill="#263238" stroke="#263238" stroke-miterlimit="10" stroke-width="1"/><path d="M188.748,283.26h-42.9l2.8,49.663H186.99Z" transform="translate(-133.26 -178.177)" fill="#8c8c8c" stroke="#263238" stroke-miterlimit="10" stroke-width="1"/></g></g></g></svg>