<svg xmlns="http://www.w3.org/2000/svg" width="301.092" height="300" viewBox="0 0 301.092 300"><g transform="translate(-12409.454 -789)"><rect width="300" height="300" transform="translate(12410 789)" fill="none"/><g transform="translate(11310 -962.647)"><path d="M323.377,191.451c-3.7-23.308-13.636-45.76-24.525-65.147C282.676,97.517,257.8,70.557,226.621,72.253c-18,.97-34.265,10.973-46.412,26.308-11.681,14.748-19.585,31.575-36.241,39.532-16.858,8.047-35,12.547-52.542,18-45.09,14.006-69.128,80.881-46.9,135.87s74.436,81.713,111.032,70.3c32.887-10.215,54.712-41.741,84.538-57.655,14.8-7.883,31.176-9.074,45.459-18.449a87.845,87.845,0,0,0,36.143-50.48C325.568,220.971,325.693,206.044,323.377,191.451Z" transform="translate(1065.073 1683.234)" fill="#e37ab0"/><path d="M323.377,191.451c-3.7-23.308-13.636-45.76-24.525-65.147C282.676,97.517,257.8,70.557,226.621,72.253c-18,.97-34.265,10.973-46.412,26.308-11.681,14.748-19.585,31.575-36.241,39.532-16.858,8.047-35,12.547-52.542,18-45.09,14.006-69.128,80.881-46.9,135.87s74.436,81.713,111.032,70.3c32.887-10.215,54.712-41.741,84.538-57.655,14.8-7.883,31.176-9.074,45.459-18.449a87.845,87.845,0,0,0,36.143-50.48C325.568,220.971,325.693,206.044,323.377,191.451Z" transform="translate(1065.073 1683.234)" fill="#fff" opacity="0.7"/><g transform="translate(1111.549 1926.455)"><path d="M103.983,269.325s0-2.825-3.952-6.769-6.484-6.206-6.484-6.206-1.976,6.484,1.691,10.436a69.487,69.487,0,0,0,8.745,7.611Z" transform="translate(-63.784 -256.35)" fill="#e37ab0"/><path d="M95.745,294.6s0-2.783-3.952-6.769-6.484-6.2-6.484-6.2-1.976,6.519,1.712,10.436a69.487,69.487,0,0,0,8.745,7.611Z" transform="translate(-61.278 -264.042)" fill="#e37ab0"/><path d="M108.189,276.7s.3-2.783,4.641-6.317,7.11-5.482,7.11-5.482,1.273,6.658-2.783,10.2a69.317,69.317,0,0,1-9.5,6.651Z" transform="translate(-68.24 -258.951)" fill="#e37ab0"/><path d="M98.011,307.169s.591-2.783,5.281-5.789,7.653-4.71,7.653-4.71.571,6.756-3.84,9.852a69.734,69.734,0,0,1-10.144,5.615Z" transform="translate(-64.984 -268.618)" fill="#e37ab0"/><path d="M100.34,338.685s0-2.818,3.952-6.77,6.484-6.206,6.484-6.206,1.976,6.491-1.691,10.436a69.18,69.18,0,0,1-8.745,7.653Z" transform="translate(-66.012 -277.454)" fill="#e37ab0"/><path d="M95.989,346.055s.4-2.783-2.95-7.264-5.566-7.062-5.566-7.062-2.88,6.136.188,10.568a69.048,69.048,0,0,0,7.577,8.78Z" transform="translate(-61.724 -279.286)" fill="#e37ab0"/><path d="M94.65,370.225s0-2.783,3.945-6.769,6.491-6.206,6.491-6.206,1.976,6.491-1.691,10.436A69.181,69.181,0,0,1,94.65,375.3Z" transform="translate(-64.281 -287.051)" fill="#e37ab0"/><path d="M98.406,390.632s-.7-2.727,2.087-7.549,4.71-7.653,4.71-7.653,3.548,5.782,1,10.526a69.177,69.177,0,0,1-6.526,9.58Z" transform="translate(-65.4 -292.582)" fill="#e37ab0"/><path d="M104.751,273.92a80.014,80.014,0,0,1-1.078,8.752c-1.565,8.071-5.468,13.268-7.027,20.552s2.922,16.7,1.718,26.027-4.87,14.562-3.8,20.8,6.658,23.509,6.658,23.509" transform="translate(-64.196 -261.696)" fill="none" stroke="#263238" stroke-linecap="round" stroke-linejoin="round" stroke-width="1.092"/><line y1="3.263" x2="4.258" transform="translate(39.907 16.357)" fill="none" stroke="#263238" stroke-linecap="round" stroke-linejoin="round" stroke-width="1.092"/><line x1="1.781" y1="3.166" transform="translate(38.328 12.697)" fill="none" stroke="#263238" stroke-linecap="round" stroke-linejoin="round" stroke-width="1.092"/><path d="M98,313.223s3.562-2.672,7.222-5.343" transform="translate(-65.3 -272.029)" fill="none" stroke="#263238" stroke-linecap="round" stroke-linejoin="round" stroke-width="1.092"/><path d="M97.771,303.338a57.112,57.112,0,0,0-6.331-9.678" transform="translate(-63.304 -267.702)" fill="none" stroke="#263238" stroke-linecap="round" stroke-linejoin="round" stroke-width="1.092"/><path d="M100.54,345.672a44.082,44.082,0,0,1,7.618-10.193" transform="translate(-66.073 -280.427)" fill="none" stroke="#263238" stroke-linecap="round" stroke-linejoin="round" stroke-width="1.092"/><path d="M96.821,351.095a50.448,50.448,0,0,0-3.861-7.326c-2.087-3.068-2.379-3.479-2.379-3.479" transform="translate(-63.043 -281.89)" fill="none" stroke="#263238" stroke-linecap="round" stroke-linejoin="round" stroke-width="1.092"/><path d="M94.65,378.123a47.152,47.152,0,0,1,3.207-6.505,41.57,41.57,0,0,1,4.174-5.448" transform="translate(-64.281 -289.765)" fill="none" stroke="#263238" stroke-linecap="round" stroke-linejoin="round" stroke-width="1.092"/><path d="M100.265,398.054a12.106,12.106,0,0,1,1.064-6.262c1.482-2.866,3.166-6.63,3.861-8.112" transform="translate(-65.972 -295.092)" fill="none" stroke="#263238" stroke-linecap="round" stroke-linejoin="round" stroke-width="1.092"/><path d="M62.452,325.064s-.32-1.774,1.767-4.675,3.4-4.6,3.4-4.6,1.941,3.854.07,6.728a43.785,43.785,0,0,1-4.654,5.726Z" transform="translate(-54.479 -274.436)" fill="#e37ab0"/><path d="M70.363,340.047s-.306-1.767,1.746-4.675,3.4-4.592,3.4-4.592,1.941,3.847.07,6.728a44.1,44.1,0,0,1-4.654,5.719Z" transform="translate(-56.886 -278.997)" fill="#e37ab0"/><path d="M59.648,330.729s-.487-1.725-3.6-3.479S51,324.6,51,324.6s-.077,4.32,2.853,6.095a43.984,43.984,0,0,0,6.679,3.138Z" transform="translate(-51 -277.116)" fill="#e37ab0"/><path d="M68.876,348.813s-.7-1.67-3.938-3.061-5.308-2.122-5.308-2.122.376,4.3,3.479,5.761a44.192,44.192,0,0,0,6.957,2.421Z" transform="translate(-53.626 -282.906)" fill="#e37ab0"/><path d="M71.791,368.659s-.313-1.767-3.214-3.813-4.745-3.186-4.745-3.186-.529,4.279,2.2,6.359a43.9,43.9,0,0,0,6.31,3.827Z" transform="translate(-54.892 -288.392)" fill="#e37ab0"/><path d="M76.169,372.37s-.557-1.7,1.058-4.87,2.706-5.03,2.706-5.03,2.47,3.534,1.03,6.644a44.139,44.139,0,0,1-3.8,6.331Z" transform="translate(-58.63 -288.639)" fill="#e37ab0"/><path d="M83.169,393.942s.209-1.781,2.992-3.993,4.55-3.479,4.55-3.479.779,4.244-1.83,6.47a43.746,43.746,0,0,1-6.081,4.174Z" transform="translate(-60.676 -295.941)" fill="#e37ab0"/><path d="M78.784,387.819s-.306-1.767-3.214-3.813-4.738-3.186-4.738-3.186-.536,4.3,2.192,6.387a43.888,43.888,0,0,0,6.31,3.827Z" transform="translate(-57.021 -294.222)" fill="#e37ab0"/><path d="M79.377,400.857s.153-1.788-2.136-4.5-3.785-4.286-3.785-4.286-1.6,4.007.515,6.707a44.006,44.006,0,0,0,5.135,5.3Z" transform="translate(-57.656 -297.645)" fill="#e37ab0"/><path d="M62,328.52a50.63,50.63,0,0,0,1.635,5.371c1.851,4.87,4.87,7.73,6.63,12.127s0,10.77,1.746,16.51,4.62,8.606,4.647,12.635-1.44,14.916-1.44,14.916" transform="translate(-54.347 -278.309)" fill="none" stroke="#263238" stroke-linecap="round" stroke-linejoin="round" stroke-width="1.092"/><line x1="3.019" y1="1.586" transform="translate(5.858 53.196)" fill="none" stroke="#263238" stroke-linecap="round" stroke-linejoin="round" stroke-width="1.092"/><line y1="2.178" x2="0.772" transform="translate(8.349 50.267)" fill="none" stroke="#263238" stroke-linecap="round" stroke-linejoin="round" stroke-width="1.092"/><path d="M71.4,352.287S68.878,351,66.29,349.72" transform="translate(-55.652 -284.759)" fill="none" stroke="#263238" stroke-linecap="round" stroke-linejoin="round" stroke-width="1.092"/><path d="M71.17,345.728A36.1,36.1,0,0,1,74.085,339" transform="translate(-57.137 -281.498)" fill="none" stroke="#263238" stroke-linecap="round" stroke-linejoin="round" stroke-width="1.092"/><path d="M73.216,372.926a28.208,28.208,0,0,0-5.886-5.566" transform="translate(-55.968 -290.127)" fill="none" stroke="#263238" stroke-linecap="round" stroke-linejoin="round" stroke-width="1.092"/><path d="M77,375.567a31.865,31.865,0,0,1,1.621-5.009c.974-2.15,1.113-2.428,1.113-2.428" transform="translate(-58.911 -290.361)" fill="none" stroke="#263238" stroke-linecap="round" stroke-linejoin="round" stroke-width="1.092"/><path d="M82.89,397.721a26.5,26.5,0,0,1,3.249-3.374,17.646,17.646,0,0,0,2.087-1.837" transform="translate(-60.703 -297.779)" fill="none" stroke="#263238" stroke-linecap="round" stroke-linejoin="round" stroke-width="1.092"/><path d="M80.5,392.651a29.857,29.857,0,0,0-2.72-3.722A26.388,26.388,0,0,0,74.59,386" transform="translate(-58.177 -295.798)" fill="none" stroke="#263238" stroke-linecap="round" stroke-linejoin="round" stroke-width="1.092"/><path d="M79.8,405.624a7.653,7.653,0,0,0-1.35-3.8c-1.238-1.642-2.706-3.82-3.3-4.675" transform="translate(-58.348 -299.191)" fill="none" stroke="#263238" stroke-linecap="round" stroke-linejoin="round" stroke-width="1.092"/></g><g transform="translate(1324.123 1946.853)"><rect width="65.336" height="5.573" transform="translate(0 38.578)" fill="none" stroke="#263238" stroke-linecap="round" stroke-linejoin="round" stroke-width="1.092"/><rect width="59.276" height="47.47" transform="translate(3.033 44.221)" fill="none" stroke="#263238" stroke-linecap="round" stroke-linejoin="round" stroke-width="1.092"/><rect width="55.081" height="14.436" transform="translate(5.093 47.317)" fill="none" stroke="#263238" stroke-linecap="round" stroke-linejoin="round" stroke-width="1.092"/><rect width="5.51" height="2.658" transform="translate(29.784 53.203)" fill="none" stroke="#263238" stroke-linecap="round" stroke-linejoin="round" stroke-width="1.092"/><rect width="55.081" height="14.436" transform="translate(5.093 65.552)" fill="none" stroke="#263238" stroke-linecap="round" stroke-linejoin="round" stroke-width="1.092"/><rect width="5.51" height="2.658" transform="translate(29.784 71.438)" fill="none" stroke="#263238" stroke-linecap="round" stroke-linejoin="round" stroke-width="1.092"/><rect width="27.349" height="26.841" transform="translate(7.375)" fill="#263238" stroke="#263238" stroke-linecap="round" stroke-linejoin="round" stroke-width="1.092"/><path d="M385.576,334.217V322.8h-3.541v11.417H376.97v1.245h13.671v-1.245Z" transform="translate(-362.756 -296.967)" fill="none" stroke="#263238" stroke-linecap="round" stroke-linejoin="round" stroke-width="1.092"/><line y2="24.309" transform="translate(9.086 0.974)" fill="none" stroke="#5c5c5c" stroke-linecap="round" stroke-linejoin="round" stroke-width="1.092"/><line y2="24.309" transform="translate(13.643 0.974)" fill="none" stroke="#5c5c5c" stroke-linecap="round" stroke-linejoin="round" stroke-width="1.092"/><line y2="24.309" transform="translate(21.053 0.974)" fill="none" stroke="#5c5c5c" stroke-linecap="round" stroke-linejoin="round" stroke-width="1.092"/><line y2="24.309" transform="translate(29.784 0.974)" fill="none" stroke="#5c5c5c" stroke-linecap="round" stroke-linejoin="round" stroke-width="1.092"/></g><g transform="translate(1326.844 1871.909)"><rect width="44.61" height="59.903" transform="translate(0 0)" fill="none" stroke="#263238" stroke-linecap="round" stroke-linejoin="round" stroke-width="1.092"/><rect width="36.067" height="48.437" transform="translate(4.272 5.733)" fill="none" stroke="#263238" stroke-linecap="round" stroke-linejoin="round" stroke-width="1.092"/></g><g transform="translate(1230.964 1856.269)"><rect width="87.175" height="182.275" fill="none" stroke="#263238" stroke-linecap="round" stroke-linejoin="round" stroke-width="1.092"/><rect width="31.698" height="47.553" transform="translate(7.924 8.613)" fill="none" stroke="#263238" stroke-linecap="round" stroke-linejoin="round" stroke-width="1.092"/><rect width="22.59" height="33.882" transform="translate(12.481 15.452)" fill="none" stroke="#263238" stroke-linecap="round" stroke-linejoin="round" stroke-width="1.092"/><line x1="4.557" y1="6.839" transform="translate(7.924 8.613)" fill="none" stroke="#263238" stroke-linecap="round" stroke-linejoin="round" stroke-width="1.092"/><line y1="6.839" x2="4.557" transform="translate(35.065 8.613)" fill="none" stroke="#263238" stroke-linecap="round" stroke-linejoin="round" stroke-width="1.092"/><line x2="4.557" y2="6.832" transform="translate(35.065 49.334)" fill="none" stroke="#263238" stroke-linecap="round" stroke-linejoin="round" stroke-width="1.092"/><line x1="4.557" y2="6.832" transform="translate(7.924 49.334)" fill="none" stroke="#263238" stroke-linecap="round" stroke-linejoin="round" stroke-width="1.092"/><rect width="31.698" height="47.553" transform="translate(46.023 8.613)" fill="none" stroke="#263238" stroke-linecap="round" stroke-linejoin="round" stroke-width="1.092"/><rect width="22.59" height="33.882" transform="translate(50.58 15.452)" fill="none" stroke="#263238" stroke-linecap="round" stroke-linejoin="round" stroke-width="1.092"/><line x1="4.557" y1="6.839" transform="translate(46.023 8.613)" fill="none" stroke="#263238" stroke-linecap="round" stroke-linejoin="round" stroke-width="1.092"/><line y1="6.839" x2="4.557" transform="translate(73.163 8.613)" fill="none" stroke="#263238" stroke-linecap="round" stroke-linejoin="round" stroke-width="1.092"/><line x2="4.557" y2="6.832" transform="translate(73.163 49.334)" fill="none" stroke="#263238" stroke-linecap="round" stroke-linejoin="round" stroke-width="1.092"/><line x1="4.557" y2="6.832" transform="translate(46.023 49.334)" fill="none" stroke="#263238" stroke-linecap="round" stroke-linejoin="round" stroke-width="1.092"/><rect width="31.698" height="47.553" transform="translate(7.924 68.425)" fill="none" stroke="#263238" stroke-linecap="round" stroke-linejoin="round" stroke-width="1.092"/><rect width="22.59" height="33.882" transform="translate(12.481 75.257)" fill="none" stroke="#263238" stroke-linecap="round" stroke-linejoin="round" stroke-width="1.092"/><line x1="4.557" y1="6.832" transform="translate(7.924 68.425)" fill="none" stroke="#263238" stroke-linecap="round" stroke-linejoin="round" stroke-width="1.092"/><line y1="6.832" x2="4.557" transform="translate(35.065 68.425)" fill="none" stroke="#263238" stroke-linecap="round" stroke-linejoin="round" stroke-width="1.092"/><line x2="4.557" y2="6.839" transform="translate(35.065 109.14)" fill="none" stroke="#263238" stroke-linecap="round" stroke-linejoin="round" stroke-width="1.092"/><line x1="4.557" y2="6.839" transform="translate(7.924 109.14)" fill="none" stroke="#263238" stroke-linecap="round" stroke-linejoin="round" stroke-width="1.092"/><rect width="31.698" height="47.553" transform="translate(46.023 68.425)" fill="none" stroke="#263238" stroke-linecap="round" stroke-linejoin="round" stroke-width="1.092"/><rect width="22.59" height="33.882" transform="translate(50.58 75.257)" fill="none" stroke="#263238" stroke-linecap="round" stroke-linejoin="round" stroke-width="1.092"/><line x1="4.557" y1="6.832" transform="translate(46.023 68.425)" fill="none" stroke="#263238" stroke-linecap="round" stroke-linejoin="round" stroke-width="1.092"/><line y1="6.832" x2="4.557" transform="translate(73.163 68.425)" fill="none" stroke="#263238" stroke-linecap="round" stroke-linejoin="round" stroke-width="1.092"/><line x2="4.557" y2="6.839" transform="translate(73.163 109.14)" fill="none" stroke="#263238" stroke-linecap="round" stroke-linejoin="round" stroke-width="1.092"/><line x1="4.557" y2="6.839" transform="translate(46.023 109.14)" fill="none" stroke="#263238" stroke-linecap="round" stroke-linejoin="round" stroke-width="1.092"/><rect width="31.698" height="47.553" transform="translate(7.924 129.149)" fill="none" stroke="#263238" stroke-linecap="round" stroke-linejoin="round" stroke-width="1.092"/><rect width="22.59" height="33.882" transform="translate(12.481 135.981)" fill="none" stroke="#263238" stroke-linecap="round" stroke-linejoin="round" stroke-width="1.092"/><line x1="4.557" y1="6.832" transform="translate(7.924 129.149)" fill="none" stroke="#263238" stroke-linecap="round" stroke-linejoin="round" stroke-width="1.092"/><line y1="6.832" x2="4.557" transform="translate(35.065 129.149)" fill="none" stroke="#263238" stroke-linecap="round" stroke-linejoin="round" stroke-width="1.092"/><line x2="4.557" y2="6.832" transform="translate(35.065 169.863)" fill="none" stroke="#263238" stroke-linecap="round" stroke-linejoin="round" stroke-width="1.092"/><line x1="4.557" y2="6.832" transform="translate(7.924 169.863)" fill="none" stroke="#263238" stroke-linecap="round" stroke-linejoin="round" stroke-width="1.092"/><rect width="31.698" height="47.553" transform="translate(46.023 129.149)" fill="none" stroke="#263238" stroke-linecap="round" stroke-linejoin="round" stroke-width="1.092"/><rect width="22.59" height="33.882" transform="translate(50.58 135.981)" fill="none" stroke="#263238" stroke-linecap="round" stroke-linejoin="round" stroke-width="1.092"/><line x1="4.557" y1="6.832" transform="translate(46.023 129.149)" fill="none" stroke="#263238" stroke-linecap="round" stroke-linejoin="round" stroke-width="1.092"/><line y1="6.832" x2="4.557" transform="translate(73.163 129.149)" fill="none" stroke="#263238" stroke-linecap="round" stroke-linejoin="round" stroke-width="1.092"/><line x2="4.557" y2="6.832" transform="translate(73.163 169.863)" fill="none" stroke="#263238" stroke-linecap="round" stroke-linejoin="round" stroke-width="1.092"/><line x1="4.557" y2="6.832" transform="translate(46.023 169.863)" fill="none" stroke="#263238" stroke-linecap="round" stroke-linejoin="round" stroke-width="1.092"/><circle cx="3.131" cy="3.131" r="3.131" transform="translate(78.242 90.111)" fill="none" stroke="#263238" stroke-linecap="round" stroke-linejoin="round" stroke-width="1.092"/></g><g transform="translate(1100 1878.98)"><line x1="300" transform="translate(0 159.564)" fill="none" stroke="#263238" stroke-linecap="round" stroke-linejoin="round" stroke-width="1.092"/><path d="M171.675,307.06h72.113a10.332,10.332,0,0,1,10.332,10.332v66.484H161.35V317.385a10.332,10.332,0,0,1,10.325-10.325Z" transform="translate(-73.027 -224.305)" fill="#263238" stroke="#263238" stroke-miterlimit="10" stroke-width="1.092"/><path d="M163.473,307.06h72.085a10.332,10.332,0,0,1,10.332,10.332v66.484H153.12V317.385a10.332,10.332,0,0,1,10.353-10.325Z" transform="translate(-70.523 -224.305)" fill="#787878" stroke="#263238" stroke-miterlimit="10" stroke-width="1.092"/><path d="M193.025,217.039s-8.794-2.3-7.841-11.285,7.841-12.05,13.01-13.01a85.178,85.178,0,0,1,12.628-.953s-1.531-3.061,4.4-3.639,22.382,5.169,28.887,16.837,5.162,30.988,2.3,37.305-5.566,19.32-.195,23.718,15.5,9.184,13.97,21.429-14.923,12.607-14.353,19.126,13.393,11.292,10.144,22.577-22.382,13.01-35.392,5.74-9.949-30.8-13.963-43.831-19.327-15.09-21.623-25.791,5.566-16.071,9.378-25.046S193.025,217.039,193.025,217.039Z" transform="translate(-80.094 -188.113)" fill="#263238" stroke="#263238" stroke-linecap="round" stroke-linejoin="round" stroke-width="1.092"/><path d="M207.7,193.367s-24.594-1.656-33.4,10.492" transform="translate(-76.967 -189.688)" fill="none" stroke="#263238" stroke-linecap="round" stroke-linejoin="round" stroke-width="1.092"/><path d="M262.91,203.68S278.1,215.222,278.7,232.838s-6.957,23.655-8.2,31.586,5.169,12.447,5.169,12.447" transform="translate(-103.928 -192.85)" fill="none" stroke="#263238" stroke-linecap="round" stroke-linejoin="round" stroke-width="1.092"/><path d="M266.84,209.35S279.9,221.177,282.028,237.6s0,18.527,0,18.527" transform="translate(-105.124 -194.575)" fill="none" stroke="#263238" stroke-linecap="round" stroke-linejoin="round" stroke-width="1.092"/><path d="M128.088,355.35s-8.036,12.245-9.949,17.025-1.718,8.606,3.256,9.74,12.628-4.745,15.09-7.444,7.076-11.1,7.076-11.1Z" transform="translate(-59.537 -238.998)" fill="#fff" stroke="#263238" stroke-linecap="round" stroke-linejoin="round" stroke-width="1.092"/><path d="M183.993,295.677s-19.9-.188-25.046,1.531S129.1,337,129.1,337l17.219,11.292,7.458-8.231s2.087,10.526,2.087,13.97-2.491,26.438-2.491,26.438h57.391s.96-21.463,4.174-27.391,7.653-13.963,7.653-13.963l16.259,10.519,10.179-24.511S223.2,304.673,216.693,301.8,183.993,295.677,183.993,295.677Z" transform="translate(-63.214 -220.84)" fill="#e37ab0" stroke="#263238" stroke-linecap="round" stroke-linejoin="round" stroke-width="1.092"/><path d="M164.55,348.668s.7-6.157,1.565-11.9,4.411-12.8,4.411-12.8" transform="translate(-74 -229.45)" fill="none" stroke="#263238" stroke-linecap="round" stroke-linejoin="round" stroke-width="1.092"/><line x1="9.907" y1="5.642" transform="translate(149.513 112.623)" fill="none" stroke="#263238" stroke-linecap="round" stroke-linejoin="round" stroke-width="1.092"/><path d="M255.328,356.642s-8.85-.884-12.328-2.212" transform="translate(-97.87 -238.718)" fill="none" stroke="#263238" stroke-linecap="round" stroke-linejoin="round" stroke-width="1.092"/><path d="M172.07,346.23l33.9,57.676,1.364-.779,2.539-52.611Z" transform="translate(-76.288 -236.223)" fill="#263238" stroke="#263238" stroke-linecap="round" stroke-linejoin="round" stroke-width="1.092"/><path d="M168.917,346.23l-2.727,51.442,37.994,6.234,2.532-53.391Z" transform="translate(-74.499 -236.223)" fill="#575757" stroke="#263238" stroke-linecap="round" stroke-linejoin="round" stroke-width="1.092"/><path d="M186.947,370.31l7.8.974-1.364,32.352L179.35,401.3Z" transform="translate(-78.504 -243.55)" fill="#263238" stroke="#263238" stroke-linecap="round" stroke-linejoin="round" stroke-width="1.092"/><path d="M202.978,295.677s-5.107-.049-10.812.125a90.705,90.705,0,0,0-.48,16.9c.765,9.184,2.679,10.526,7.848,9s15.682-14.541,18.743-19.133a32.008,32.008,0,0,0,2.47-4.265C211.981,296.8,202.978,295.677,202.978,295.677Z" transform="translate(-82.199 -220.839)" fill="#fff" stroke="#263238" stroke-linecap="round" stroke-linejoin="round" stroke-width="1.092"/><path d="M197.445,280.991s-1.023,23.724-.835,26.786,4.474,6.31,7.535,4.014,12.266-16.092,13.219-18.583,2.087-13.748,2.087-13.748-8.224,4.974-13.769,4.4S197.445,280.991,197.445,280.991Z" transform="translate(-83.748 -215.907)" fill="#fff" stroke="#263238" stroke-linecap="round" stroke-linejoin="round" stroke-width="1.092"/><path d="M121.327,370.9c-2.866,3.632-5.928,8.224-4.974,11.667s5.566,4.974,15.689,4.78,38.265.577,38.836.765S191.533,390.2,192.3,390.2s4.974-1.725,6.122-3.256,2.087-7.458,2.087-7.458,2.866-2.866,3.061-5.162a4.32,4.32,0,0,0-1.725-3.639,15.306,15.306,0,0,0-.57-3.632c-.577-2.087-4.787-1.148-7.083-1.531s-5.733-1.148-7.076.188-12.433,10.909-12.433,10.909-17.219-1.343-28.122-5.357-17.025-4.787-21.429-.577" transform="translate(-59.281 -241.92)" fill="#fff" stroke="#263238" stroke-linecap="round" stroke-linejoin="round" stroke-width="1.092"/><line x1="10.137" y1="2.296" transform="translate(132.447 126.489)" fill="none" stroke="#263238" stroke-linecap="round" stroke-linejoin="round" stroke-width="1.092"/><path d="M183.75,234.17s-5.566-3.242-6.484,0S183.75,234.17,183.75,234.17Z" transform="translate(-77.845 -201.688)" fill="#fff" stroke="#263238" stroke-linecap="round" stroke-linejoin="round" stroke-width="1.092"/><path d="M184.332,238.8s-4.87,3.7-2.087,3.938S184.332,238.8,184.332,238.8Z" transform="translate(-79.123 -203.535)" fill="#fff" stroke="#263238" stroke-linecap="round" stroke-linejoin="round" stroke-width="1.092"/><path d="M216.775,212.45s-23.488,7.716-23.822,9.74-6.707,17.449-5.364,28.184,9.629,15.16,17.011,15.786c8.989.765,18.555-11.285,18.555-11.285s4.968-1.913,7.653-3.249,3.019-5.037,3.019-5.037a52.747,52.747,0,0,1-12.356-14.666A35.086,35.086,0,0,1,216.775,212.45Z" transform="translate(-80.954 -195.518)" fill="#fff" stroke="#263238" stroke-linecap="round" stroke-linejoin="round" stroke-width="1.092"/><path d="M209.807,232.7a11.577,11.577,0,0,1-1.677,6.707,9.044,9.044,0,0,1-5.03,3.694s.334,3.687,3.019,3.687" transform="translate(-85.73 -201.679)" fill="none" stroke="#263238" stroke-linecap="round" stroke-linejoin="round" stroke-width="1.092"/><path d="M198.1,238.546s2.679-2.679,6.505.571" transform="translate(-84.209 -203.142)" fill="none" stroke="#263238" stroke-linecap="round" stroke-linejoin="round" stroke-width="2.184"/><path d="M220.37,243.425s5.357-.577,6.693,3.061" transform="translate(-90.985 -204.933)" fill="none" stroke="#263238" stroke-linecap="round" stroke-linejoin="round" stroke-width="2.184"/><path d="M204.851,259.441s-4.209-1.531-7.653.765-4.209,5.935-2.3,7.083,5.162-3.639,7.458-.765,6.122,7.458,7.653,3.054S207.912,260.207,204.851,259.441Z" transform="translate(-82.924 -209.664)" fill="#263238" stroke="#263238" stroke-linecap="round" stroke-linejoin="round" stroke-width="1.092"/><path d="M206.8,270.74c2.317,2.846,5.726,6.519,7.145,2.428a6.157,6.157,0,0,0,.292-1.3C211.851,271.617,209.263,271.22,206.8,270.74Z" transform="translate(-86.856 -213.254)" fill="#fff" stroke="#263238" stroke-linecap="round" stroke-linejoin="round" stroke-width="1.092"/><path d="M209.939,261.915a6.958,6.958,0,0,0-3.444-2.47,9.543,9.543,0,0,0-7.215.508A70.635,70.635,0,0,0,209.939,261.915Z" transform="translate(-84.568 -209.668)" fill="#fff" stroke="#263238" stroke-linecap="round" stroke-linejoin="round" stroke-width="1.092"/><path d="M193.881,267.74a2.3,2.3,0,0,0,1.016,2.226c.974.577,2.289-.369,3.653-1.064C196.65,268.464,195.015,268.039,193.881,267.74Z" transform="translate(-82.919 -212.341)" fill="#fff" stroke="#263238" stroke-linecap="round" stroke-linejoin="round" stroke-width="1.092"/><path d="M207,229.635s-.216-1.315-3.054-1.315-7.43,3.479-7.43,3.479" transform="translate(-83.728 -200.347)" fill="none" stroke="#263238" stroke-linecap="round" stroke-linejoin="round" stroke-width="1.092"/><path d="M220.71,231.717a2.823,2.823,0,0,1,4.369.438,25.046,25.046,0,0,1,3.479,5.9" transform="translate(-91.088 -201.121)" fill="none" stroke="#263238" stroke-linecap="round" stroke-linejoin="round" stroke-width="1.092"/><path d="M226.159,236.877c-14.687-9.253-6.957-24.427-6.957-24.427s-14.61,12.523-23.822,9.74" transform="translate(-83.381 -195.518)" fill="none" stroke="#263238" stroke-linecap="round" stroke-linejoin="round" stroke-width="1.092"/><path d="M233.757,261.858s-2.087,2.491-2.087,3.827,4.209,6.888,5.935,4.592-.577-4.014-1.343-6.31S233.757,261.858,233.757,261.858Z" transform="translate(-94.423 -210.55)" fill="#fff" stroke="#263238" stroke-linecap="round" stroke-linejoin="round" stroke-width="1.092"/><path d="M260.644,256.474s-13.219-6.31-17.6-8.606-6.693-.577-6.693-.577-7.848,6.7-7.465,7.848,4.787,4.78,4.787,4.78,2.679,3.827,5.928,4.787,8.036,2.289,9,.758,0-3.82,0-3.82,2.672,2.3,4.4,2.679a23.622,23.622,0,0,0,5.357,0s7.27,46.865,7.27,53.94,3.061,14.541,8.418,16.266,11.473-2.3,12.621-8.036.577-12.05-2.866-19.133-16.259-39.587-18.75-44.186S262.175,257.622,260.644,256.474Z" transform="translate(-93.571 -205.931)" fill="#fff" stroke="#263238" stroke-linecap="round" stroke-linejoin="round" stroke-width="1.092"/><path d="M246.77,269.813a88.056,88.056,0,0,1,3.444-8.224" transform="translate(-99.017 -210.47)" fill="none" stroke="#263238" stroke-linecap="round" stroke-linejoin="round" stroke-width="1.092"/><path d="M240.72,265.954s3.249-8.62,4.369-10.144" transform="translate(-97.176 -208.711)" fill="none" stroke="#263238" stroke-linecap="round" stroke-linejoin="round" stroke-width="1.092"/><path d="M235.77,261.779a90.817,90.817,0,0,1,3.827-8.989" transform="translate(-95.67 -207.792)" fill="none" stroke="#263238" stroke-linecap="round" stroke-linejoin="round" stroke-width="1.092"/></g><g transform="translate(1136.975 1843.266)"><path d="M123.212,170.576l-6.651-2.219,5.176-14.777h-6.262l2.386-9.538a16.621,16.621,0,0,0-28.177,17.574c5.7,11.987,21.129,24.928,27.134,29.666Z" transform="translate(-87.545 -136.798)" fill="#263238"/><path d="M148.607,136.78a16.565,16.565,0,0,0-11.382,4.522l-2.665,8.564,7.4-.369-7.02,16.656L142.324,168l-6.763,23.592c5.663-4.453,21.665-17.72,27.5-29.993a16.628,16.628,0,0,0-14.464-24.817Z" transform="translate(-101.85 -136.78)" fill="#263238"/></g></g></g></svg>